SplineFontDB: 3.0
FontName: mnicmp
FullName: mnicmp Regular
FamilyName: mnicmp
Weight: Regular
Copyright: Copyright (c) 2017, Stewart C. Russell - @scruss
UComments: "2017-2-4: Created with FontForge (http://fontforge.org)"
Version: 001.000
ItalicAngle: 0
UnderlinePosition: -100
UnderlineWidth: 50
Ascent: 800
Descent: 200
InvalidEm: 0
LayerCount: 2
Layer: 0 0 "Back" 1
Layer: 1 0 "Fore" 0
XUID: [1021 318 -1787477875 13535298]
StyleMap: 0x0040
FSType: 0
OS2Version: 0
OS2_WeightWidthSlopeOnly: 0
OS2_UseTypoMetrics: 1
CreationTime: 1486247248
ModificationTime: 1486412614
PfmFamily: 49
TTFWeight: 400
TTFWidth: 5
LineGap: 90
VLineGap: 0
OS2TypoAscent: 0
OS2TypoAOffset: 1
OS2TypoDescent: 0
OS2TypoDOffset: 1
OS2TypoLinegap: 90
OS2WinAscent: 0
OS2WinAOffset: 1
OS2WinDescent: 0
OS2WinDOffset: 1
HheadAscent: 0
HheadAOffset: 1
HheadDescent: 0
HheadDOffset: 1
OS2Vendor: 'PfEd'
MarkAttachClasses: 1
DEI: 91125

StartChar: glyph0
Encoding: 8593 8593 0
Width: 600
VWidth: 0
UnlinkRmOvrlpSave: 1
Flags: W
HStem: 200 21G<286 314> 200 21G<286 314> 533 100<98.4375 161.672 438.328 501.562> 617 100<171.328 234.562 365.438 428.672> 780 20G<286 314>
VStem: 90 100<541.438 621.574> 143 100<628.426 708.562> 250 100<208.438 291.573 292.426 374.139 375.861 457.574 458.427 541.573 542.426 624.139 625.861 707.574 708.427 791.562> 357 100<628.426 708.562> 410 100<541.438 621.574>
LayerCount: 2
Back
Fore
SplineSet
350 250 m 0x89
 350 222 328 200 300 200 c 0
 272 200 250 222 250 250 c 0
 250 267 259 283 272 292 c 1
 259 301 250 316 250 333 c 1
 250 351 259 366 273 375 c 1
 259 384 250 399 250 417 c 0
 250 434 259 449 272 458 c 1
 259 467 250 483 250 500 c 1
 250 517 259 533 272 542 c 1
 259 551 250 566 250 583 c 0
 250 601 259 616 273 625 c 1
 259 634 250 649 250 667 c 0
 250 684 259 699 272 708 c 1
 259 717 250 733 250 750 c 0
 250 778 272 800 300 800 c 0
 328 800 350 778 350 750 c 0
 350 733 341 717 328 708 c 1
 341 699 350 684 350 667 c 0
 350 649 341 634 327 625 c 1
 341 616 350 601 350 583 c 0
 350 566 341 551 328 542 c 1
 341 533 350 517 350 500 c 0
 350 483 341 467 328 458 c 1
 341 449 350 434 350 417 c 0
 350 399 341 384 327 375 c 1
 341 366 350 351 350 333 c 1
 350 316 341 301 328 292 c 1
 341 283 350 267 350 250 c 0x89
510 583 m 0x2940
 510 555 488 533 460 533 c 0
 432 533 410 555 410 583 c 0x2940
 410 599 418 613 429 622 c 1
 422 619 415 617 407 617 c 0
 379 617 357 639 357 667 c 0
 357 695 379 717 407 717 c 0
 435 717 457 695 457 667 c 0x1980
 457 651 449 637 438 628 c 1
 445 631 452 633 460 633 c 0
 488 633 510 611 510 583 c 0x2940
190 583 m 1x1d
 190 555 168 533 140 533 c 0
 112 533 90 555 90 583 c 0
 90 611 112 633 140 633 c 0x2d
 148 633 155 631 162 628 c 1
 151 637 143 651 143 667 c 1
 143 695 165 717 193 717 c 0
 221 717 243 695 243 667 c 0x1b
 243 639 221 617 193 617 c 0
 185 617 178 619 171 622 c 1
 182 613 190 599 190 583 c 1x1d
EndSplineSet
EndChar

StartChar: glyph1
Encoding: 8216 8216 1
Width: 600
VWidth: 0
UnlinkRmOvrlpSave: 1
Flags: W
HStem: 533 100<169.33 235.562> 780 20G<126 154>
VStem: 90 100<626.426 707.574 708.427 791.562> 144 100<541.438 623.574>
LayerCount: 2
Back
Fore
SplineSet
244 583 m 0xd0
 244 555 222 533 194 533 c 0
 166 533 144 555 144 583 c 0xd0
 144 600 152 615 165 624 c 1
 158 620 149 617 140 617 c 0
 112 617 90 639 90 667 c 0
 90 684 99 699 112 708 c 1
 99 717 90 733 90 750 c 0
 90 778 112 800 140 800 c 0
 168 800 190 778 190 750 c 0
 190 733 181 717 168 708 c 1
 181 699 190 684 190 667 c 0xe0
 190 650 182 635 169 626 c 1
 176 630 185 633 194 633 c 0
 222 633 244 611 244 583 c 0xd0
EndSplineSet
EndChar

StartChar: glyph2
Encoding: 8220 8220 2
Width: 600
VWidth: 0
UnlinkRmOvrlpSave: 1
Flags: W
HStem: 533 100<171.328 234.562 331.328 394.562> 617 183<112.88 161.672 272.88 321.672>
VStem: 90 100<628.426 707.574 708.427 791.562> 143 100<541.438 621.574> 250 100<628.426 707.574 708.427 791.562> 303 100<541.438 621.574>
LayerCount: 2
Back
Fore
SplineSet
403 583 m 0x84
 403 555 381 533 353 533 c 0
 325 533 303 555 303 583 c 0x84
 303 599 311 613 322 622 c 1
 315 619 308 617 300 617 c 0
 272 617 250 639 250 667 c 0
 250 684 259 699 272 708 c 1
 259 717 250 733 250 750 c 0
 250 778 272 800 300 800 c 0
 328 800 350 778 350 750 c 0
 350 733 341 717 328 708 c 1
 341 699 350 684 350 667 c 0x48
 350 651 342 637 331 628 c 1
 338 631 345 633 353 633 c 0
 381 633 403 611 403 583 c 0x84
243 583 m 0x90
 243 555 221 533 193 533 c 0
 165 533 143 555 143 583 c 0x90
 143 599 151 613 162 622 c 1
 155 619 148 617 140 617 c 0
 112 617 90 639 90 667 c 0
 90 684 99 699 112 708 c 1
 99 717 90 733 90 750 c 0
 90 778 112 800 140 800 c 0
 168 800 190 778 190 750 c 0
 190 733 181 717 168 708 c 1
 181 699 190 684 190 667 c 0x60
 190 651 182 637 171 628 c 1
 178 631 185 633 193 633 c 0
 221 633 243 611 243 583 c 0x90
EndSplineSet
EndChar

StartChar: dollar
Encoding: 36 36 4
Width: 600
VWidth: 0
UnlinkRmOvrlpSave: 1
Flags: W
HStem: 200 21G<286 314> 200 21G<286 314> 283 100<151.438 234.562 365.438 428.672> 367 100<441.285 501.562> 450 100<174.281 234.562 365.438 425.719> 533 100<98.4375 158.715> 617 100<171.328 234.562 365.438 448.562> 780 20G<286 314>
VStem: 90 100<546.667 621.574> 143 100<291.438 374.562 458.438 536.333 628.426 708.562> 250 100<208.438 291.573 292.426 374.139 375.861 457.574 458.427 541.573 542.426 624.139 625.861 707.574 708.427 791.562> 357 100<291.438 371.574 463.667 541.562 625.438 708.562> 410 100<378.426 453.333>
LayerCount: 2
Back
Fore
SplineSet
350 250 m 0x8120
 350 222 328 200 300 200 c 0
 272 200 250 222 250 250 c 0
 250 267 259 283 272 292 c 1
 259 301 250 316 250 333 c 1
 250 351 259 366 273 375 c 1
 259 384 250 399 250 417 c 0
 250 434 259 449 272 458 c 1
 259 467 250 483 250 500 c 1
 250 517 259 533 272 542 c 1
 259 551 250 566 250 583 c 0
 250 601 259 616 273 625 c 1
 259 634 250 649 250 667 c 0
 250 684 259 699 272 708 c 1
 259 717 250 733 250 750 c 0
 250 778 272 800 300 800 c 0
 328 800 350 778 350 750 c 0
 350 733 341 717 328 708 c 1
 341 699 350 684 350 667 c 0
 350 649 341 634 327 625 c 1
 341 616 350 601 350 583 c 0
 350 566 341 551 328 542 c 1
 341 533 350 517 350 500 c 0
 350 483 341 467 328 458 c 1
 341 449 350 434 350 417 c 0
 350 399 341 384 327 375 c 1
 341 366 350 351 350 333 c 1
 350 316 341 301 328 292 c 1
 341 283 350 267 350 250 c 0x8120
457 333 m 0x1130
 457 305 435 283 407 283 c 0
 379 283 357 305 357 333 c 0x2130
 357 361 379 383 407 383 c 0
 415 383 422 381 429 378 c 1
 418 387 410 401 410 417 c 0x2128
 410 432 416 445 426 454 c 1
 420 452 414 450 407 450 c 0
 379 450 357 472 357 500 c 0
 357 528 379 550 407 550 c 0
 435 550 457 528 457 500 c 0x2930
 457 485 451 472 441 463 c 1
 447 465 453 467 460 467 c 0
 488 467 510 445 510 417 c 0x1128
 510 389 488 367 460 367 c 0
 452 367 445 369 438 372 c 1
 449 363 457 349 457 333 c 0x1130
243 333 m 0x2160
 243 305 221 283 193 283 c 0
 165 283 143 305 143 333 c 0
 143 361 165 383 193 383 c 0
 221 383 243 361 243 333 c 0x2160
243 500 m 0
 243 472 221 450 193 450 c 0
 165 450 143 472 143 500 c 0x0b60
 143 515 149 528 159 537 c 1
 153 535 147 533 140 533 c 0
 112 533 90 555 90 583 c 0
 90 611 112 633 140 633 c 0x05a0
 148 633 155 631 162 628 c 1
 151 637 143 651 143 667 c 1
 143 695 165 717 193 717 c 0
 221 717 243 695 243 667 c 0x0360
 243 639 221 617 193 617 c 0
 185 617 178 619 171 622 c 1
 182 613 190 599 190 583 c 1
 190 568 184 555 174 546 c 1
 180 548 186 550 193 550 c 0x0ba0
 221 550 243 528 243 500 c 0
457 667 m 0x0330
 457 639 435 617 407 617 c 0
 379 617 357 639 357 667 c 0
 357 695 379 717 407 717 c 0
 435 717 457 695 457 667 c 0x0330
EndSplineSet
EndChar

StartChar: section
Encoding: 167 167 5
Width: 600
VWidth: 0
UnlinkRmOvrlpSave: 1
Flags: W
HStem: 200 100<98.4375 181.562 205.438 265.719> 283 100<281 322> 367 100<226.282 268.672 331.328 373.718> 450 100<151.438 213.718 386.282 448.562> 533 100<226.282 268.672 331.328 373.718> 617 100<278 319> 700 100<334.281 394.562 418.438 501.562>
VStem: 90 100<208.438 291.562> 143 100<462.426 537.574> 197 100<208.438 286.333 378.426 454.574 545.426 621.574> 250 100<296.667 371.574 628.426 703.333> 303 100<378.426 454.574 545.426 621.574 713.667 791.562> 357 100<462.426 537.574> 410 100<708.438 791.562>
LayerCount: 2
Back
Fore
SplineSet
297 250 m 0x4040
 297 222 275 200 247 200 c 0
 219 200 197 222 197 250 c 0x8040
 197 278 219 300 247 300 c 0
 254 300 260 298 266 296 c 1
 256 305 250 318 250 333 c 0x8020
 250 349 258 363 269 372 c 1
 262 369 255 367 247 367 c 0
 219 367 197 389 197 417 c 0xa040
 197 432 204 446 214 455 c 1
 208 452 201 450 193 450 c 0
 165 450 143 472 143 500 c 0
 143 528 165 550 193 550 c 0x1080
 201 550 208 548 214 545 c 1
 204 554 197 568 197 583 c 1
 197 611 219 633 247 633 c 0x0840
 255 633 262 631 269 628 c 1
 258 637 250 651 250 667 c 1
 250 695 272 717 300 717 c 0x0420
 307 717 313 715 319 713 c 1
 309 722 303 735 303 750 c 1
 303 778 325 800 353 800 c 0
 381 800 403 778 403 750 c 0x0210
 403 722 381 700 353 700 c 0
 346 700 340 702 334 704 c 1
 344 695 350 682 350 667 c 1x0220
 350 651 342 637 331 628 c 1
 338 631 345 633 353 633 c 0
 381 633 403 611 403 583 c 0x0a10
 403 568 396 554 386 545 c 1
 392 548 399 550 407 550 c 0
 435 550 457 528 457 500 c 0x1008
 457 472 435 450 407 450 c 0
 399 450 392 452 386 455 c 1
 396 446 403 432 403 417 c 0x1010
 403 389 381 367 353 367 c 0
 345 367 338 369 331 372 c 1
 342 363 350 349 350 333 c 0x2020
 350 305 328 283 300 283 c 0
 293 283 287 285 281 287 c 1
 291 278 297 265 297 250 c 0x4040
190 250 m 0x81
 190 222 168 200 140 200 c 0
 112 200 90 222 90 250 c 0
 90 278 112 300 140 300 c 0
 168 300 190 278 190 250 c 0x81
297 583 m 1x0450
 297 555 275 533 247 533 c 0
 239 533 232 535 226 538 c 1
 236 529 243 515 243 500 c 1
 243 485 236 471 226 462 c 1
 232 465 239 467 247 467 c 0x2880
 275 467 297 445 297 417 c 0
 297 401 289 387 278 378 c 1
 285 381 292 383 300 383 c 0
 308 383 315 381 322 378 c 1
 311 387 303 401 303 417 c 0x4050
 303 445 325 467 353 467 c 0
 361 467 368 465 374 462 c 1
 364 471 357 485 357 500 c 0
 357 515 364 529 374 538 c 1
 368 535 361 533 353 533 c 0x2808
 325 533 303 555 303 583 c 0
 303 599 311 613 322 622 c 1
 315 619 308 617 300 617 c 0
 292 617 285 619 278 622 c 1
 289 613 297 599 297 583 c 1x0450
510 750 m 0x0204
 510 722 488 700 460 700 c 0
 432 700 410 722 410 750 c 0
 410 778 432 800 460 800 c 0
 488 800 510 778 510 750 c 0x0204
EndSplineSet
EndChar

StartChar: parenleft
Encoding: 40 40 6
Width: 600
VWidth: 0
UnlinkRmOvrlpSave: 1
Flags: W
HStem: 200 100<227.281 287.562> 283 100<171.328 211.719> 613 20G<126 144> 617 100<171 212> 700 100<227.281 287.562>
VStem: 90 100<378.426 457.574 458.427 541.573 542.426 621.574> 143 100<296.667 371.574 628.426 703.333> 196 100<208.438 286.333 713.667 791.562>
LayerCount: 2
Back
Fore
SplineSet
296 250 m 0x81
 296 222 274 200 246 200 c 0
 218 200 196 222 196 250 c 0x81
 196 265 202 278 212 287 c 1
 206 285 200 283 193 283 c 0
 165 283 143 305 143 333 c 0x42
 143 349 151 363 162 372 c 1
 155 369 148 367 140 367 c 0
 112 367 90 389 90 417 c 0
 90 434 99 449 112 458 c 1
 99 467 90 483 90 500 c 1
 90 517 99 533 112 542 c 1
 99 551 90 566 90 583 c 0
 90 611 112 633 140 633 c 0x64
 148 633 155 631 162 628 c 1
 151 637 143 651 143 667 c 1
 143 695 165 717 193 717 c 0x12
 200 717 206 715 212 713 c 1
 202 722 196 735 196 750 c 1
 196 778 218 800 246 800 c 0
 274 800 296 778 296 750 c 0x09
 296 722 274 700 246 700 c 0
 239 700 233 702 227 704 c 1
 237 695 243 682 243 667 c 1x0a
 243 639 221 617 193 617 c 0
 185 617 178 619 171 622 c 1
 182 613 190 599 190 583 c 1
 190 566 181 551 168 542 c 1
 181 533 190 517 190 500 c 0
 190 483 181 467 168 458 c 1
 181 449 190 434 190 417 c 1x14
 190 401 182 387 171 378 c 1
 178 381 185 383 193 383 c 0
 221 383 243 361 243 333 c 0x52
 243 318 237 305 227 296 c 1
 233 298 239 300 246 300 c 0
 274 300 296 278 296 250 c 0x81
EndSplineSet
EndChar

StartChar: comma
Encoding: 44 44 7
Width: 600
VWidth: 0
UnlinkRmOvrlpSave: 1
Flags: W
HStem: 200 100<98.4375 158.719> 283 100<174 215> 367 183<112.88 161.672 224.328 273.12>
VStem: 90 100<208.438 286.333 378.426 457.574 458.427 541.562> 143 100<296.667 371.574> 196 100<378.426 457.574 458.427 541.562>
LayerCount: 2
Back
Fore
SplineSet
190 250 m 0x50
 190 222 168 200 140 200 c 0
 112 200 90 222 90 250 c 0x90
 90 278 112 300 140 300 c 0
 147 300 153 298 159 296 c 1
 149 305 143 318 143 333 c 0x88
 143 349 151 363 162 372 c 1
 155 369 148 367 140 367 c 0
 112 367 90 389 90 417 c 0
 90 434 99 449 112 458 c 1
 99 467 90 483 90 500 c 1
 90 528 112 550 140 550 c 0xb0
 168 550 190 528 190 500 c 0
 190 483 181 467 168 458 c 1
 181 449 190 434 190 417 c 1
 190 401 182 387 171 378 c 1
 178 381 185 383 193 383 c 0x50
 201 383 208 381 215 378 c 1
 204 387 196 401 196 417 c 0
 196 434 205 449 218 458 c 1
 205 467 196 483 196 500 c 0
 196 528 218 550 246 550 c 0
 274 550 296 528 296 500 c 0
 296 483 287 467 274 458 c 1
 287 449 296 434 296 417 c 0x34
 296 389 274 367 246 367 c 0
 238 367 231 369 224 372 c 1
 235 363 243 349 243 333 c 0x28
 243 305 221 283 193 283 c 0
 186 283 180 285 174 287 c 1
 184 278 190 265 190 250 c 0x50
EndSplineSet
EndChar

StartChar: zero
Encoding: 48 48 8
Width: 600
VWidth: 0
UnlinkRmOvrlpSave: 1
Flags: W
HStem: 200 100<226.282 288.562 311.438 373.718> 283 100<171.328 213.718 386.282 428.672> 613 20G<126 144 456 474> 617 100<171.328 213.718 386.282 428.672> 700 100<226.282 288.562 311.438 373.718>
VStem: 90 100<378.426 457.574 458.427 541.573 542.426 621.574> 143 100<295.426 371.574 628.426 704.574> 197 100<208.438 287.574 712.426 791.562> 303 100<208.438 287.574 712.426 791.562> 357 100<295.426 371.574 628.426 704.574> 410 100<378.426 457.574 458.427 541.573 542.426 621.574>
LayerCount: 2
Back
Fore
SplineSet
403 250 m 0x6080
 403 222 381 200 353 200 c 0
 325 200 303 222 303 250 c 0x8080
 303 278 325 300 353 300 c 0
 361 300 368 298 374 295 c 1
 364 304 357 318 357 333 c 0x8040
 357 361 379 383 407 383 c 0
 415 383 422 381 429 378 c 1
 418 387 410 401 410 417 c 0
 410 434 419 449 432 458 c 1
 419 467 410 483 410 500 c 0
 410 517 419 533 432 542 c 1
 419 551 410 566 410 583 c 0x4020
 410 599 418 613 429 622 c 1
 422 619 415 617 407 617 c 0
 379 617 357 639 357 667 c 0x5040
 357 682 364 696 374 705 c 1
 368 702 361 700 353 700 c 0
 325 700 303 722 303 750 c 0
 303 778 325 800 353 800 c 0
 381 800 403 778 403 750 c 0x0880
 403 735 396 721 386 712 c 1
 392 715 399 717 407 717 c 0
 435 717 457 695 457 667 c 0x1040
 457 651 449 637 438 628 c 1
 445 631 452 633 460 633 c 0
 488 633 510 611 510 583 c 0
 510 566 501 551 488 542 c 1
 501 533 510 517 510 500 c 0
 510 483 501 467 488 458 c 1
 501 449 510 434 510 417 c 0x2020
 510 389 488 367 460 367 c 0
 452 367 445 369 438 372 c 1
 449 363 457 349 457 333 c 0x2040
 457 305 435 283 407 283 c 0
 399 283 392 285 386 288 c 1
 396 279 403 265 403 250 c 0x6080
297 250 m 0x81
 297 222 275 200 247 200 c 0
 219 200 197 222 197 250 c 0x81
 197 265 204 279 214 288 c 1
 208 285 201 283 193 283 c 0
 165 283 143 305 143 333 c 0x42
 143 349 151 363 162 372 c 1
 155 369 148 367 140 367 c 0
 112 367 90 389 90 417 c 0
 90 434 99 449 112 458 c 1
 99 467 90 483 90 500 c 1
 90 517 99 533 112 542 c 1
 99 551 90 566 90 583 c 0
 90 611 112 633 140 633 c 0x64
 148 633 155 631 162 628 c 1
 151 637 143 651 143 667 c 1
 143 695 165 717 193 717 c 0x12
 201 717 208 715 214 712 c 1
 204 721 197 735 197 750 c 1
 197 778 219 800 247 800 c 0
 275 800 297 778 297 750 c 0x09
 297 722 275 700 247 700 c 0
 239 700 232 702 226 705 c 1
 236 696 243 682 243 667 c 1x0a
 243 639 221 617 193 617 c 0
 185 617 178 619 171 622 c 1
 182 613 190 599 190 583 c 1
 190 566 181 551 168 542 c 1
 181 533 190 517 190 500 c 0
 190 483 181 467 168 458 c 1
 181 449 190 434 190 417 c 1x14
 190 401 182 387 171 378 c 1
 178 381 185 383 193 383 c 0
 221 383 243 361 243 333 c 0x52
 243 318 236 304 226 295 c 1
 232 298 239 300 247 300 c 0
 275 300 297 278 297 250 c 0x81
EndSplineSet
EndChar

StartChar: glyph9
Encoding: 9785 9785 9
Width: 600
VWidth: 0
UnlinkRmOvrlpSave: 1
Flags: W
HStem: 283 100<98.4375 161.672 438.328 501.562> 367 100<171.328 234.562 258.438 341.562 365.438 428.672> 617 100<151.438 234.562 365.438 448.562>
VStem: 90 100<291.438 371.574> 143 100<378.426 458.562 625.438 708.562> 250 100<375.438 458.562> 357 100<378.426 458.562 625.438 708.562> 410 100<291.438 371.574>
LayerCount: 2
Back
Fore
SplineSet
510 333 m 0xa5
 510 305 488 283 460 283 c 0
 432 283 410 305 410 333 c 0xa5
 410 349 418 363 429 372 c 1
 422 369 415 367 407 367 c 0
 379 367 357 389 357 417 c 0
 357 445 379 467 407 467 c 0
 435 467 457 445 457 417 c 0x66
 457 401 449 387 438 378 c 1
 445 381 452 383 460 383 c 0
 488 383 510 361 510 333 c 0xa5
190 333 m 0x74
 190 305 168 283 140 283 c 0
 112 283 90 305 90 333 c 0
 90 361 112 383 140 383 c 0xb4
 148 383 155 381 162 378 c 1
 151 387 143 401 143 417 c 0
 143 445 165 467 193 467 c 0
 221 467 243 445 243 417 c 0x6c
 243 389 221 367 193 367 c 0
 185 367 178 369 171 372 c 1
 182 363 190 349 190 333 c 0x74
350 417 m 0
 350 389 328 367 300 367 c 0
 272 367 250 389 250 417 c 0
 250 445 272 467 300 467 c 0x64
 328 467 350 445 350 417 c 0
457 667 m 0x26
 457 639 435 617 407 617 c 0
 379 617 357 639 357 667 c 0
 357 695 379 717 407 717 c 0
 435 717 457 695 457 667 c 0x26
243 667 m 0x2c
 243 639 221 617 193 617 c 0
 165 617 143 639 143 667 c 0
 143 695 165 717 193 717 c 0
 221 717 243 695 243 667 c 0x2c
EndSplineSet
EndChar

StartChar: four
Encoding: 52 52 10
Width: 600
VWidth: 0
UnlinkRmOvrlpSave: 1
Flags: W
HStem: 200 21G<393 421> 200 21G<393 421> 367 100<98.4375 158.719 226.282 288.562 311.438 373.718 441.285 501.562> 450 100<174.281 213.718> 533 100<226.282 268.672> 617 100<278 319> 700 100<334.281 373.718>
VStem: 90 100<375.438 453.333> 143 100<463.425 537.574> 197 100<375.438 454.574 545.426 621.574> 250 100<628.426 703.333> 303 100<376.426 454.574 713.425 791.562> 357 100<208.438 291.573 292.426 371.574 463.425 541.573 542.426 624.139 625.861 704.574> 410 100<378.426 453.333>
LayerCount: 2
Back
Fore
SplineSet
457 250 m 0x2408
 457 222 435 200 407 200 c 0
 379 200 357 222 357 250 c 0
 357 267 366 283 379 292 c 1
 366 301 357 316 357 333 c 0xa408
 357 350 365 365 378 374 c 1
 371 370 362 367 353 367 c 0
 325 367 303 389 303 417 c 0xa410
 303 445 325 467 353 467 c 0
 361 467 368 465 374 462 c 1
 364 471 357 485 357 500 c 0
 357 517 366 533 379 542 c 1
 366 551 357 566 357 583 c 0
 357 601 366 616 380 625 c 1
 366 634 357 649 357 667 c 0
 357 682 364 696 374 705 c 1
 368 702 361 700 353 700 c 0
 346 700 340 702 334 704 c 1
 344 695 350 682 350 667 c 1xa228
 350 639 328 617 300 617 c 0
 292 617 285 619 278 622 c 1
 289 613 297 599 297 583 c 1x0440
 297 555 275 533 247 533 c 0
 239 533 232 535 226 538 c 1
 236 529 243 515 243 500 c 1x0880
 243 485 236 471 226 462 c 1
 232 465 239 467 247 467 c 0
 275 467 297 445 297 417 c 0
 297 389 275 367 247 367 c 0x2840
 219 367 197 389 197 417 c 0
 197 432 204 446 214 455 c 1
 208 452 201 450 193 450 c 0x1040
 186 450 180 452 174 454 c 1
 184 445 190 432 190 417 c 0
 190 389 168 367 140 367 c 0
 112 367 90 389 90 417 c 0
 90 445 112 467 140 467 c 0x2140
 147 467 153 465 159 463 c 1
 149 472 143 485 143 500 c 0
 143 528 165 550 193 550 c 0x1080
 201 550 208 548 214 545 c 1
 204 554 197 568 197 583 c 1
 197 611 219 633 247 633 c 0x0840
 255 633 262 631 269 628 c 1
 258 637 250 651 250 667 c 1
 250 695 272 717 300 717 c 0x0420
 307 717 313 715 319 713 c 1
 309 722 303 735 303 750 c 1
 303 778 325 800 353 800 c 0
 381 800 403 778 403 750 c 0x0210
 403 735 396 721 386 712 c 1
 392 715 399 717 407 717 c 0
 435 717 457 695 457 667 c 0
 457 649 448 634 434 625 c 1
 448 616 457 601 457 583 c 0
 457 566 448 551 435 542 c 1
 448 533 457 517 457 500 c 0x0408
 457 485 451 472 441 463 c 1
 447 465 453 467 460 467 c 0
 488 467 510 445 510 417 c 0x2404
 510 389 488 367 460 367 c 0
 452 367 445 369 438 372 c 1
 449 363 457 349 457 333 c 0
 457 316 448 301 435 292 c 1
 448 283 457 267 457 250 c 0x2408
429 378 m 1
 418 387 410 401 410 417 c 0
 410 432 416 445 426 454 c 1
 420 452 414 450 407 450 c 0
 399 450 392 452 386 455 c 1
 396 446 403 432 403 417 c 0x1014
 403 400 395 385 382 376 c 1
 389 380 398 383 407 383 c 0
 415 383 422 381 429 378 c 1
EndSplineSet
EndChar

StartChar: periodcentered
Encoding: 183 183 11
Width: 600
VWidth: 0
UnlinkRmOvrlpSave: 1
Flags: W
HStem: 367 100<173.282 212.719 281.281 320.718> 450 100<98.4375 160.718 228 266 333.282 395.562> 533 100<173.282 212.719 281.281 320.718>
VStem: 90 100<462.426 537.574> 144 100<375.438 453.575 546.425 624.562> 197 100<463.425 536.575> 250 100<375.438 453.575 546.425 624.562> 304 100<462.426 537.574>
LayerCount: 2
Back
Fore
SplineSet
350 417 m 0x42
 350 389 328 367 300 367 c 0x82
 272 367 250 389 250 417 c 0
 250 432 256 445 266 454 c 1
 260 452 254 450 247 450 c 0x42
 240 450 234 452 228 454 c 1
 238 445 244 432 244 417 c 0
 244 389 222 367 194 367 c 0
 166 367 144 389 144 417 c 0x8a
 144 432 151 446 161 455 c 1
 155 452 148 450 140 450 c 0
 112 450 90 472 90 500 c 0
 90 528 112 550 140 550 c 0x50
 148 550 155 548 161 545 c 1
 151 554 144 568 144 583 c 1
 144 611 166 633 194 633 c 0x28
 222 633 244 611 244 583 c 0
 244 568 238 555 228 546 c 1
 234 548 240 550 247 550 c 0x48
 254 550 260 548 266 546 c 1
 256 555 250 568 250 583 c 1
 250 611 272 633 300 633 c 0
 328 633 350 611 350 583 c 0x2a
 350 568 343 554 333 545 c 1
 339 548 346 550 354 550 c 0
 382 550 404 528 404 500 c 0x41
 404 472 382 450 354 450 c 0
 346 450 339 452 333 455 c 1
 343 446 350 432 350 417 c 0x42
321 462 m 1
 311 471 304 485 304 500 c 0
 304 515 311 529 321 538 c 1
 315 535 308 533 300 533 c 0
 293 533 287 535 281 537 c 1
 291 528 297 515 297 500 c 1xa5
 297 485 291 472 281 463 c 1
 287 465 293 467 300 467 c 0
 308 467 315 465 321 462 c 1
213 463 m 1
 203 472 197 485 197 500 c 0
 197 515 203 528 213 537 c 1
 207 535 201 533 194 533 c 0
 186 533 179 535 173 538 c 1
 183 529 190 515 190 500 c 1xb4
 190 485 183 471 173 462 c 1
 179 465 186 467 194 467 c 0
 201 467 207 465 213 463 c 1
EndSplineSet
EndChar

StartChar: eight
Encoding: 56 56 12
Width: 600
VWidth: 0
UnlinkRmOvrlpSave: 1
Flags: W
HStem: 200 100<174.281 234.562 258.438 341.562 365.438 425.719> 450 100<174.281 234.562 258.438 341.562 365.438 425.719> 700 100<174.281 234.562 258.438 341.562 365.438 425.719>
VStem: 90 100<296.667 374.139 375.861 453.333 546.667 624.139 625.861 703.333> 143 100<208.438 286.333 463.667 536.333 713.667 791.562> 250 100<208.438 291.562 458.438 541.562 708.438 791.562> 357 100<208.438 286.333 463.667 536.333 713.667 791.562> 410 100<296.667 374.139 375.861 453.333 546.667 624.139 625.861 703.333>
CounterMasks: 1 e0
LayerCount: 2
Back
Fore
SplineSet
457 250 m 1xe6
 457 222 435 200 407 200 c 0
 379 200 357 222 357 250 c 0xe6
 357 278 379 300 407 300 c 0
 414 300 420 298 426 296 c 1
 416 305 410 318 410 333 c 1
 410 351 419 366 433 375 c 1
 419 384 410 399 410 417 c 1xe5
 410 432 416 445 426 454 c 1
 420 452 414 450 407 450 c 0
 379 450 357 472 357 500 c 0xe6
 357 528 379 550 407 550 c 0
 414 550 420 548 426 546 c 1
 416 555 410 568 410 583 c 1
 410 601 419 616 433 625 c 1
 419 634 410 649 410 667 c 0xe5
 410 682 416 695 426 704 c 1
 420 702 414 700 407 700 c 0
 379 700 357 722 357 750 c 0
 357 778 379 800 407 800 c 0
 435 800 457 778 457 750 c 0xe6
 457 735 451 722 441 713 c 1
 447 715 453 717 460 717 c 0
 488 717 510 695 510 667 c 0
 510 649 501 634 487 625 c 1
 501 616 510 601 510 583 c 0xe5
 510 555 488 533 460 533 c 0
 453 533 447 535 441 537 c 1
 451 528 457 515 457 500 c 1xe6
 457 485 451 472 441 463 c 1
 447 465 453 467 460 467 c 0
 488 467 510 445 510 417 c 0
 510 399 501 384 487 375 c 1
 501 366 510 351 510 333 c 1xe5
 510 305 488 283 460 283 c 0
 453 283 447 285 441 287 c 1
 451 278 457 265 457 250 c 1xe6
350 250 m 0
 350 222 328 200 300 200 c 0
 272 200 250 222 250 250 c 0
 250 278 272 300 300 300 c 0
 328 300 350 278 350 250 c 0
243 250 m 0xec
 243 222 221 200 193 200 c 0
 165 200 143 222 143 250 c 0xec
 143 265 149 278 159 287 c 1
 153 285 147 283 140 283 c 0
 112 283 90 305 90 333 c 0
 90 351 99 366 113 375 c 1
 99 384 90 399 90 417 c 0xf4
 90 445 112 467 140 467 c 0
 147 467 153 465 159 463 c 1
 149 472 143 485 143 500 c 0xec
 143 515 149 528 159 537 c 1
 153 535 147 533 140 533 c 0
 112 533 90 555 90 583 c 0
 90 601 99 616 113 625 c 1
 99 634 90 649 90 667 c 0xf4
 90 695 112 717 140 717 c 0
 147 717 153 715 159 713 c 1
 149 722 143 735 143 750 c 0
 143 778 165 800 193 800 c 0
 221 800 243 778 243 750 c 0xec
 243 722 221 700 193 700 c 0
 186 700 180 702 174 704 c 1
 184 695 190 682 190 667 c 0
 190 649 181 634 167 625 c 1
 181 616 190 601 190 583 c 0xf4
 190 568 184 555 174 546 c 1
 180 548 186 550 193 550 c 0
 221 550 243 528 243 500 c 0xec
 243 472 221 450 193 450 c 0
 186 450 180 452 174 454 c 1
 184 445 190 432 190 417 c 0
 190 399 181 384 167 375 c 1
 181 366 190 351 190 333 c 0xf4
 190 318 184 305 174 296 c 1
 180 298 186 300 193 300 c 0
 221 300 243 278 243 250 c 0xec
350 500 m 0
 350 472 328 450 300 450 c 0
 272 450 250 472 250 500 c 0
 250 528 272 550 300 550 c 0
 328 550 350 528 350 500 c 0
350 750 m 0
 350 722 328 700 300 700 c 0
 272 700 250 722 250 750 c 0
 250 778 272 800 300 800 c 0
 328 800 350 778 350 750 c 0
EndSplineSet
EndChar

StartChar: less
Encoding: 60 60 13
Width: 600
VWidth: 0
UnlinkRmOvrlpSave: 1
Flags: W
HStem: 200 100<418.438 501.562> 283 100<311.438 394.562> 367 100<205.438 288.562> 450 100<98.4375 181.562> 533 100<205.438 288.562> 617 100<311.438 394.562> 700 100<418.438 501.562>
VStem: 90 100<458.438 541.562> 197 100<375.438 458.562 541.438 624.562> 303 100<291.438 374.562 625.438 708.562> 410 100<208.438 291.562 708.438 791.562>
LayerCount: 2
Back
Fore
SplineSet
510 250 m 0x81e0
 510 222 488 200 460 200 c 0
 432 200 410 222 410 250 c 0
 410 278 432 300 460 300 c 0
 488 300 510 278 510 250 c 0x81e0
403 333 m 0
 403 305 381 283 353 283 c 0
 325 283 303 305 303 333 c 0
 303 361 325 383 353 383 c 0x41e0
 381 383 403 361 403 333 c 0
297 417 m 0
 297 389 275 367 247 367 c 0
 219 367 197 389 197 417 c 0
 197 445 219 467 247 467 c 0x21e0
 275 467 297 445 297 417 c 0
190 500 m 0
 190 472 168 450 140 450 c 0
 112 450 90 472 90 500 c 0
 90 528 112 550 140 550 c 0x11e0
 168 550 190 528 190 500 c 0
297 583 m 0
 297 555 275 533 247 533 c 0
 219 533 197 555 197 583 c 0
 197 611 219 633 247 633 c 0x09e0
 275 633 297 611 297 583 c 0
403 667 m 0
 403 639 381 617 353 617 c 0
 325 617 303 639 303 667 c 0
 303 695 325 717 353 717 c 0x05e0
 381 717 403 695 403 667 c 0
510 750 m 0
 510 722 488 700 460 700 c 0
 432 700 410 722 410 750 c 0
 410 778 432 800 460 800 c 0x03e0
 488 800 510 778 510 750 c 0
EndSplineSet
EndChar

StartChar: at
Encoding: 64 64 14
Width: 600
VWidth: 0
UnlinkRmOvrlpSave: 1
Flags: W
HStem: 200 100<174.281 234.562 258.438 341.562 365.438 448.562> 367 100<365.438 425.719> 533 100<334.281 394.562> 700 100<174.281 234.562 258.438 341.562 365.438 425.719>
VStem: 90 100<296.667 374.139 375.861 457.574 458.427 541.573 542.426 624.139 625.861 703.333> 143 100<208.438 286.333 713.667 791.562> 250 100<208.438 291.562 375.438 457.574 458.427 536.333 708.438 791.562> 303 100<546.667 624.562> 357 100<208.438 291.562 375.438 453.333 713.667 791.562> 410 100<463.667 541.573 542.426 624.139 625.861 703.333>
LayerCount: 2
Back
Fore
SplineSet
457 250 m 0xf080
 457 222 435 200 407 200 c 0
 379 200 357 222 357 250 c 0
 357 278 379 300 407 300 c 0
 435 300 457 278 457 250 c 0xf080
350 250 m 0xf2
 350 222 328 200 300 200 c 0
 272 200 250 222 250 250 c 0
 250 278 272 300 300 300 c 0
 328 300 350 278 350 250 c 0xf2
243 250 m 0xf4
 243 222 221 200 193 200 c 0
 165 200 143 222 143 250 c 0xf4
 143 265 149 278 159 287 c 1
 153 285 147 283 140 283 c 0
 112 283 90 305 90 333 c 0
 90 351 99 366 113 375 c 1
 99 384 90 399 90 417 c 0
 90 434 99 449 112 458 c 1
 99 467 90 483 90 500 c 1
 90 517 99 533 112 542 c 1
 99 551 90 566 90 583 c 0
 90 601 99 616 113 625 c 1
 99 634 90 649 90 667 c 0xf8
 90 695 112 717 140 717 c 0
 147 717 153 715 159 713 c 1
 149 722 143 735 143 750 c 0
 143 778 165 800 193 800 c 0
 221 800 243 778 243 750 c 0xf4
 243 722 221 700 193 700 c 0
 186 700 180 702 174 704 c 1
 184 695 190 682 190 667 c 0
 190 649 181 634 167 625 c 1
 181 616 190 601 190 583 c 0
 190 566 181 551 168 542 c 1
 181 533 190 517 190 500 c 0
 190 483 181 467 168 458 c 1
 181 449 190 434 190 417 c 1
 190 399 181 384 167 375 c 1
 181 366 190 351 190 333 c 0xf8
 190 318 184 305 174 296 c 1
 180 298 186 300 193 300 c 0
 221 300 243 278 243 250 c 0xf4
457 417 m 1xf080
 457 389 435 367 407 367 c 0
 379 367 357 389 357 417 c 0xf080
 357 445 379 467 407 467 c 0
 414 467 420 465 426 463 c 1
 416 472 410 485 410 500 c 1
 410 517 419 533 432 542 c 1
 419 551 410 566 410 583 c 0
 410 601 419 616 433 625 c 1
 419 634 410 649 410 667 c 0xf040
 410 682 416 695 426 704 c 1
 420 702 414 700 407 700 c 0
 379 700 357 722 357 750 c 0
 357 778 379 800 407 800 c 0
 435 800 457 778 457 750 c 0xf080
 457 735 451 722 441 713 c 1
 447 715 453 717 460 717 c 0
 488 717 510 695 510 667 c 0
 510 649 501 634 487 625 c 1
 501 616 510 601 510 583 c 0
 510 566 501 551 488 542 c 1
 501 533 510 517 510 500 c 0xf040
 510 472 488 450 460 450 c 0
 453 450 447 452 441 454 c 1
 451 445 457 432 457 417 c 1xf080
350 417 m 0xf2
 350 389 328 367 300 367 c 0
 272 367 250 389 250 417 c 0
 250 434 259 449 272 458 c 1
 259 467 250 483 250 500 c 1xf2
 250 528 272 550 300 550 c 0
 307 550 313 548 319 546 c 1
 309 555 303 568 303 583 c 1
 303 611 325 633 353 633 c 0
 381 633 403 611 403 583 c 0xf1
 403 555 381 533 353 533 c 0
 346 533 340 535 334 537 c 1
 344 528 350 515 350 500 c 1
 350 483 341 467 328 458 c 1
 341 449 350 434 350 417 c 0xf2
350 750 m 0
 350 722 328 700 300 700 c 0
 272 700 250 722 250 750 c 0
 250 778 272 800 300 800 c 0
 328 800 350 778 350 750 c 0
EndSplineSet
EndChar

StartChar: D
Encoding: 68 68 15
Width: 600
VWidth: 0
UnlinkRmOvrlpSave: 1
Flags: W
HStem: 200 100<98.4375 158.719 226.282 288.562 311.438 394.562> 700 100<98.4375 158.719 226.282 288.562 311.438 394.562>
VStem: 90 100<208.438 286.333 713.667 791.562> 143 100<296.425 374.139 375.861 457.574 458.427 541.573 542.426 624.139 625.861 703.575> 197 100<208.438 287.574 712.426 791.562> 303 100<208.438 291.562 708.438 791.562> 410 100<291.438 374.139 375.861 457.574 458.427 541.573 542.426 624.139 625.861 708.562>
LayerCount: 2
Back
Fore
SplineSet
403 250 m 0xc6
 403 222 381 200 353 200 c 0
 325 200 303 222 303 250 c 0
 303 278 325 300 353 300 c 0
 381 300 403 278 403 250 c 0xc6
297 250 m 0xce
 297 222 275 200 247 200 c 0
 219 200 197 222 197 250 c 0
 197 265 204 279 214 288 c 1
 208 285 201 283 193 283 c 0
 186 283 180 285 174 287 c 1
 184 278 190 265 190 250 c 0
 190 222 168 200 140 200 c 0
 112 200 90 222 90 250 c 0xee
 90 278 112 300 140 300 c 0
 147 300 153 298 159 296 c 1
 149 305 143 318 143 333 c 0
 143 351 152 366 166 375 c 1
 152 384 143 399 143 417 c 0
 143 434 152 449 165 458 c 1
 152 467 143 483 143 500 c 1
 143 517 152 533 165 542 c 1
 152 551 143 566 143 583 c 0
 143 601 152 616 166 625 c 1
 152 634 143 649 143 667 c 0xd6
 143 682 149 695 159 704 c 1
 153 702 147 700 140 700 c 0
 112 700 90 722 90 750 c 0
 90 778 112 800 140 800 c 0
 168 800 190 778 190 750 c 0
 190 735 184 722 174 713 c 1
 180 715 186 717 193 717 c 0
 201 717 208 715 214 712 c 1
 204 721 197 735 197 750 c 1
 197 778 219 800 247 800 c 0
 275 800 297 778 297 750 c 0xee
 297 722 275 700 247 700 c 0
 239 700 232 702 226 705 c 1
 236 696 243 682 243 667 c 1
 243 649 234 634 220 625 c 1
 234 616 243 601 243 583 c 0
 243 566 234 551 221 542 c 1
 234 533 243 517 243 500 c 0
 243 483 234 467 221 458 c 1
 234 449 243 434 243 417 c 1
 243 399 234 384 220 375 c 1
 234 366 243 351 243 333 c 0xd6
 243 318 236 304 226 295 c 1
 232 298 239 300 247 300 c 0
 275 300 297 278 297 250 c 0xce
510 333 m 1
 510 305 488 283 460 283 c 0
 432 283 410 305 410 333 c 0
 410 351 419 366 433 375 c 1
 419 384 410 399 410 417 c 1
 410 434 419 449 432 458 c 1
 419 467 410 483 410 500 c 0
 410 517 419 533 432 542 c 1
 419 551 410 566 410 583 c 0
 410 601 419 616 433 625 c 1
 419 634 410 649 410 667 c 0
 410 695 432 717 460 717 c 0
 488 717 510 695 510 667 c 0
 510 649 501 634 487 625 c 1
 501 616 510 601 510 583 c 0
 510 566 501 551 488 542 c 1
 501 533 510 517 510 500 c 0
 510 483 501 467 488 458 c 1
 501 449 510 434 510 417 c 0
 510 399 501 384 487 375 c 1
 501 366 510 351 510 333 c 1
403 750 m 0
 403 722 381 700 353 700 c 0
 325 700 303 722 303 750 c 0
 303 778 325 800 353 800 c 0
 381 800 403 778 403 750 c 0
EndSplineSet
EndChar

StartChar: Ccedilla
Encoding: 199 199 16
Width: 600
VWidth: 0
UnlinkRmOvrlpSave: 1
Flags: W
HStem: 200 21G<286 314> 200 21G<286 314> 283 100<171.328 234.562 365.438 428.672> 367 100<438.328 501.562> 617 100<441.281 501.562> 700 100<174.281 234.562 258.438 341.562 365.438 425.719>
VStem: 90 100<378.426 457.574 458.427 541.573 542.426 624.139 625.861 703.333> 143 100<291.438 371.574 713.667 791.562> 250 100<208.438 291.573 292.426 374.562 708.438 791.562> 357 100<291.438 371.574 713.667 791.562> 410 100<378.426 458.562 625.438 703.333>
LayerCount: 2
Back
Fore
SplineSet
350 250 m 0xa080
 350 222 328 200 300 200 c 0
 272 200 250 222 250 250 c 0
 250 267 259 283 272 292 c 1
 259 301 250 316 250 333 c 1
 250 361 272 383 300 383 c 0
 328 383 350 361 350 333 c 0
 350 316 341 301 328 292 c 1
 341 283 350 267 350 250 c 0xa080
457 333 m 0x10c0
 457 305 435 283 407 283 c 0
 379 283 357 305 357 333 c 0
 357 361 379 383 407 383 c 0x20c0
 415 383 422 381 429 378 c 1
 418 387 410 401 410 417 c 0
 410 445 432 467 460 467 c 0
 488 467 510 445 510 417 c 0x10a0
 510 389 488 367 460 367 c 0
 452 367 445 369 438 372 c 1
 449 363 457 349 457 333 c 0x10c0
243 333 m 0x2580
 243 305 221 283 193 283 c 0
 165 283 143 305 143 333 c 0x2580
 143 349 151 363 162 372 c 1
 155 369 148 367 140 367 c 0
 112 367 90 389 90 417 c 0
 90 434 99 449 112 458 c 1
 99 467 90 483 90 500 c 1
 90 517 99 533 112 542 c 1
 99 551 90 566 90 583 c 0
 90 601 99 616 113 625 c 1
 99 634 90 649 90 667 c 0
 90 695 112 717 140 717 c 0x1a80
 147 717 153 715 159 713 c 1
 149 722 143 735 143 750 c 0
 143 778 165 800 193 800 c 0
 221 800 243 778 243 750 c 0x0580
 243 722 221 700 193 700 c 0
 186 700 180 702 174 704 c 1
 184 695 190 682 190 667 c 0
 190 649 181 634 167 625 c 1
 181 616 190 601 190 583 c 0
 190 566 181 551 168 542 c 1
 181 533 190 517 190 500 c 0
 190 483 181 467 168 458 c 1
 181 449 190 434 190 417 c 1x0680
 190 401 182 387 171 378 c 1
 178 381 185 383 193 383 c 0
 221 383 243 361 243 333 c 0x2580
510 667 m 0x08a0
 510 639 488 617 460 617 c 0
 432 617 410 639 410 667 c 0x08a0
 410 682 416 695 426 704 c 1
 420 702 414 700 407 700 c 0
 379 700 357 722 357 750 c 0
 357 778 379 800 407 800 c 0
 435 800 457 778 457 750 c 0x04c0
 457 735 451 722 441 713 c 1
 447 715 453 717 460 717 c 0
 488 717 510 695 510 667 c 0x08a0
350 750 m 0
 350 722 328 700 300 700 c 0
 272 700 250 722 250 750 c 0
 250 778 272 800 300 800 c 0x0480
 328 800 350 778 350 750 c 0
EndSplineSet
EndChar

StartChar: H
Encoding: 72 72 17
Width: 600
VWidth: 0
UnlinkRmOvrlpSave: 1
Flags: W
HStem: 200 21G<126 154 446 474> 200 21G<126 154 446 474> 450 100<205.438 288.562 311.438 394.562> 780 20G<126 154 446 474>
VStem: 90 100<208.438 291.573 292.426 374.139 375.861 457.574 458.427 541.573 542.426 624.139 625.861 707.574 708.427 791.562> 197 100<458.438 541.562> 303 100<458.438 541.562> 410 100<208.438 291.573 292.426 374.139 375.861 457.574 458.427 541.573 542.426 624.139 625.861 707.574 708.427 791.562>
LayerCount: 2
Back
Fore
SplineSet
510 250 m 0xbf
 510 222 488 200 460 200 c 0
 432 200 410 222 410 250 c 0
 410 267 419 283 432 292 c 1
 419 301 410 316 410 333 c 0
 410 351 419 366 433 375 c 1
 419 384 410 399 410 417 c 1
 410 434 419 449 432 458 c 1
 419 467 410 483 410 500 c 0
 410 517 419 533 432 542 c 1
 419 551 410 566 410 583 c 0
 410 601 419 616 433 625 c 1
 419 634 410 649 410 667 c 0
 410 684 419 699 432 708 c 1
 419 717 410 733 410 750 c 0
 410 778 432 800 460 800 c 0
 488 800 510 778 510 750 c 0
 510 733 501 717 488 708 c 1
 501 699 510 684 510 667 c 0
 510 649 501 634 487 625 c 1
 501 616 510 601 510 583 c 0
 510 566 501 551 488 542 c 1
 501 533 510 517 510 500 c 0
 510 483 501 467 488 458 c 1
 501 449 510 434 510 417 c 0
 510 399 501 384 487 375 c 1
 501 366 510 351 510 333 c 1
 510 316 501 301 488 292 c 1
 501 283 510 267 510 250 c 0xbf
190 250 m 1
 190 222 168 200 140 200 c 0
 112 200 90 222 90 250 c 0
 90 267 99 283 112 292 c 1
 99 301 90 316 90 333 c 1
 90 351 99 366 113 375 c 1
 99 384 90 399 90 417 c 0
 90 434 99 449 112 458 c 1
 99 467 90 483 90 500 c 1
 90 517 99 533 112 542 c 1
 99 551 90 566 90 583 c 0
 90 601 99 616 113 625 c 1
 99 634 90 649 90 667 c 0
 90 684 99 699 112 708 c 1
 99 717 90 733 90 750 c 0
 90 778 112 800 140 800 c 0
 168 800 190 778 190 750 c 0
 190 733 181 717 168 708 c 1
 181 699 190 684 190 667 c 0
 190 649 181 634 167 625 c 1
 181 616 190 601 190 583 c 0
 190 566 181 551 168 542 c 1
 181 533 190 517 190 500 c 0
 190 483 181 467 168 458 c 1
 181 449 190 434 190 417 c 1
 190 399 181 384 167 375 c 1
 181 366 190 351 190 333 c 0
 190 316 181 301 168 292 c 1
 181 283 190 267 190 250 c 1
403 500 m 0
 403 472 381 450 353 450 c 0
 325 450 303 472 303 500 c 0
 303 528 325 550 353 550 c 0
 381 550 403 528 403 500 c 0
297 500 m 0
 297 472 275 450 247 450 c 0
 219 450 197 472 197 500 c 0
 197 528 219 550 247 550 c 0
 275 550 297 528 297 500 c 0
EndSplineSet
EndChar

StartChar: Edieresis
Encoding: 203 203 18
Width: 600
VWidth: 0
UnlinkRmOvrlpSave: 1
Flags: W
HStem: 200 100<205.438 288.562 311.438 394.562 418.438 501.562> 367 100<205.438 288.562 311.438 394.562> 533 100<205.438 288.562 311.438 394.562 418.438 501.562> 700 100<151.438 234.562 365.438 448.562>
VStem: 90 100<208.438 291.573 292.426 374.139 375.861 457.574 458.427 541.573 542.426 624.562> 143 100<708.438 791.562> 197 100<208.438 291.562 375.438 458.562 541.438 624.562> 303 100<208.438 291.562 375.438 458.562 541.438 624.562> 357 100<708.438 791.562> 410 100<208.438 291.562 541.438 624.562>
LayerCount: 2
Back
Fore
SplineSet
510 250 m 0xf040
 510 222 488 200 460 200 c 0
 432 200 410 222 410 250 c 0
 410 278 432 300 460 300 c 0
 488 300 510 278 510 250 c 0xf040
403 250 m 0xf1
 403 222 381 200 353 200 c 0
 325 200 303 222 303 250 c 0
 303 278 325 300 353 300 c 0
 381 300 403 278 403 250 c 0xf1
297 250 m 0xf2
 297 222 275 200 247 200 c 0
 219 200 197 222 197 250 c 0
 197 278 219 300 247 300 c 0
 275 300 297 278 297 250 c 0xf2
190 250 m 1xf8
 190 222 168 200 140 200 c 0
 112 200 90 222 90 250 c 0
 90 267 99 283 112 292 c 1
 99 301 90 316 90 333 c 1
 90 351 99 366 113 375 c 1
 99 384 90 399 90 417 c 0
 90 434 99 449 112 458 c 1
 99 467 90 483 90 500 c 1
 90 517 99 533 112 542 c 1
 99 551 90 566 90 583 c 0
 90 611 112 633 140 633 c 0
 168 633 190 611 190 583 c 0
 190 566 181 551 168 542 c 1
 181 533 190 517 190 500 c 0
 190 483 181 467 168 458 c 1
 181 449 190 434 190 417 c 1
 190 399 181 384 167 375 c 1
 181 366 190 351 190 333 c 0
 190 316 181 301 168 292 c 1
 181 283 190 267 190 250 c 1xf8
403 417 m 0xf1
 403 389 381 367 353 367 c 0
 325 367 303 389 303 417 c 0
 303 445 325 467 353 467 c 0
 381 467 403 445 403 417 c 0xf1
297 417 m 0xf2
 297 389 275 367 247 367 c 0
 219 367 197 389 197 417 c 0
 197 445 219 467 247 467 c 0
 275 467 297 445 297 417 c 0xf2
510 583 m 0xf040
 510 555 488 533 460 533 c 0
 432 533 410 555 410 583 c 0
 410 611 432 633 460 633 c 0
 488 633 510 611 510 583 c 0xf040
403 583 m 0xf1
 403 555 381 533 353 533 c 0
 325 533 303 555 303 583 c 0
 303 611 325 633 353 633 c 0
 381 633 403 611 403 583 c 0xf1
297 583 m 0xf2
 297 555 275 533 247 533 c 0
 219 533 197 555 197 583 c 0
 197 611 219 633 247 633 c 0
 275 633 297 611 297 583 c 0xf2
457 750 m 0xf080
 457 722 435 700 407 700 c 0
 379 700 357 722 357 750 c 0
 357 778 379 800 407 800 c 0
 435 800 457 778 457 750 c 0xf080
243 750 m 0xf4
 243 722 221 700 193 700 c 0
 165 700 143 722 143 750 c 0
 143 778 165 800 193 800 c 0
 221 800 243 778 243 750 c 0xf4
EndSplineSet
EndChar

StartChar: L
Encoding: 76 76 19
Width: 600
VWidth: 0
UnlinkRmOvrlpSave: 1
Flags: W
HStem: 200 100<205.438 288.562 311.438 394.562 418.438 501.562> 780 20G<126 154>
VStem: 90 100<208.438 291.573 292.426 374.139 375.861 457.574 458.427 541.573 542.426 624.139 625.861 707.574 708.427 791.562> 197 100<208.438 291.562> 303 100<208.438 291.562> 410 100<208.438 291.562>
LayerCount: 2
Back
Fore
SplineSet
510 250 m 0
 510 222 488 200 460 200 c 0
 432 200 410 222 410 250 c 0
 410 278 432 300 460 300 c 0
 488 300 510 278 510 250 c 0
403 250 m 0
 403 222 381 200 353 200 c 0
 325 200 303 222 303 250 c 0
 303 278 325 300 353 300 c 0
 381 300 403 278 403 250 c 0
297 250 m 0
 297 222 275 200 247 200 c 0
 219 200 197 222 197 250 c 0
 197 278 219 300 247 300 c 0
 275 300 297 278 297 250 c 0
190 250 m 1
 190 222 168 200 140 200 c 0
 112 200 90 222 90 250 c 0
 90 267 99 283 112 292 c 1
 99 301 90 316 90 333 c 1
 90 351 99 366 113 375 c 1
 99 384 90 399 90 417 c 0
 90 434 99 449 112 458 c 1
 99 467 90 483 90 500 c 1
 90 517 99 533 112 542 c 1
 99 551 90 566 90 583 c 0
 90 601 99 616 113 625 c 1
 99 634 90 649 90 667 c 0
 90 684 99 699 112 708 c 1
 99 717 90 733 90 750 c 0
 90 778 112 800 140 800 c 0
 168 800 190 778 190 750 c 0
 190 733 181 717 168 708 c 1
 181 699 190 684 190 667 c 0
 190 649 181 634 167 625 c 1
 181 616 190 601 190 583 c 0
 190 566 181 551 168 542 c 1
 181 533 190 517 190 500 c 0
 190 483 181 467 168 458 c 1
 181 449 190 434 190 417 c 1
 190 399 181 384 167 375 c 1
 181 366 190 351 190 333 c 0
 190 316 181 301 168 292 c 1
 181 283 190 267 190 250 c 1
EndSplineSet
EndChar

StartChar: P
Encoding: 80 80 20
Width: 600
VWidth: 0
UnlinkRmOvrlpSave: 1
Flags: W
HStem: 200 21G<126 154> 200 21G<126 154> 450 100<205.438 288.562 311.438 394.562> 700 100<205.438 288.562 311.438 394.562>
VStem: 90 100<208.438 291.573 292.426 374.139 375.861 457.574 458.427 541.573 542.426 624.139 625.861 707.574 708.427 791.562> 197 100<458.438 541.562 708.438 791.562> 303 100<458.438 541.562 708.438 791.562> 410 100<541.438 624.139 625.861 708.562>
LayerCount: 2
Back
Fore
SplineSet
190 250 m 1xbf
 190 222 168 200 140 200 c 0
 112 200 90 222 90 250 c 0
 90 267 99 283 112 292 c 1
 99 301 90 316 90 333 c 1
 90 351 99 366 113 375 c 1
 99 384 90 399 90 417 c 0
 90 434 99 449 112 458 c 1
 99 467 90 483 90 500 c 1
 90 517 99 533 112 542 c 1
 99 551 90 566 90 583 c 0
 90 601 99 616 113 625 c 1
 99 634 90 649 90 667 c 0
 90 684 99 699 112 708 c 1
 99 717 90 733 90 750 c 0
 90 778 112 800 140 800 c 0
 168 800 190 778 190 750 c 0
 190 733 181 717 168 708 c 1
 181 699 190 684 190 667 c 0
 190 649 181 634 167 625 c 1
 181 616 190 601 190 583 c 0
 190 566 181 551 168 542 c 1
 181 533 190 517 190 500 c 0
 190 483 181 467 168 458 c 1
 181 449 190 434 190 417 c 1
 190 399 181 384 167 375 c 1
 181 366 190 351 190 333 c 0
 190 316 181 301 168 292 c 1
 181 283 190 267 190 250 c 1xbf
403 500 m 0
 403 472 381 450 353 450 c 0
 325 450 303 472 303 500 c 0
 303 528 325 550 353 550 c 0
 381 550 403 528 403 500 c 0
297 500 m 0
 297 472 275 450 247 450 c 0
 219 450 197 472 197 500 c 0
 197 528 219 550 247 550 c 0
 275 550 297 528 297 500 c 0
510 583 m 0
 510 555 488 533 460 533 c 0
 432 533 410 555 410 583 c 0
 410 601 419 616 433 625 c 1
 419 634 410 649 410 667 c 0
 410 695 432 717 460 717 c 0
 488 717 510 695 510 667 c 0
 510 649 501 634 487 625 c 1
 501 616 510 601 510 583 c 0
403 750 m 0
 403 722 381 700 353 700 c 0
 325 700 303 722 303 750 c 0
 303 778 325 800 353 800 c 0
 381 800 403 778 403 750 c 0
297 750 m 0
 297 722 275 700 247 700 c 0
 219 700 197 722 197 750 c 0
 197 778 219 800 247 800 c 0
 275 800 297 778 297 750 c 0
EndSplineSet
EndChar

StartChar: T
Encoding: 84 84 21
Width: 600
VWidth: 0
UnlinkRmOvrlpSave: 1
Flags: W
HStem: 200 21G<286 314> 200 21G<286 314> 700 100<98.4375 181.562 205.438 265.719 334.281 394.562 418.438 501.562>
VStem: 90 100<708.438 791.562> 197 100<713.667 791.562> 250 100<208.438 291.573 292.426 374.139 375.861 457.574 458.427 541.573 542.426 624.139 625.861 703.575> 303 100<713.667 791.562> 410 100<708.438 791.562>
LayerCount: 2
Back
Fore
SplineSet
350 250 m 0xb5
 350 222 328 200 300 200 c 0
 272 200 250 222 250 250 c 0
 250 267 259 283 272 292 c 1
 259 301 250 316 250 333 c 1
 250 351 259 366 273 375 c 1
 259 384 250 399 250 417 c 0
 250 434 259 449 272 458 c 1
 259 467 250 483 250 500 c 1
 250 517 259 533 272 542 c 1
 259 551 250 566 250 583 c 0
 250 601 259 616 273 625 c 1
 259 634 250 649 250 667 c 0xb5
 250 682 256 695 266 704 c 1
 260 702 254 700 247 700 c 0
 219 700 197 722 197 750 c 0
 197 778 219 800 247 800 c 0
 275 800 297 778 297 750 c 0
 297 735 291 722 281 713 c 1
 287 715 293 717 300 717 c 0
 307 717 313 715 319 713 c 1
 309 722 303 735 303 750 c 1
 303 778 325 800 353 800 c 0
 381 800 403 778 403 750 c 0xbb
 403 722 381 700 353 700 c 0
 346 700 340 702 334 704 c 1
 344 695 350 682 350 667 c 1
 350 649 341 634 327 625 c 1
 341 616 350 601 350 583 c 0
 350 566 341 551 328 542 c 1
 341 533 350 517 350 500 c 0
 350 483 341 467 328 458 c 1
 341 449 350 434 350 417 c 0
 350 399 341 384 327 375 c 1
 341 366 350 351 350 333 c 1
 350 316 341 301 328 292 c 1
 341 283 350 267 350 250 c 0xb5
510 750 m 0
 510 722 488 700 460 700 c 0
 432 700 410 722 410 750 c 0
 410 778 432 800 460 800 c 0
 488 800 510 778 510 750 c 0
190 750 m 0
 190 722 168 700 140 700 c 0
 112 700 90 722 90 750 c 0
 90 778 112 800 140 800 c 0
 168 800 190 778 190 750 c 0
EndSplineSet
EndChar

StartChar: multiply
Encoding: 215 215 22
Width: 600
VWidth: 0
UnlinkRmOvrlpSave: 1
Flags: W
HStem: 283 100<98.4375 164.67 329.33 395.562> 367 100<169.33 212.719 281.281 324.67> 450 100<228 266> 533 100<169.33 212.719 281.281 324.67> 617 100<98.4375 164.67 329.33 395.562>
VStem: 90 100<291.438 373.574 626.426 708.562> 144 100<376.426 453.333 546.667 623.574> 197 100<463.425 536.575> 250 100<376.426 453.333 546.667 623.574> 304 100<291.438 373.574 626.426 708.562>
LayerCount: 2
Back
Fore
SplineSet
404 333 m 0x8040
 404 305 382 283 354 283 c 0x8040
 326 283 304 305 304 333 c 0
 304 350 312 365 325 374 c 1
 318 370 309 367 300 367 c 0x4040
 272 367 250 389 250 417 c 0
 250 432 256 445 266 454 c 1
 260 452 254 450 247 450 c 0x2080
 240 450 234 452 228 454 c 1
 238 445 244 432 244 417 c 0
 244 389 222 367 194 367 c 0x4280
 185 367 176 370 169 374 c 1
 182 365 190 350 190 333 c 0
 190 305 168 283 140 283 c 0
 112 283 90 305 90 333 c 0x84
 90 361 112 383 140 383 c 0
 149 383 158 380 165 376 c 1
 152 385 144 400 144 417 c 0x82
 144 445 166 467 194 467 c 0
 201 467 207 465 213 463 c 1
 203 472 197 485 197 500 c 0x41
 197 515 203 528 213 537 c 1
 207 535 201 533 194 533 c 0
 166 533 144 555 144 583 c 0x52
 144 600 152 615 165 624 c 1
 158 620 149 617 140 617 c 0
 112 617 90 639 90 667 c 0
 90 695 112 717 140 717 c 0x0c
 168 717 190 695 190 667 c 0
 190 650 182 635 169 626 c 1
 176 630 185 633 194 633 c 0x14
 222 633 244 611 244 583 c 0
 244 568 238 555 228 546 c 1
 234 548 240 550 247 550 c 0x22
 254 550 260 548 266 546 c 1
 256 555 250 568 250 583 c 1
 250 611 272 633 300 633 c 0x1280
 309 633 318 630 325 626 c 1
 312 635 304 650 304 667 c 1
 304 695 326 717 354 717 c 0
 382 717 404 695 404 667 c 0x0840
 404 639 382 617 354 617 c 0
 345 617 336 620 329 624 c 1
 342 615 350 600 350 583 c 1x0880
 350 555 328 533 300 533 c 0
 293 533 287 535 281 537 c 1
 291 528 297 515 297 500 c 1x11
 297 485 291 472 281 463 c 1
 287 465 293 467 300 467 c 0
 328 467 350 445 350 417 c 0x5080
 350 400 342 385 329 376 c 1
 336 380 345 383 354 383 c 0
 382 383 404 361 404 333 c 0x8040
EndSplineSet
EndChar

StartChar: X
Encoding: 88 88 23
Width: 600
VWidth: 0
UnlinkRmOvrlpSave: 1
Flags: W
HStem: 200 100<98.4375 158.719 441.281 501.562> 283 100<174.281 217.67 382.33 425.719> 367 100<222.33 265.719 334.281 377.67> 450 100<281 319> 533 100<222.33 265.719 334.281 377.67> 617 100<174.281 217.67 382.33 425.719> 700 100<98.4375 158.719 441.281 501.562>
VStem: 90 100<208.438 286.333 713.667 791.562> 143 100<296.667 373.574 626.426 703.333> 197 100<376.426 453.333 546.667 623.574> 250 100<463.425 536.575> 303 100<376.426 453.333 546.667 623.574> 357 100<296.667 373.574 626.426 703.333> 410 100<208.438 286.333 713.667 791.562>
LayerCount: 2
Back
Fore
SplineSet
510 250 m 0x8004
 510 222 488 200 460 200 c 0x8004
 432 200 410 222 410 250 c 0
 410 265 416 278 426 287 c 1
 420 285 414 283 407 283 c 0x4004
 379 283 357 305 357 333 c 0
 357 350 365 365 378 374 c 1
 371 370 362 367 353 367 c 0x2008
 325 367 303 389 303 417 c 0
 303 432 309 445 319 454 c 1
 313 452 307 450 300 450 c 0x1010
 293 450 287 452 281 454 c 1
 291 445 297 432 297 417 c 0
 297 389 275 367 247 367 c 0x2050
 238 367 229 370 222 374 c 1
 235 365 243 350 243 333 c 0
 243 305 221 283 193 283 c 0x4080
 186 283 180 285 174 287 c 1
 184 278 190 265 190 250 c 0
 190 222 168 200 140 200 c 0
 112 200 90 222 90 250 c 0x81
 90 278 112 300 140 300 c 0
 147 300 153 298 159 296 c 1
 149 305 143 318 143 333 c 0x8080
 143 361 165 383 193 383 c 0
 202 383 211 380 218 376 c 1
 205 385 197 400 197 417 c 0x4040
 197 445 219 467 247 467 c 0
 254 467 260 465 266 463 c 1
 256 472 250 485 250 500 c 0x2020
 250 515 256 528 266 537 c 1
 260 535 254 533 247 533 c 0
 219 533 197 555 197 583 c 0x2840
 197 600 205 615 218 624 c 1
 211 620 202 617 193 617 c 0
 165 617 143 639 143 667 c 0x0480
 143 682 149 695 159 704 c 1
 153 702 147 700 140 700 c 0
 112 700 90 722 90 750 c 0
 90 778 112 800 140 800 c 0x03
 168 800 190 778 190 750 c 0
 190 735 184 722 174 713 c 1
 180 715 186 717 193 717 c 0x05
 221 717 243 695 243 667 c 0
 243 650 235 635 222 626 c 1
 229 630 238 633 247 633 c 0x0880
 275 633 297 611 297 583 c 0
 297 568 291 555 281 546 c 1
 287 548 293 550 300 550 c 0x1040
 307 550 313 548 319 546 c 1
 309 555 303 568 303 583 c 1
 303 611 325 633 353 633 c 0x0850
 362 633 371 630 378 626 c 1
 365 635 357 650 357 667 c 1
 357 695 379 717 407 717 c 0x0408
 414 717 420 715 426 713 c 1
 416 722 410 735 410 750 c 1
 410 778 432 800 460 800 c 0
 488 800 510 778 510 750 c 0x0204
 510 722 488 700 460 700 c 0
 453 700 447 702 441 704 c 1
 451 695 457 682 457 667 c 1x0208
 457 639 435 617 407 617 c 0
 398 617 389 620 382 624 c 1
 395 615 403 600 403 583 c 1x0410
 403 555 381 533 353 533 c 0
 346 533 340 535 334 537 c 1
 344 528 350 515 350 500 c 1x0820
 350 485 344 472 334 463 c 1
 340 465 346 467 353 467 c 0
 381 467 403 445 403 417 c 0x2810
 403 400 395 385 382 376 c 1
 389 380 398 383 407 383 c 0
 435 383 457 361 457 333 c 0x4008
 457 318 451 305 441 296 c 1
 447 298 453 300 460 300 c 0
 488 300 510 278 510 250 c 0x8004
EndSplineSet
EndChar

StartChar: backslash
Encoding: 92 92 24
Width: 600
VWidth: 0
UnlinkRmOvrlpSave: 1
Flags: W
HStem: 200 100<441.281 501.562> 283 100<382.33 425.719> 367 100<334.281 377.67> 533 100<222.33 265.719> 617 100<174.281 217.67> 700 100<98.4375 158.719>
VStem: 90 100<713.667 791.562> 143 100<626.426 703.333> 197 100<546.667 623.574> 250 100<463.667 536.333> 303 100<376.426 453.333> 357 100<296.667 373.574> 410 100<208.438 286.333>
LayerCount: 2
Back
Fore
SplineSet
510 250 m 0x8008
 510 222 488 200 460 200 c 0
 432 200 410 222 410 250 c 0x8008
 410 265 416 278 426 287 c 1
 420 285 414 283 407 283 c 0
 379 283 357 305 357 333 c 0x4010
 357 350 365 365 378 374 c 1
 371 370 362 367 353 367 c 0
 325 367 303 389 303 417 c 0x2020
 303 432 309 445 319 454 c 1
 313 452 307 450 300 450 c 0
 272 450 250 472 250 500 c 0x2040
 250 515 256 528 266 537 c 1
 260 535 254 533 247 533 c 0
 219 533 197 555 197 583 c 0x3080
 197 600 205 615 218 624 c 1
 211 620 202 617 193 617 c 0
 165 617 143 639 143 667 c 0x09
 143 682 149 695 159 704 c 1
 153 702 147 700 140 700 c 0
 112 700 90 722 90 750 c 0
 90 778 112 800 140 800 c 0
 168 800 190 778 190 750 c 0x06
 190 735 184 722 174 713 c 1
 180 715 186 717 193 717 c 0
 221 717 243 695 243 667 c 0x09
 243 650 235 635 222 626 c 1
 229 630 238 633 247 633 c 0
 275 633 297 611 297 583 c 0x1080
 297 568 291 555 281 546 c 1
 287 548 293 550 300 550 c 0
 328 550 350 528 350 500 c 0x1040
 350 485 344 472 334 463 c 1
 340 465 346 467 353 467 c 0
 381 467 403 445 403 417 c 0x3020
 403 400 395 385 382 376 c 1
 389 380 398 383 407 383 c 0
 435 383 457 361 457 333 c 0x4010
 457 318 451 305 441 296 c 1
 447 298 453 300 460 300 c 0
 488 300 510 278 510 250 c 0x8008
EndSplineSet
EndChar

StartChar: germandbls
Encoding: 223 223 25
Width: 600
VWidth: 0
UnlinkRmOvrlpSave: 1
Flags: W
HStem: 200 100<258.438 341.562 365.438 425.719> 450 100<205.438 265.719 334.281 394.562> 533 100<281 322> 617 100<334.285 394.562> 700 100<174.281 234.562 258.438 318.719>
VStem: 90 100<208.438 291.573 292.426 374.139 375.861 457.574 458.427 541.573 542.426 624.139 625.861 703.333> 143 100<713.667 791.562> 197 100<458.438 536.333> 250 100<208.438 291.562 546.425 621.574 713.667 791.562> 303 100<458.438 536.333 628.426 703.333> 357 100<208.438 286.333> 410 100<296.667 374.139 375.861 458.562>
LayerCount: 2
Back
Fore
SplineSet
457 250 m 1x8020
 457 222 435 200 407 200 c 0
 379 200 357 222 357 250 c 0x8020
 357 278 379 300 407 300 c 0
 414 300 420 298 426 296 c 1
 416 305 410 318 410 333 c 1
 410 351 419 366 433 375 c 1
 419 384 410 399 410 417 c 1
 410 445 432 467 460 467 c 0
 488 467 510 445 510 417 c 0
 510 399 501 384 487 375 c 1
 501 366 510 351 510 333 c 1x8010
 510 305 488 283 460 283 c 0
 453 283 447 285 441 287 c 1
 451 278 457 265 457 250 c 1x8020
350 250 m 0x8080
 350 222 328 200 300 200 c 0
 272 200 250 222 250 250 c 0
 250 278 272 300 300 300 c 0
 328 300 350 278 350 250 c 0x8080
190 250 m 1x8c
 190 222 168 200 140 200 c 0
 112 200 90 222 90 250 c 0
 90 267 99 283 112 292 c 1
 99 301 90 316 90 333 c 1
 90 351 99 366 113 375 c 1
 99 384 90 399 90 417 c 0
 90 434 99 449 112 458 c 1
 99 467 90 483 90 500 c 1
 90 517 99 533 112 542 c 1
 99 551 90 566 90 583 c 0
 90 601 99 616 113 625 c 1
 99 634 90 649 90 667 c 0
 90 695 112 717 140 717 c 0x94
 147 717 153 715 159 713 c 1
 149 722 143 735 143 750 c 0
 143 778 165 800 193 800 c 0
 221 800 243 778 243 750 c 0x8a
 243 722 221 700 193 700 c 0
 186 700 180 702 174 704 c 1
 184 695 190 682 190 667 c 0
 190 649 181 634 167 625 c 1
 181 616 190 601 190 583 c 0
 190 566 181 551 168 542 c 1
 181 533 190 517 190 500 c 0
 190 483 181 467 168 458 c 1
 181 449 190 434 190 417 c 1
 190 399 181 384 167 375 c 1
 181 366 190 351 190 333 c 0
 190 316 181 301 168 292 c 1
 181 283 190 267 190 250 c 1x8c
403 500 m 0xd040
 403 472 381 450 353 450 c 0xd040
 325 450 303 472 303 500 c 0
 303 515 309 528 319 537 c 1
 313 535 307 533 300 533 c 0xa040
 293 533 287 535 281 537 c 1
 291 528 297 515 297 500 c 0
 297 472 275 450 247 450 c 0
 219 450 197 472 197 500 c 0xc140
 197 528 219 550 247 550 c 0
 254 550 260 548 266 546 c 1
 256 555 250 568 250 583 c 0xc080
 250 611 272 633 300 633 c 0
 308 633 315 631 322 628 c 1
 311 637 303 651 303 667 c 1xa040
 303 682 309 695 319 704 c 1
 313 702 307 700 300 700 c 0
 272 700 250 722 250 750 c 0
 250 778 272 800 300 800 c 0
 328 800 350 778 350 750 c 0xa880
 350 735 344 722 334 713 c 1
 340 715 346 717 353 717 c 0
 381 717 403 695 403 667 c 0x9040
 403 639 381 617 353 617 c 0
 345 617 338 619 331 622 c 1
 342 613 350 599 350 583 c 1x9080
 350 568 344 555 334 546 c 1
 340 548 346 550 353 550 c 0
 381 550 403 528 403 500 c 0xd040
EndSplineSet
EndChar

StartChar: grave
Encoding: 96 96 26
Width: 600
VWidth: 0
UnlinkRmOvrlpSave: 1
Flags: W
HStem: 533 100<224.328 287.562> 617 100<174 215> 700 100<98.4375 158.719>
VStem: 90 100<713.667 791.562> 143 100<628.426 703.333> 196 100<541.438 621.574>
LayerCount: 2
Back
Fore
SplineSet
296 583 m 0x84
 296 555 274 533 246 533 c 0
 218 533 196 555 196 583 c 0x84
 196 599 204 613 215 622 c 1
 208 619 201 617 193 617 c 0
 165 617 143 639 143 667 c 0x48
 143 682 149 695 159 704 c 1
 153 702 147 700 140 700 c 0
 112 700 90 722 90 750 c 0
 90 778 112 800 140 800 c 0
 168 800 190 778 190 750 c 0x30
 190 735 184 722 174 713 c 1
 180 715 186 717 193 717 c 0
 221 717 243 695 243 667 c 0x48
 243 651 235 637 224 628 c 1
 231 631 238 633 246 633 c 0
 274 633 296 611 296 583 c 0x84
EndSplineSet
EndChar

StartChar: d
Encoding: 100 100 27
Width: 600
VWidth: 0
UnlinkRmOvrlpSave: 1
Flags: W
HStem: 200 100<205.438 288.562 311.438 394.562> 533 100<174.281 234.562 258.438 341.562 365.438 425.715> 780 20G<446 474>
VStem: 90 100<291.438 374.139 375.861 457.574 458.427 536.333> 143 100<546.667 624.562> 197 100<208.438 291.562> 250 100<541.438 624.562> 303 100<208.438 291.562> 357 100<546.667 621.574> 410 100<208.438 291.573 292.426 374.139 375.861 457.574 458.427 536.333 628.426 707.574 708.427 791.562>
LayerCount: 2
Back
Fore
SplineSet
510 250 m 0xe040
 510 222 488 200 460 200 c 0
 432 200 410 222 410 250 c 0
 410 267 419 283 432 292 c 1
 419 301 410 316 410 333 c 0
 410 351 419 366 433 375 c 1
 419 384 410 399 410 417 c 1
 410 434 419 449 432 458 c 1
 419 467 410 483 410 500 c 0xe040
 410 515 416 528 426 537 c 1
 420 535 414 533 407 533 c 0
 379 533 357 555 357 583 c 0xe080
 357 611 379 633 407 633 c 0
 415 633 422 631 429 628 c 1
 418 637 410 651 410 667 c 1
 410 684 419 699 432 708 c 1
 419 717 410 733 410 750 c 0
 410 778 432 800 460 800 c 0
 488 800 510 778 510 750 c 0
 510 733 501 717 488 708 c 1
 501 699 510 684 510 667 c 0xe040
 510 639 488 617 460 617 c 0
 452 617 445 619 438 622 c 1
 449 613 457 599 457 583 c 1xe080
 457 568 451 555 441 546 c 1
 447 548 453 550 460 550 c 0
 488 550 510 528 510 500 c 0
 510 483 501 467 488 458 c 1
 501 449 510 434 510 417 c 0
 510 399 501 384 487 375 c 1
 501 366 510 351 510 333 c 1
 510 316 501 301 488 292 c 1
 501 283 510 267 510 250 c 0xe040
403 250 m 0xe1
 403 222 381 200 353 200 c 0
 325 200 303 222 303 250 c 0
 303 278 325 300 353 300 c 0
 381 300 403 278 403 250 c 0xe1
297 250 m 0xe4
 297 222 275 200 247 200 c 0
 219 200 197 222 197 250 c 0
 197 278 219 300 247 300 c 0
 275 300 297 278 297 250 c 0xe4
190 333 m 0xf0
 190 305 168 283 140 283 c 0
 112 283 90 305 90 333 c 0
 90 351 99 366 113 375 c 1
 99 384 90 399 90 417 c 0
 90 434 99 449 112 458 c 1
 99 467 90 483 90 500 c 1xf0
 90 528 112 550 140 550 c 0
 147 550 153 548 159 546 c 1
 149 555 143 568 143 583 c 0
 143 611 165 633 193 633 c 0
 221 633 243 611 243 583 c 0xe8
 243 555 221 533 193 533 c 0
 186 533 180 535 174 537 c 1
 184 528 190 515 190 500 c 0
 190 483 181 467 168 458 c 1
 181 449 190 434 190 417 c 1
 190 399 181 384 167 375 c 1
 181 366 190 351 190 333 c 0xf0
350 583 m 0xe2
 350 555 328 533 300 533 c 0
 272 533 250 555 250 583 c 0
 250 611 272 633 300 633 c 0
 328 633 350 611 350 583 c 0xe2
EndSplineSet
EndChar

StartChar: ccedilla
Encoding: 231 231 28
Width: 600
VWidth: 0
UnlinkRmOvrlpSave: 1
Flags: W
HStem: 200 21G<286 314> 200 21G<286 314> 283 100<171.328 234.562 365.438 448.562> 533 100<438.328 501.562> 617 100<171.328 234.562 258.438 341.562 365.438 428.672>
VStem: 90 100<378.426 457.574 458.427 541.573 542.426 621.574> 143 100<291.438 371.574 628.426 708.562> 250 100<208.438 291.573 292.426 374.562 625.438 708.562> 357 100<291.438 374.562 628.426 708.562> 410 100<541.438 621.574>
LayerCount: 2
Back
Fore
SplineSet
350 250 m 0xa1
 350 222 328 200 300 200 c 0
 272 200 250 222 250 250 c 0
 250 267 259 283 272 292 c 1
 259 301 250 316 250 333 c 1
 250 361 272 383 300 383 c 0
 328 383 350 361 350 333 c 0
 350 316 341 301 328 292 c 1
 341 283 350 267 350 250 c 0xa1
457 333 m 0x2180
 457 305 435 283 407 283 c 0
 379 283 357 305 357 333 c 0
 357 361 379 383 407 383 c 0
 435 383 457 361 457 333 c 0x2180
243 333 m 0x2b
 243 305 221 283 193 283 c 0
 165 283 143 305 143 333 c 0x2b
 143 349 151 363 162 372 c 1
 155 369 148 367 140 367 c 0
 112 367 90 389 90 417 c 0
 90 434 99 449 112 458 c 1
 99 467 90 483 90 500 c 1
 90 517 99 533 112 542 c 1
 99 551 90 566 90 583 c 0
 90 611 112 633 140 633 c 0x35
 148 633 155 631 162 628 c 1
 151 637 143 651 143 667 c 1
 143 695 165 717 193 717 c 0
 221 717 243 695 243 667 c 0x2b
 243 639 221 617 193 617 c 0
 185 617 178 619 171 622 c 1
 182 613 190 599 190 583 c 1
 190 566 181 551 168 542 c 1
 181 533 190 517 190 500 c 0
 190 483 181 467 168 458 c 1
 181 449 190 434 190 417 c 1x2d
 190 401 182 387 171 378 c 1
 178 381 185 383 193 383 c 0
 221 383 243 361 243 333 c 0x2b
510 583 m 0x3140
 510 555 488 533 460 533 c 0
 432 533 410 555 410 583 c 0x3140
 410 599 418 613 429 622 c 1
 422 619 415 617 407 617 c 0
 379 617 357 639 357 667 c 0
 357 695 379 717 407 717 c 0
 435 717 457 695 457 667 c 0x2980
 457 651 449 637 438 628 c 1
 445 631 452 633 460 633 c 0
 488 633 510 611 510 583 c 0x3140
350 667 m 0
 350 639 328 617 300 617 c 0
 272 617 250 639 250 667 c 0
 250 695 272 717 300 717 c 0x29
 328 717 350 695 350 667 c 0
EndSplineSet
EndChar

StartChar: h
Encoding: 104 104 29
Width: 600
VWidth: 0
UnlinkRmOvrlpSave: 1
Flags: W
HStem: 200 21G<126 154 446 474> 200 21G<126 154 446 474> 533 100<174.285 234.562 258.438 341.562 365.438 425.719> 780 20G<126 154>
VStem: 90 100<208.438 291.573 292.426 374.139 375.861 457.574 458.427 536.333 628.426 707.574 708.427 791.562> 143 100<546.667 621.574> 250 100<541.438 624.562> 357 100<546.667 624.562> 410 100<208.438 291.573 292.426 374.139 375.861 457.574 458.427 536.333>
LayerCount: 2
Back
Fore
SplineSet
510 250 m 0xb280
 510 222 488 200 460 200 c 0
 432 200 410 222 410 250 c 0
 410 267 419 283 432 292 c 1
 419 301 410 316 410 333 c 0
 410 351 419 366 433 375 c 1
 419 384 410 399 410 417 c 1
 410 434 419 449 432 458 c 1
 419 467 410 483 410 500 c 0xb280
 410 515 416 528 426 537 c 1
 420 535 414 533 407 533 c 0
 379 533 357 555 357 583 c 0
 357 611 379 633 407 633 c 0
 435 633 457 611 457 583 c 0xb3
 457 568 451 555 441 546 c 1
 447 548 453 550 460 550 c 0
 488 550 510 528 510 500 c 0
 510 483 501 467 488 458 c 1
 501 449 510 434 510 417 c 0
 510 399 501 384 487 375 c 1
 501 366 510 351 510 333 c 1
 510 316 501 301 488 292 c 1
 501 283 510 267 510 250 c 0xb280
190 250 m 1xba
 190 222 168 200 140 200 c 0
 112 200 90 222 90 250 c 0
 90 267 99 283 112 292 c 1
 99 301 90 316 90 333 c 1
 90 351 99 366 113 375 c 1
 99 384 90 399 90 417 c 0
 90 434 99 449 112 458 c 1
 99 467 90 483 90 500 c 1xba
 90 528 112 550 140 550 c 0
 147 550 153 548 159 546 c 1
 149 555 143 568 143 583 c 0xb6
 143 599 151 613 162 622 c 1
 155 619 148 617 140 617 c 0
 112 617 90 639 90 667 c 0
 90 684 99 699 112 708 c 1
 99 717 90 733 90 750 c 0
 90 778 112 800 140 800 c 0
 168 800 190 778 190 750 c 0
 190 733 181 717 168 708 c 1
 181 699 190 684 190 667 c 0xba
 190 651 182 637 171 628 c 1
 178 631 185 633 193 633 c 0
 221 633 243 611 243 583 c 0xb6
 243 555 221 533 193 533 c 0
 186 533 180 535 174 537 c 1
 184 528 190 515 190 500 c 0
 190 483 181 467 168 458 c 1
 181 449 190 434 190 417 c 1
 190 399 181 384 167 375 c 1
 181 366 190 351 190 333 c 0
 190 316 181 301 168 292 c 1
 181 283 190 267 190 250 c 1xba
350 583 m 0
 350 555 328 533 300 533 c 0
 272 533 250 555 250 583 c 0
 250 611 272 633 300 633 c 0
 328 633 350 611 350 583 c 0
EndSplineSet
EndChar

StartChar: edieresis
Encoding: 235 235 30
Width: 600
VWidth: 0
UnlinkRmOvrlpSave: 1
Flags: W
HStem: 200 100<174.281 234.562 258.438 341.562 365.438 448.562> 367 100<205.438 288.562 311.438 394.562> 533 100<174.281 234.562 258.438 341.562 365.438 425.719> 700 100<151.438 234.562 365.438 448.562>
VStem: 90 100<296.667 374.139 375.861 457.574 458.427 536.333> 143 100<208.438 286.333 546.667 624.562 708.438 791.562> 197 100<375.438 458.562> 250 100<208.438 291.562 541.438 624.562> 303 100<375.438 458.562> 357 100<208.438 291.562 546.667 624.562 708.438 791.562> 410 100<375.438 457.574 458.427 536.333>
LayerCount: 2
Back
Fore
SplineSet
457 250 m 0xf040
 457 222 435 200 407 200 c 0
 379 200 357 222 357 250 c 0
 357 278 379 300 407 300 c 0
 435 300 457 278 457 250 c 0xf040
350 250 m 0xf1
 350 222 328 200 300 200 c 0
 272 200 250 222 250 250 c 0
 250 278 272 300 300 300 c 0
 328 300 350 278 350 250 c 0xf1
243 250 m 0xf4
 243 222 221 200 193 200 c 0
 165 200 143 222 143 250 c 0xf4
 143 265 149 278 159 287 c 1
 153 285 147 283 140 283 c 0
 112 283 90 305 90 333 c 0
 90 351 99 366 113 375 c 1
 99 384 90 399 90 417 c 0
 90 434 99 449 112 458 c 1
 99 467 90 483 90 500 c 1xf8
 90 528 112 550 140 550 c 0
 147 550 153 548 159 546 c 1
 149 555 143 568 143 583 c 0
 143 611 165 633 193 633 c 0
 221 633 243 611 243 583 c 0xf4
 243 555 221 533 193 533 c 0
 186 533 180 535 174 537 c 1
 184 528 190 515 190 500 c 0
 190 483 181 467 168 458 c 1
 181 449 190 434 190 417 c 1
 190 399 181 384 167 375 c 1
 181 366 190 351 190 333 c 0xf8
 190 318 184 305 174 296 c 1
 180 298 186 300 193 300 c 0
 221 300 243 278 243 250 c 0xf4
510 417 m 0xf020
 510 389 488 367 460 367 c 0
 432 367 410 389 410 417 c 0
 410 434 419 449 432 458 c 1
 419 467 410 483 410 500 c 0xf020
 410 515 416 528 426 537 c 1
 420 535 414 533 407 533 c 0
 379 533 357 555 357 583 c 0
 357 611 379 633 407 633 c 0
 435 633 457 611 457 583 c 0xf040
 457 568 451 555 441 546 c 1
 447 548 453 550 460 550 c 0
 488 550 510 528 510 500 c 0
 510 483 501 467 488 458 c 1
 501 449 510 434 510 417 c 0xf020
403 417 m 0xf080
 403 389 381 367 353 367 c 0
 325 367 303 389 303 417 c 0
 303 445 325 467 353 467 c 0
 381 467 403 445 403 417 c 0xf080
297 417 m 0xf2
 297 389 275 367 247 367 c 0
 219 367 197 389 197 417 c 0
 197 445 219 467 247 467 c 0
 275 467 297 445 297 417 c 0xf2
350 583 m 0xf1
 350 555 328 533 300 533 c 0
 272 533 250 555 250 583 c 0
 250 611 272 633 300 633 c 0
 328 633 350 611 350 583 c 0xf1
457 750 m 0xf040
 457 722 435 700 407 700 c 0
 379 700 357 722 357 750 c 0
 357 778 379 800 407 800 c 0
 435 800 457 778 457 750 c 0xf040
243 750 m 0xf4
 243 722 221 700 193 700 c 0
 165 700 143 722 143 750 c 0
 143 778 165 800 193 800 c 0
 221 800 243 778 243 750 c 0xf4
EndSplineSet
EndChar

StartChar: l
Encoding: 108 108 31
Width: 600
VWidth: 0
UnlinkRmOvrlpSave: 1
Flags: W
HStem: 200 100<98.4375 181.562 312.438 395.562> 700 100<98.4375 181.562>
VStem: 90 100<208.438 291.562 708.438 791.562> 197 100<208.438 291.573 292.426 374.139 375.861 457.574 458.427 541.573 542.426 624.139 625.861 707.574 708.427 791.562> 304 100<208.438 291.562>
CounterMasks: 1 38
LayerCount: 2
Back
Fore
SplineSet
404 250 m 0
 404 222 382 200 354 200 c 0
 326 200 304 222 304 250 c 0
 304 278 326 300 354 300 c 0
 382 300 404 278 404 250 c 0
297 250 m 0
 297 222 275 200 247 200 c 0
 219 200 197 222 197 250 c 0
 197 267 206 283 219 292 c 1
 206 301 197 316 197 333 c 1
 197 351 206 366 220 375 c 1
 206 384 197 399 197 417 c 0
 197 434 206 449 219 458 c 1
 206 467 197 483 197 500 c 1
 197 517 206 533 219 542 c 1
 206 551 197 566 197 583 c 0
 197 601 206 616 220 625 c 1
 206 634 197 649 197 667 c 0
 197 684 206 699 219 708 c 1
 206 717 197 733 197 750 c 0
 197 778 219 800 247 800 c 0
 275 800 297 778 297 750 c 0
 297 733 288 717 275 708 c 1
 288 699 297 684 297 667 c 0
 297 649 288 634 274 625 c 1
 288 616 297 601 297 583 c 0
 297 566 288 551 275 542 c 1
 288 533 297 517 297 500 c 0
 297 483 288 467 275 458 c 1
 288 449 297 434 297 417 c 0
 297 399 288 384 274 375 c 1
 288 366 297 351 297 333 c 1
 297 316 288 301 275 292 c 1
 288 283 297 267 297 250 c 0
190 250 m 0
 190 222 168 200 140 200 c 0
 112 200 90 222 90 250 c 0
 90 278 112 300 140 300 c 0
 168 300 190 278 190 250 c 0
190 750 m 0
 190 722 168 700 140 700 c 0
 112 700 90 722 90 750 c 0
 90 778 112 800 140 800 c 0
 168 800 190 778 190 750 c 0
EndSplineSet
EndChar

StartChar: p
Encoding: 112 112 32
Width: 600
VWidth: 0
UnlinkRmOvrlpSave: 1
Flags: W
HStem: 200 21G<126 154> 200 21G<126 154> 367 100<174.285 234.562 258.438 341.562 365.438 425.719> 450 100<441.281 501.562> 533 100<205.438 288.562 311.438 394.562>
VStem: 90 100<208.438 291.573 292.426 371.574 463.667 541.573 542.426 624.562> 143 100<378.426 453.333> 197 100<541.438 624.562> 250 100<375.438 458.562> 303 100<541.438 624.562> 357 100<375.438 453.333> 410 100<463.667 541.562>
LayerCount: 2
Back
Fore
SplineSet
190 250 m 1x2c
 190 222 168 200 140 200 c 0
 112 200 90 222 90 250 c 0
 90 267 99 283 112 292 c 1
 99 301 90 316 90 333 c 1xac
 90 361 112 383 140 383 c 0
 148 383 155 381 162 378 c 1
 151 387 143 401 143 417 c 0
 143 432 149 445 159 454 c 1
 153 452 147 450 140 450 c 0x92
 112 450 90 472 90 500 c 0
 90 517 99 533 112 542 c 1
 99 551 90 566 90 583 c 0
 90 611 112 633 140 633 c 0
 168 633 190 611 190 583 c 0
 190 566 181 551 168 542 c 1
 181 533 190 517 190 500 c 0x0c
 190 485 184 472 174 463 c 1
 180 465 186 467 193 467 c 0
 221 467 243 445 243 417 c 0x2a
 243 389 221 367 193 367 c 0
 185 367 178 369 171 372 c 1
 182 363 190 349 190 333 c 0
 190 316 181 301 168 292 c 1
 181 283 190 267 190 250 c 1x2c
457 417 m 1x1020
 457 389 435 367 407 367 c 0
 379 367 357 389 357 417 c 0
 357 445 379 467 407 467 c 0x2020
 414 467 420 465 426 463 c 1
 416 472 410 485 410 500 c 1
 410 528 432 550 460 550 c 0
 488 550 510 528 510 500 c 0x1010
 510 472 488 450 460 450 c 0
 453 450 447 452 441 454 c 1
 451 445 457 432 457 417 c 1x1020
350 417 m 0x2080
 350 389 328 367 300 367 c 0
 272 367 250 389 250 417 c 0
 250 445 272 467 300 467 c 0
 328 467 350 445 350 417 c 0x2080
403 583 m 0x0840
 403 555 381 533 353 533 c 0
 325 533 303 555 303 583 c 0
 303 611 325 633 353 633 c 0
 381 633 403 611 403 583 c 0x0840
297 583 m 0x09
 297 555 275 533 247 533 c 0
 219 533 197 555 197 583 c 0
 197 611 219 633 247 633 c 0
 275 633 297 611 297 583 c 0x09
EndSplineSet
EndChar

StartChar: t
Encoding: 116 116 33
Width: 600
VWidth: 0
UnlinkRmOvrlpSave: 1
Flags: W
HStem: 200 100<281.281 341.562 365.438 425.719> 283 100<441.281 501.562> 533 100<98.4375 181.562 311.438 394.562> 780 20G<233 261>
VStem: 90 100<541.438 624.562> 197 100<296.667 374.139 375.861 457.574 458.427 541.573 542.426 624.139 625.861 707.574 708.427 791.562> 250 100<208.438 286.333> 303 100<541.438 624.562> 357 100<208.438 286.333> 410 100<296.667 374.562>
LayerCount: 2
Back
Fore
SplineSet
457 250 m 1x7880
 457 222 435 200 407 200 c 0
 379 200 357 222 357 250 c 0
 357 278 379 300 407 300 c 0xb880
 414 300 420 298 426 296 c 1
 416 305 410 318 410 333 c 1
 410 361 432 383 460 383 c 0
 488 383 510 361 510 333 c 0x7840
 510 305 488 283 460 283 c 0
 453 283 447 285 441 287 c 1
 451 278 457 265 457 250 c 1x7880
350 250 m 0xba
 350 222 328 200 300 200 c 0
 272 200 250 222 250 250 c 0xba
 250 265 256 278 266 287 c 1
 260 285 254 283 247 283 c 0
 219 283 197 305 197 333 c 0
 197 351 206 366 220 375 c 1
 206 384 197 399 197 417 c 0
 197 434 206 449 219 458 c 1
 206 467 197 483 197 500 c 1
 197 517 206 533 219 542 c 1
 206 551 197 566 197 583 c 0
 197 601 206 616 220 625 c 1
 206 634 197 649 197 667 c 0
 197 684 206 699 219 708 c 1
 206 717 197 733 197 750 c 0
 197 778 219 800 247 800 c 0
 275 800 297 778 297 750 c 0
 297 733 288 717 275 708 c 1
 288 699 297 684 297 667 c 0
 297 649 288 634 274 625 c 1
 288 616 297 601 297 583 c 0
 297 566 288 551 275 542 c 1
 288 533 297 517 297 500 c 0
 297 483 288 467 275 458 c 1
 288 449 297 434 297 417 c 1
 297 399 288 384 274 375 c 1
 288 366 297 351 297 333 c 0x7c
 297 318 291 305 281 296 c 1
 287 298 293 300 300 300 c 0
 328 300 350 278 350 250 c 0xba
403 583 m 0x39
 403 555 381 533 353 533 c 0
 325 533 303 555 303 583 c 0
 303 611 325 633 353 633 c 0
 381 633 403 611 403 583 c 0x39
190 583 m 0
 190 555 168 533 140 533 c 0
 112 533 90 555 90 583 c 0
 90 611 112 633 140 633 c 0
 168 633 190 611 190 583 c 0
EndSplineSet
EndChar

StartChar: divide
Encoding: 247 247 34
Width: 600
VWidth: 0
UnlinkRmOvrlpSave: 1
Flags: W
HStem: 283 100<258.438 341.562> 450 100<98.4375 181.562 205.438 288.562 311.438 394.562 418.438 501.562> 617 100<258.438 341.562>
VStem: 90 100<458.438 541.562> 197 100<458.438 541.562> 250 100<291.438 374.562 625.438 708.562> 303 100<458.438 541.562> 410 100<458.438 541.562>
CounterMasks: 1 e0
LayerCount: 2
Back
Fore
SplineSet
350 333 m 0xf5
 350 305 328 283 300 283 c 0
 272 283 250 305 250 333 c 0
 250 361 272 383 300 383 c 0
 328 383 350 361 350 333 c 0xf5
510 500 m 0
 510 472 488 450 460 450 c 0
 432 450 410 472 410 500 c 0
 410 528 432 550 460 550 c 0
 488 550 510 528 510 500 c 0
403 500 m 0xf3
 403 472 381 450 353 450 c 0
 325 450 303 472 303 500 c 0
 303 528 325 550 353 550 c 0
 381 550 403 528 403 500 c 0xf3
297 500 m 0xf9
 297 472 275 450 247 450 c 0
 219 450 197 472 197 500 c 0
 197 528 219 550 247 550 c 0
 275 550 297 528 297 500 c 0xf9
190 500 m 0
 190 472 168 450 140 450 c 0
 112 450 90 472 90 500 c 0
 90 528 112 550 140 550 c 0
 168 550 190 528 190 500 c 0
350 667 m 0xf5
 350 639 328 617 300 617 c 0
 272 617 250 639 250 667 c 0
 250 695 272 717 300 717 c 0
 328 717 350 695 350 667 c 0xf5
EndSplineSet
EndChar

StartChar: x
Encoding: 120 120 35
Width: 600
VWidth: 0
UnlinkRmOvrlpSave: 1
Flags: W
HStem: 200 100<98.4375 158.719 441.281 501.562> 283 100<174.281 234.562 365.438 425.719> 367 100<258.438 341.562> 450 100<174.281 234.562 365.438 425.719> 533 100<98.4375 158.719 441.281 501.562>
VStem: 90 100<208.438 286.333 546.667 624.562> 143 100<296.667 374.562 458.438 536.333> 250 100<375.438 458.562> 357 100<296.667 374.562 458.438 536.333> 410 100<208.438 286.333 546.667 624.562>
LayerCount: 2
Back
Fore
SplineSet
510 250 m 0x8140
 510 222 488 200 460 200 c 0
 432 200 410 222 410 250 c 0x8140
 410 265 416 278 426 287 c 1
 420 285 414 283 407 283 c 0
 379 283 357 305 357 333 c 0
 357 361 379 383 407 383 c 0
 435 383 457 361 457 333 c 0x4180
 457 318 451 305 441 296 c 1
 447 298 453 300 460 300 c 0
 488 300 510 278 510 250 c 0x8140
190 250 m 0x45
 190 222 168 200 140 200 c 0
 112 200 90 222 90 250 c 0
 90 278 112 300 140 300 c 0x85
 147 300 153 298 159 296 c 1
 149 305 143 318 143 333 c 0
 143 361 165 383 193 383 c 0
 221 383 243 361 243 333 c 0x43
 243 305 221 283 193 283 c 0
 186 283 180 285 174 287 c 1
 184 278 190 265 190 250 c 0x45
350 417 m 0
 350 389 328 367 300 367 c 0
 272 367 250 389 250 417 c 0
 250 445 272 467 300 467 c 0x21
 328 467 350 445 350 417 c 0
457 500 m 1x0980
 457 472 435 450 407 450 c 0
 379 450 357 472 357 500 c 0
 357 528 379 550 407 550 c 0x1180
 414 550 420 548 426 546 c 1
 416 555 410 568 410 583 c 1
 410 611 432 633 460 633 c 0
 488 633 510 611 510 583 c 0x0940
 510 555 488 533 460 533 c 0
 453 533 447 535 441 537 c 1
 451 528 457 515 457 500 c 1x0980
243 500 m 0x13
 243 472 221 450 193 450 c 0
 165 450 143 472 143 500 c 0x13
 143 515 149 528 159 537 c 1
 153 535 147 533 140 533 c 0
 112 533 90 555 90 583 c 0
 90 611 112 633 140 633 c 0
 168 633 190 611 190 583 c 0x0d
 190 568 184 555 174 546 c 1
 180 548 186 550 193 550 c 0
 221 550 243 528 243 500 c 0x13
EndSplineSet
EndChar

StartChar: bar
Encoding: 124 124 36
Width: 600
VWidth: 0
UnlinkRmOvrlpSave: 1
Flags: W
HStem: 200 21G<126 154> 200 21G<126 154> 780 20G<126 154>
VStem: 90 100<208.438 291.573 292.426 374.139 375.861 457.574 458.427 541.573 542.426 624.139 625.861 707.574 708.427 791.562>
LayerCount: 2
Back
Fore
SplineSet
190 250 m 0xb0
 190 222 168 200 140 200 c 0
 112 200 90 222 90 250 c 0
 90 267 99 283 112 292 c 1
 99 301 90 316 90 333 c 1
 90 351 99 366 113 375 c 1
 99 384 90 399 90 417 c 0
 90 434 99 449 112 458 c 1
 99 467 90 483 90 500 c 1
 90 517 99 533 112 542 c 1
 99 551 90 566 90 583 c 0
 90 601 99 616 113 625 c 1
 99 634 90 649 90 667 c 0
 90 684 99 699 112 708 c 1
 99 717 90 733 90 750 c 0
 90 778 112 800 140 800 c 0
 168 800 190 778 190 750 c 0
 190 733 181 717 168 708 c 1
 181 699 190 684 190 667 c 0
 190 649 181 634 167 625 c 1
 181 616 190 601 190 583 c 0
 190 566 181 551 168 542 c 1
 181 533 190 517 190 500 c 0
 190 483 181 467 168 458 c 1
 181 449 190 434 190 417 c 0
 190 399 181 384 167 375 c 1
 181 366 190 351 190 333 c 1
 190 316 181 301 168 292 c 1
 181 283 190 267 190 250 c 0xb0
EndSplineSet
EndChar

StartChar: glyph37
Encoding: 769 769 37
Width: 600
VWidth: 0
UnlinkRmOvrlpSave: 1
Flags: W
HStem: 533 100<98.4375 161.672> 617 100<171 212> 700 100<227.281 287.562>
VStem: 90 100<541.438 621.574> 143 100<628.426 703.333> 196 100<713.667 791.562>
LayerCount: 2
Back
Fore
SplineSet
190 583 m 1x50
 190 555 168 533 140 533 c 0
 112 533 90 555 90 583 c 0
 90 611 112 633 140 633 c 0x90
 148 633 155 631 162 628 c 1
 151 637 143 651 143 667 c 1
 143 695 165 717 193 717 c 0x48
 200 717 206 715 212 713 c 1
 202 722 196 735 196 750 c 1
 196 778 218 800 246 800 c 0
 274 800 296 778 296 750 c 0x24
 296 722 274 700 246 700 c 0
 239 700 233 702 227 704 c 1
 237 695 243 682 243 667 c 1x28
 243 639 221 617 193 617 c 0
 185 617 178 619 171 622 c 1
 182 613 190 599 190 583 c 1x50
EndSplineSet
EndChar

StartChar: glyph38
Encoding: 8594 8594 38
Width: 600
VWidth: 0
UnlinkRmOvrlpSave: 1
Flags: W
HStem: 283 100<311.438 377.67> 367 100<386.282 425.719> 450 100<98.4375 181.562 205.438 288.562 311.438 373.718 441.281 501.562> 533 100<386.282 425.719> 617 100<311.438 377.67>
VStem: 90 100<458.438 541.562> 197 100<458.438 541.562> 303 100<291.438 373.574 462.426 537.574 626.426 708.562> 357 100<376.426 453.575 546.425 623.574> 410 100<463.667 536.333>
LayerCount: 2
Back
Fore
SplineSet
403 333 m 1x47
 403 305 381 283 353 283 c 0
 325 283 303 305 303 333 c 0x87
 303 361 325 383 353 383 c 0
 362 383 371 380 378 376 c 1
 365 385 357 400 357 417 c 1x8680
 357 432 364 446 374 455 c 1
 368 452 361 450 353 450 c 0
 325 450 303 472 303 500 c 0xa7
 303 528 325 550 353 550 c 0
 361 550 368 548 374 545 c 1
 364 554 357 568 357 583 c 0xa680
 357 600 365 615 378 624 c 1
 371 620 362 617 353 617 c 0
 325 617 303 639 303 667 c 0
 303 695 325 717 353 717 c 0
 381 717 403 695 403 667 c 0xaf
 403 650 395 635 382 626 c 1
 389 630 398 633 407 633 c 0
 435 633 457 611 457 583 c 0x1680
 457 568 451 555 441 546 c 1
 447 548 453 550 460 550 c 0
 488 550 510 528 510 500 c 0x2640
 510 472 488 450 460 450 c 0
 453 450 447 452 441 454 c 1
 451 445 457 432 457 417 c 1x2680
 457 389 435 367 407 367 c 0
 398 367 389 370 382 374 c 1
 395 365 403 350 403 333 c 1x47
297 500 m 0
 297 472 275 450 247 450 c 0
 219 450 197 472 197 500 c 0
 197 528 219 550 247 550 c 0x26
 275 550 297 528 297 500 c 0
190 500 m 0
 190 472 168 450 140 450 c 0
 112 450 90 472 90 500 c 0
 90 528 112 550 140 550 c 0
 168 550 190 528 190 500 c 0
426 463 m 1
 416 472 410 485 410 500 c 1
 410 515 416 528 426 537 c 1
 420 535 414 533 407 533 c 0
 399 533 392 535 386 538 c 1
 396 529 403 515 403 500 c 0
 403 485 396 471 386 462 c 1
 392 465 399 467 407 467 c 0x5740
 414 467 420 465 426 463 c 1
EndSplineSet
EndChar

StartChar: numbersign
Encoding: 35 35 39
Width: 600
VWidth: 0
UnlinkRmOvrlpSave: 1
Flags: W
HStem: 200 21G<233 261 339 367> 200 21G<233 261 339 367> 367 100<98.4375 181.562 418.438 501.562> 533 100<98.4375 181.562 418.438 501.562> 780 20G<233 261 339 367>
VStem: 90 100<375.438 458.562 541.438 624.562> 197 100<208.438 291.573 292.426 374.139 375.861 457.574 458.427 541.573 542.426 624.139 625.861 707.574 708.427 791.562> 303 100<208.438 291.573 292.426 374.139 375.861 457.574 458.427 541.573 542.426 624.139 625.861 707.574 708.427 791.562> 410 100<375.438 458.562 541.438 624.562>
LayerCount: 2
Back
Fore
SplineSet
403 250 m 0xbf80
 403 222 381 200 353 200 c 0
 325 200 303 222 303 250 c 0
 303 267 312 283 325 292 c 1
 312 301 303 316 303 333 c 0
 303 351 312 366 326 375 c 1
 312 384 303 399 303 417 c 1
 303 434 312 449 325 458 c 1
 312 467 303 483 303 500 c 0
 303 517 312 533 325 542 c 1
 312 551 303 566 303 583 c 0
 303 601 312 616 326 625 c 1
 312 634 303 649 303 667 c 0
 303 684 312 699 325 708 c 1
 312 717 303 733 303 750 c 0
 303 778 325 800 353 800 c 0
 381 800 403 778 403 750 c 0
 403 733 394 717 381 708 c 1
 394 699 403 684 403 667 c 0
 403 649 394 634 380 625 c 1
 394 616 403 601 403 583 c 0
 403 566 394 551 381 542 c 1
 394 533 403 517 403 500 c 0
 403 483 394 467 381 458 c 1
 394 449 403 434 403 417 c 0
 403 399 394 384 380 375 c 1
 394 366 403 351 403 333 c 1
 403 316 394 301 381 292 c 1
 394 283 403 267 403 250 c 0xbf80
297 250 m 1
 297 222 275 200 247 200 c 0
 219 200 197 222 197 250 c 0
 197 267 206 283 219 292 c 1
 206 301 197 316 197 333 c 1
 197 351 206 366 220 375 c 1
 206 384 197 399 197 417 c 0
 197 434 206 449 219 458 c 1
 206 467 197 483 197 500 c 1
 197 517 206 533 219 542 c 1
 206 551 197 566 197 583 c 0
 197 601 206 616 220 625 c 1
 206 634 197 649 197 667 c 0
 197 684 206 699 219 708 c 1
 206 717 197 733 197 750 c 0
 197 778 219 800 247 800 c 0
 275 800 297 778 297 750 c 0
 297 733 288 717 275 708 c 1
 288 699 297 684 297 667 c 0
 297 649 288 634 274 625 c 1
 288 616 297 601 297 583 c 0
 297 566 288 551 275 542 c 1
 288 533 297 517 297 500 c 0
 297 483 288 467 275 458 c 1
 288 449 297 434 297 417 c 1
 297 399 288 384 274 375 c 1
 288 366 297 351 297 333 c 0
 297 316 288 301 275 292 c 1
 288 283 297 267 297 250 c 1
510 417 m 0
 510 389 488 367 460 367 c 0
 432 367 410 389 410 417 c 0
 410 445 432 467 460 467 c 0
 488 467 510 445 510 417 c 0
190 417 m 0
 190 389 168 367 140 367 c 0
 112 367 90 389 90 417 c 0
 90 445 112 467 140 467 c 0
 168 467 190 445 190 417 c 0
510 583 m 0
 510 555 488 533 460 533 c 0
 432 533 410 555 410 583 c 0
 410 611 432 633 460 633 c 0
 488 633 510 611 510 583 c 0
190 583 m 0
 190 555 168 533 140 533 c 0
 112 533 90 555 90 583 c 0
 90 611 112 633 140 633 c 0
 168 633 190 611 190 583 c 0
EndSplineSet
EndChar

StartChar: glyph40
Encoding: 8356 8356 40
Width: 600
VWidth: 0
UnlinkRmOvrlpSave: 1
Flags: W
HStem: 200 100<98.4375 181.562 311.438 394.562 418.438 501.562> 367 100<98.4375 181.562 311.438 394.562> 533 100<98.4375 181.562 311.438 394.562> 617 100<441.281 501.562> 700 100<281.281 341.562 365.438 425.719>
VStem: 90 100<208.438 291.562 375.438 458.562 541.438 624.562> 197 100<208.438 291.573 292.426 374.139 375.861 457.574 458.427 541.573 542.426 624.139 625.861 703.333> 250 100<713.667 791.562> 303 100<208.438 291.562 375.438 458.562 541.438 624.562> 357 100<713.667 791.562> 410 100<208.438 291.562 625.438 703.333>
LayerCount: 2
Back
Fore
SplineSet
510 250 m 0xc420
 510 222 488 200 460 200 c 0
 432 200 410 222 410 250 c 0
 410 278 432 300 460 300 c 0
 488 300 510 278 510 250 c 0xc420
403 250 m 0xc480
 403 222 381 200 353 200 c 0
 325 200 303 222 303 250 c 0
 303 278 325 300 353 300 c 0
 381 300 403 278 403 250 c 0xc480
297 250 m 1xce
 297 222 275 200 247 200 c 0
 219 200 197 222 197 250 c 0
 197 267 206 283 219 292 c 1
 206 301 197 316 197 333 c 1
 197 351 206 366 220 375 c 1
 206 384 197 399 197 417 c 0
 197 434 206 449 219 458 c 1
 206 467 197 483 197 500 c 1
 197 517 206 533 219 542 c 1
 206 551 197 566 197 583 c 0
 197 601 206 616 220 625 c 1
 206 634 197 649 197 667 c 0
 197 695 219 717 247 717 c 0xd6
 254 717 260 715 266 713 c 1
 256 722 250 735 250 750 c 0
 250 778 272 800 300 800 c 0
 328 800 350 778 350 750 c 0xcd
 350 722 328 700 300 700 c 0
 293 700 287 702 281 704 c 1
 291 695 297 682 297 667 c 0
 297 649 288 634 274 625 c 1
 288 616 297 601 297 583 c 0
 297 566 288 551 275 542 c 1
 288 533 297 517 297 500 c 0
 297 483 288 467 275 458 c 1
 288 449 297 434 297 417 c 1
 297 399 288 384 274 375 c 1
 288 366 297 351 297 333 c 0
 297 316 288 301 275 292 c 1
 288 283 297 267 297 250 c 1xce
190 250 m 0
 190 222 168 200 140 200 c 0
 112 200 90 222 90 250 c 0
 90 278 112 300 140 300 c 0
 168 300 190 278 190 250 c 0
403 417 m 0xc480
 403 389 381 367 353 367 c 0
 325 367 303 389 303 417 c 0
 303 445 325 467 353 467 c 0
 381 467 403 445 403 417 c 0xc480
190 417 m 0
 190 389 168 367 140 367 c 0
 112 367 90 389 90 417 c 0
 90 445 112 467 140 467 c 0
 168 467 190 445 190 417 c 0
403 583 m 0
 403 555 381 533 353 533 c 0
 325 533 303 555 303 583 c 0
 303 611 325 633 353 633 c 0xe480
 381 633 403 611 403 583 c 0
190 583 m 0
 190 555 168 533 140 533 c 0
 112 533 90 555 90 583 c 0
 90 611 112 633 140 633 c 0
 168 633 190 611 190 583 c 0
510 667 m 0xd420
 510 639 488 617 460 617 c 0
 432 617 410 639 410 667 c 0xd420
 410 682 416 695 426 704 c 1
 420 702 414 700 407 700 c 0
 379 700 357 722 357 750 c 0
 357 778 379 800 407 800 c 0
 435 800 457 778 457 750 c 0xcc40
 457 735 451 722 441 713 c 1
 447 715 453 717 460 717 c 0
 488 717 510 695 510 667 c 0xd420
EndSplineSet
EndChar

StartChar: quotesingle
Encoding: 39 39 41
Width: 600
VWidth: 0
UnlinkRmOvrlpSave: 1
Flags: W
HStem: 533 100<98.4375 161.672> 617 100<171 212> 700 100<227.281 287.562>
VStem: 90 100<541.438 621.574> 143 100<628.426 703.333> 196 100<713.667 791.562>
LayerCount: 2
Back
Fore
SplineSet
190 583 m 1x50
 190 555 168 533 140 533 c 0
 112 533 90 555 90 583 c 0
 90 611 112 633 140 633 c 0x90
 148 633 155 631 162 628 c 1
 151 637 143 651 143 667 c 1
 143 695 165 717 193 717 c 0x48
 200 717 206 715 212 713 c 1
 202 722 196 735 196 750 c 1
 196 778 218 800 246 800 c 0
 274 800 296 778 296 750 c 0x24
 296 722 274 700 246 700 c 0
 239 700 233 702 227 704 c 1
 237 695 243 682 243 667 c 1x28
 243 639 221 617 193 617 c 0
 185 617 178 619 171 622 c 1
 182 613 190 599 190 583 c 1x50
EndSplineSet
EndChar

StartChar: plus
Encoding: 43 43 42
Width: 600
VWidth: 0
UnlinkRmOvrlpSave: 1
Flags: W
HStem: 200 21G<286 314> 200 21G<286 314> 450 100<98.4375 181.562 205.438 265.719 334.281 394.562 418.438 501.562> 780 20G<286 314>
VStem: 90 100<458.438 541.562> 197 100<463.667 536.333> 250 100<208.438 291.573 292.426 374.139 375.861 453.575 546.425 624.139 625.861 707.574 708.427 791.562> 303 100<463.667 536.333> 410 100<458.438 541.562>
LayerCount: 2
Back
Fore
SplineSet
350 250 m 0xba80
 350 222 328 200 300 200 c 0
 272 200 250 222 250 250 c 0
 250 267 259 283 272 292 c 1
 259 301 250 316 250 333 c 1
 250 351 259 366 273 375 c 1
 259 384 250 399 250 417 c 0xba80
 250 432 256 445 266 454 c 1
 260 452 254 450 247 450 c 0
 219 450 197 472 197 500 c 0xbc80
 197 528 219 550 247 550 c 0
 254 550 260 548 266 546 c 1
 256 555 250 568 250 583 c 0
 250 601 259 616 273 625 c 1
 259 634 250 649 250 667 c 0
 250 684 259 699 272 708 c 1
 259 717 250 733 250 750 c 0
 250 778 272 800 300 800 c 0
 328 800 350 778 350 750 c 0
 350 733 341 717 328 708 c 1
 341 699 350 684 350 667 c 0
 350 649 341 634 327 625 c 1
 341 616 350 601 350 583 c 0xba80
 350 568 344 555 334 546 c 1
 340 548 346 550 353 550 c 0
 381 550 403 528 403 500 c 0xb980
 403 472 381 450 353 450 c 0
 346 450 340 452 334 454 c 1
 344 445 350 432 350 417 c 1
 350 399 341 384 327 375 c 1
 341 366 350 351 350 333 c 1
 350 316 341 301 328 292 c 1
 341 283 350 267 350 250 c 0xba80
510 500 m 0
 510 472 488 450 460 450 c 0
 432 450 410 472 410 500 c 0
 410 528 432 550 460 550 c 0
 488 550 510 528 510 500 c 0
190 500 m 0
 190 472 168 450 140 450 c 0
 112 450 90 472 90 500 c 0
 90 528 112 550 140 550 c 0
 168 550 190 528 190 500 c 0
319 463 m 1
 309 472 303 485 303 500 c 1
 303 515 309 528 319 537 c 1
 313 535 307 533 300 533 c 0
 293 533 287 535 281 537 c 1
 291 528 297 515 297 500 c 0x3d80
 297 485 291 472 281 463 c 1
 287 465 293 467 300 467 c 0
 307 467 313 465 319 463 c 1
EndSplineSet
EndChar

StartChar: glyph43
Encoding: 8364 8364 43
Width: 600
VWidth: 0
UnlinkRmOvrlpSave: 1
Flags: W
HStem: 200 100<281.281 341.562 365.438 425.719> 283 100<441.281 501.562> 367 100<98.4375 181.562 311.438 394.562> 533 100<98.4375 181.562 311.438 394.562> 617 100<441.281 501.562> 700 100<281.281 341.562 365.438 425.719>
VStem: 90 100<375.438 458.562 541.438 624.562> 197 100<296.667 374.139 375.861 457.574 458.427 541.573 542.426 624.139 625.861 703.333> 250 100<208.438 286.333 713.667 791.562> 303 100<375.438 458.562 541.438 624.562> 357 100<208.438 286.333 713.667 791.562> 410 100<296.667 374.562 625.438 703.333>
LayerCount: 2
Back
Fore
SplineSet
457 250 m 1x4220
 457 222 435 200 407 200 c 0
 379 200 357 222 357 250 c 0
 357 278 379 300 407 300 c 0x8220
 414 300 420 298 426 296 c 1
 416 305 410 318 410 333 c 1
 410 361 432 383 460 383 c 0
 488 383 510 361 510 333 c 0x4210
 510 305 488 283 460 283 c 0
 453 283 447 285 441 287 c 1
 451 278 457 265 457 250 c 1x4220
350 250 m 0x8680
 350 222 328 200 300 200 c 0
 272 200 250 222 250 250 c 0x8680
 250 265 256 278 266 287 c 1
 260 285 254 283 247 283 c 0
 219 283 197 305 197 333 c 0
 197 351 206 366 220 375 c 1
 206 384 197 399 197 417 c 0
 197 434 206 449 219 458 c 1
 206 467 197 483 197 500 c 1
 197 517 206 533 219 542 c 1
 206 551 197 566 197 583 c 0
 197 601 206 616 220 625 c 1
 206 634 197 649 197 667 c 0
 197 695 219 717 247 717 c 0x4b
 254 717 260 715 266 713 c 1
 256 722 250 735 250 750 c 0
 250 778 272 800 300 800 c 0
 328 800 350 778 350 750 c 0x0680
 350 722 328 700 300 700 c 0
 293 700 287 702 281 704 c 1
 291 695 297 682 297 667 c 0
 297 649 288 634 274 625 c 1
 288 616 297 601 297 583 c 0
 297 566 288 551 275 542 c 1
 288 533 297 517 297 500 c 0
 297 483 288 467 275 458 c 1
 288 449 297 434 297 417 c 1
 297 399 288 384 274 375 c 1
 288 366 297 351 297 333 c 0x07
 297 318 291 305 281 296 c 1
 287 298 293 300 300 300 c 0
 328 300 350 278 350 250 c 0x8680
403 417 m 0x2240
 403 389 381 367 353 367 c 0
 325 367 303 389 303 417 c 0
 303 445 325 467 353 467 c 0
 381 467 403 445 403 417 c 0x2240
190 417 m 0
 190 389 168 367 140 367 c 0
 112 367 90 389 90 417 c 0
 90 445 112 467 140 467 c 0
 168 467 190 445 190 417 c 0
403 583 m 0
 403 555 381 533 353 533 c 0
 325 533 303 555 303 583 c 0
 303 611 325 633 353 633 c 0x1240
 381 633 403 611 403 583 c 0
190 583 m 0
 190 555 168 533 140 533 c 0
 112 533 90 555 90 583 c 0
 90 611 112 633 140 633 c 0
 168 633 190 611 190 583 c 0
510 667 m 0x0a10
 510 639 488 617 460 617 c 0
 432 617 410 639 410 667 c 0x0a10
 410 682 416 695 426 704 c 1
 420 702 414 700 407 700 c 0
 379 700 357 722 357 750 c 0
 357 778 379 800 407 800 c 0
 435 800 457 778 457 750 c 0x0620
 457 735 451 722 441 713 c 1
 447 715 453 717 460 717 c 0
 488 717 510 695 510 667 c 0x0a10
EndSplineSet
EndChar

StartChar: slash
Encoding: 47 47 44
Width: 600
VWidth: 0
UnlinkRmOvrlpSave: 1
Flags: W
HStem: 200 100<98.4375 158.719> 283 100<174.281 217.67> 367 100<222.33 265.719> 450 100<281 319> 533 100<334.281 377.67> 617 100<382.33 425.719> 700 100<441.281 501.562>
VStem: 90 100<208.438 286.333> 143 100<296.667 373.574> 197 100<376.426 453.333> 250 100<463.667 536.333> 303 100<546.667 623.574> 357 100<626.426 703.333> 410 100<713.667 791.562>
LayerCount: 2
Back
Fore
SplineSet
190 250 m 0x41
 190 222 168 200 140 200 c 0
 112 200 90 222 90 250 c 0
 90 278 112 300 140 300 c 0x81
 147 300 153 298 159 296 c 1
 149 305 143 318 143 333 c 0
 143 361 165 383 193 383 c 0x4080
 202 383 211 380 218 376 c 1
 205 385 197 400 197 417 c 0
 197 445 219 467 247 467 c 0x2040
 254 467 260 465 266 463 c 1
 256 472 250 485 250 500 c 0
 250 528 272 550 300 550 c 0x1020
 307 550 313 548 319 546 c 1
 309 555 303 568 303 583 c 1
 303 611 325 633 353 633 c 0x0810
 362 633 371 630 378 626 c 1
 365 635 357 650 357 667 c 1
 357 695 379 717 407 717 c 0x0408
 414 717 420 715 426 713 c 1
 416 722 410 735 410 750 c 1
 410 778 432 800 460 800 c 0
 488 800 510 778 510 750 c 0x0204
 510 722 488 700 460 700 c 0
 453 700 447 702 441 704 c 1
 451 695 457 682 457 667 c 1x0208
 457 639 435 617 407 617 c 0
 398 617 389 620 382 624 c 1
 395 615 403 600 403 583 c 1x0410
 403 555 381 533 353 533 c 0
 346 533 340 535 334 537 c 1
 344 528 350 515 350 500 c 1x0820
 350 472 328 450 300 450 c 0
 293 450 287 452 281 454 c 1
 291 445 297 432 297 417 c 0x1040
 297 389 275 367 247 367 c 0
 238 367 229 370 222 374 c 1
 235 365 243 350 243 333 c 0x2080
 243 305 221 283 193 283 c 0
 186 283 180 285 174 287 c 1
 184 278 190 265 190 250 c 0x41
EndSplineSet
EndChar

StartChar: glyph45
Encoding: 305 305 45
Width: 600
VWidth: 0
UnlinkRmOvrlpSave: 1
Flags: W
HStem: 200 100<98.4375 181.562 312.438 395.562> 533 100<98.4375 181.562>
VStem: 90 100<208.438 291.562 541.438 624.562> 197 100<208.438 291.573 292.426 374.139 375.861 457.574 458.427 541.573 542.426 624.562> 304 100<208.438 291.562>
CounterMasks: 1 38
LayerCount: 2
Back
Fore
SplineSet
404 250 m 0
 404 222 382 200 354 200 c 0
 326 200 304 222 304 250 c 0
 304 278 326 300 354 300 c 0
 382 300 404 278 404 250 c 0
297 250 m 0
 297 222 275 200 247 200 c 0
 219 200 197 222 197 250 c 0
 197 267 206 283 219 292 c 1
 206 301 197 316 197 333 c 1
 197 351 206 366 220 375 c 1
 206 384 197 399 197 417 c 0
 197 434 206 449 219 458 c 1
 206 467 197 483 197 500 c 1
 197 517 206 533 219 542 c 1
 206 551 197 566 197 583 c 0
 197 611 219 633 247 633 c 0
 275 633 297 611 297 583 c 0
 297 566 288 551 275 542 c 1
 288 533 297 517 297 500 c 0
 297 483 288 467 275 458 c 1
 288 449 297 434 297 417 c 0
 297 399 288 384 274 375 c 1
 288 366 297 351 297 333 c 1
 297 316 288 301 275 292 c 1
 288 283 297 267 297 250 c 0
190 250 m 0
 190 222 168 200 140 200 c 0
 112 200 90 222 90 250 c 0
 90 278 112 300 140 300 c 0
 168 300 190 278 190 250 c 0
190 583 m 0
 190 555 168 533 140 533 c 0
 112 533 90 555 90 583 c 0
 90 611 112 633 140 633 c 0
 168 633 190 611 190 583 c 0
EndSplineSet
EndChar

StartChar: degree
Encoding: 176 176 46
Width: 600
VWidth: 0
UnlinkRmOvrlpSave: 1
Flags: W
HStem: 533 100<169.33 235.562 258.438 324.67> 617 100<98.4375 160.718 333.282 395.562> 700 100<173.282 235.562 258.438 320.718>
VStem: 90 100<626.426 704.574> 144 100<541.438 623.574 712.426 791.562> 250 100<541.438 623.574 712.426 791.562> 304 100<626.426 704.574>
LayerCount: 2
Back
Fore
SplineSet
350 583 m 1x44
 350 555 328 533 300 533 c 0
 272 533 250 555 250 583 c 0x84
 250 611 272 633 300 633 c 0
 309 633 318 630 325 626 c 1
 312 635 304 650 304 667 c 1x82
 304 682 311 696 321 705 c 1
 315 702 308 700 300 700 c 0
 272 700 250 722 250 750 c 0
 250 778 272 800 300 800 c 0
 328 800 350 778 350 750 c 0xa4
 350 735 343 721 333 712 c 1
 339 715 346 717 354 717 c 0
 382 717 404 695 404 667 c 0x42
 404 639 382 617 354 617 c 0
 345 617 336 620 329 624 c 1
 342 615 350 600 350 583 c 1x44
244 583 m 0xa8
 244 555 222 533 194 533 c 0
 166 533 144 555 144 583 c 0xa8
 144 600 152 615 165 624 c 1
 158 620 149 617 140 617 c 0
 112 617 90 639 90 667 c 0
 90 695 112 717 140 717 c 0x50
 148 717 155 715 161 712 c 1
 151 721 144 735 144 750 c 1
 144 778 166 800 194 800 c 0
 222 800 244 778 244 750 c 0x28
 244 722 222 700 194 700 c 0
 186 700 179 702 173 705 c 1
 183 696 190 682 190 667 c 1x30
 190 650 182 635 169 626 c 1
 176 630 185 633 194 633 c 0
 222 633 244 611 244 583 c 0xa8
EndSplineSet
EndChar

StartChar: three
Encoding: 51 51 47
Width: 600
VWidth: 0
UnlinkRmOvrlpSave: 1
Flags: W
HStem: 200 100<174.281 234.562 258.438 341.562 365.438 425.719> 283 100<98.4375 158.719> 450 100<258.438 318.719 386.282 425.719> 533 100<334.281 373.718> 617 100<386.282 425.719> 700 100<98.4375 181.562 205.438 288.562 311.438 373.718 441.281 501.562>
VStem: 90 100<296.667 374.562 708.438 791.562> 143 100<208.438 286.333> 197 100<708.438 791.562> 250 100<208.438 291.562 458.438 536.333> 303 100<546.425 623.574 712.426 791.562> 357 100<208.438 286.333 463.667 537.574 626.426 703.575> 410 100<296.667 374.139 375.861 453.333 713.667 791.562>
LayerCount: 2
Back
Fore
SplineSet
457 250 m 1x6810
 457 222 435 200 407 200 c 0
 379 200 357 222 357 250 c 0x8010
 357 278 379 300 407 300 c 0
 414 300 420 298 426 296 c 1
 416 305 410 318 410 333 c 1
 410 351 419 366 433 375 c 1
 419 384 410 399 410 417 c 1
 410 432 416 445 426 454 c 1
 420 452 414 450 407 450 c 0xa008
 379 450 357 472 357 500 c 0
 357 515 364 529 374 538 c 1
 368 535 361 533 353 533 c 0x1010
 346 533 340 535 334 537 c 1
 344 528 350 515 350 500 c 1
 350 472 328 450 300 450 c 0
 272 450 250 472 250 500 c 0x2050
 250 528 272 550 300 550 c 0
 307 550 313 548 319 546 c 1
 309 555 303 568 303 583 c 1x2020
 303 611 325 633 353 633 c 0
 362 633 371 630 378 626 c 1
 365 635 357 650 357 667 c 1x1010
 357 682 364 696 374 705 c 1
 368 702 361 700 353 700 c 0
 325 700 303 722 303 750 c 0
 303 778 325 800 353 800 c 0x1420
 381 800 403 778 403 750 c 0
 403 735 396 721 386 712 c 1
 392 715 399 717 407 717 c 0x0820
 414 717 420 715 426 713 c 1
 416 722 410 735 410 750 c 1
 410 778 432 800 460 800 c 0
 488 800 510 778 510 750 c 0x0428
 510 722 488 700 460 700 c 0
 453 700 447 702 441 704 c 1
 451 695 457 682 457 667 c 1x0410
 457 639 435 617 407 617 c 0
 398 617 389 620 382 624 c 1
 395 615 403 600 403 583 c 1x0820
 403 568 396 554 386 545 c 1
 392 548 399 550 407 550 c 0
 435 550 457 528 457 500 c 0x2810
 457 485 451 472 441 463 c 1
 447 465 453 467 460 467 c 0
 488 467 510 445 510 417 c 0
 510 399 501 384 487 375 c 1
 501 366 510 351 510 333 c 1x2808
 510 305 488 283 460 283 c 0
 453 283 447 285 441 287 c 1
 451 278 457 265 457 250 c 1x6810
350 250 m 0x8040
 350 222 328 200 300 200 c 0
 272 200 250 222 250 250 c 0
 250 278 272 300 300 300 c 0
 328 300 350 278 350 250 c 0x8040
243 250 m 0x81
 243 222 221 200 193 200 c 0
 165 200 143 222 143 250 c 0x81
 143 265 149 278 159 287 c 1
 153 285 147 283 140 283 c 0
 112 283 90 305 90 333 c 0
 90 361 112 383 140 383 c 0
 168 383 190 361 190 333 c 0x42
 190 318 184 305 174 296 c 1
 180 298 186 300 193 300 c 0
 221 300 243 278 243 250 c 0x81
297 750 m 0x0480
 297 722 275 700 247 700 c 0
 219 700 197 722 197 750 c 0
 197 778 219 800 247 800 c 0
 275 800 297 778 297 750 c 0x0480
190 750 m 0x06
 190 722 168 700 140 700 c 0
 112 700 90 722 90 750 c 0
 90 778 112 800 140 800 c 0
 168 800 190 778 190 750 c 0x06
EndSplineSet
EndChar

StartChar: seven
Encoding: 55 55 48
Width: 600
VWidth: 0
UnlinkRmOvrlpSave: 1
Flags: W
HStem: 200 100<151.438 213.718> 283 100<226.282 268.672> 367 100<278 319> 450 100<334.281 373.718> 533 100<386.282 428.672> 700 100<98.4375 181.562 205.438 288.562 311.438 394.562>
VStem: 90 100<708.438 791.562> 143 100<208.438 287.574> 197 100<295.426 371.574 708.438 791.562> 250 100<378.426 453.333> 303 100<463.667 537.574 708.438 791.562> 357 100<545.426 621.574> 410 100<628.426 707.574 708.427 791.562>
LayerCount: 2
Back
Fore
SplineSet
243 250 m 1x45
 243 222 221 200 193 200 c 0
 165 200 143 222 143 250 c 0x85
 143 278 165 300 193 300 c 0
 201 300 208 298 214 295 c 1
 204 304 197 318 197 333 c 1x8480
 197 361 219 383 247 383 c 0
 255 383 262 381 269 378 c 1
 258 387 250 401 250 417 c 0x4440
 250 445 272 467 300 467 c 0
 307 467 313 465 319 463 c 1
 309 472 303 485 303 500 c 1x2420
 303 528 325 550 353 550 c 0
 361 550 368 548 374 545 c 1
 364 554 357 568 357 583 c 0x1410
 357 611 379 633 407 633 c 0
 415 633 422 631 429 628 c 1
 418 637 410 651 410 667 c 1
 410 684 419 699 432 708 c 1
 419 717 410 733 410 750 c 0
 410 778 432 800 460 800 c 0
 488 800 510 778 510 750 c 0
 510 733 501 717 488 708 c 1
 501 699 510 684 510 667 c 0x0c08
 510 639 488 617 460 617 c 0
 452 617 445 619 438 622 c 1
 449 613 457 599 457 583 c 1x0c10
 457 555 435 533 407 533 c 0
 399 533 392 535 386 538 c 1
 396 529 403 515 403 500 c 0x0c20
 403 472 381 450 353 450 c 0
 346 450 340 452 334 454 c 1
 344 445 350 432 350 417 c 1x1440
 350 389 328 367 300 367 c 0
 292 367 285 369 278 372 c 1
 289 363 297 349 297 333 c 0x2480
 297 305 275 283 247 283 c 0
 239 283 232 285 226 288 c 1
 236 279 243 265 243 250 c 1x45
403 750 m 0x0420
 403 722 381 700 353 700 c 0
 325 700 303 722 303 750 c 0
 303 778 325 800 353 800 c 0
 381 800 403 778 403 750 c 0x0420
297 750 m 0x0480
 297 722 275 700 247 700 c 0
 219 700 197 722 197 750 c 0
 197 778 219 800 247 800 c 0
 275 800 297 778 297 750 c 0x0480
190 750 m 0x06
 190 722 168 700 140 700 c 0
 112 700 90 722 90 750 c 0
 90 778 112 800 140 800 c 0
 168 800 190 778 190 750 c 0x06
EndSplineSet
EndChar

StartChar: semicolon
Encoding: 59 59 49
Width: 600
VWidth: 0
UnlinkRmOvrlpSave: 1
Flags: W
HStem: 200 100<98.4375 158.719> 283 100<174 215> 367 183<112.88 161.672 224.328 273.12> 617 100<98.4375 158.719 227.281 287.562> 780 20G<179 207>
VStem: 90 100<208.438 286.333 378.426 457.574 458.427 541.562 625.438 703.333> 143 100<296.667 371.574 713.425 791.562> 196 100<378.426 457.574 458.427 541.562 625.438 703.333>
LayerCount: 2
Back
Fore
SplineSet
190 250 m 0x5c
 190 222 168 200 140 200 c 0
 112 200 90 222 90 250 c 0x9c
 90 278 112 300 140 300 c 0
 147 300 153 298 159 296 c 1
 149 305 143 318 143 333 c 0x9a
 143 349 151 363 162 372 c 1
 155 369 148 367 140 367 c 0
 112 367 90 389 90 417 c 0
 90 434 99 449 112 458 c 1
 99 467 90 483 90 500 c 1
 90 528 112 550 140 550 c 0xbc
 168 550 190 528 190 500 c 0
 190 483 181 467 168 458 c 1
 181 449 190 434 190 417 c 1
 190 401 182 387 171 378 c 1
 178 381 185 383 193 383 c 0x5c
 201 383 208 381 215 378 c 1
 204 387 196 401 196 417 c 0
 196 434 205 449 218 458 c 1
 205 467 196 483 196 500 c 0
 196 528 218 550 246 550 c 0
 274 550 296 528 296 500 c 0
 296 483 287 467 274 458 c 1
 287 449 296 434 296 417 c 0x3d
 296 389 274 367 246 367 c 0
 238 367 231 369 224 372 c 1
 235 363 243 349 243 333 c 0x3a
 243 305 221 283 193 283 c 0
 186 283 180 285 174 287 c 1
 184 278 190 265 190 250 c 0x5c
296 667 m 0x19
 296 639 274 617 246 617 c 0
 218 617 196 639 196 667 c 0
 196 682 202 695 212 704 c 1
 206 702 200 700 193 700 c 0
 186 700 180 702 174 704 c 1
 184 695 190 682 190 667 c 0
 190 639 168 617 140 617 c 0
 112 617 90 639 90 667 c 0x1d
 90 695 112 717 140 717 c 0
 147 717 153 715 159 713 c 1
 149 722 143 735 143 750 c 0
 143 778 165 800 193 800 c 0
 221 800 243 778 243 750 c 0x1a
 243 735 237 722 227 713 c 1
 233 715 239 717 246 717 c 0
 274 717 296 695 296 667 c 0x19
EndSplineSet
EndChar

StartChar: question
Encoding: 63 63 50
Width: 600
VWidth: 0
UnlinkRmOvrlpSave: 1
Flags: W
HStem: 200 100<258.438 341.562> 533 100<365.438 428.672> 617 100<98.4375 158.719 441.285 501.562> 700 100<174.281 234.562 258.438 341.562 365.438 425.719>
VStem: 90 100<625.438 703.333> 143 100<713.667 791.562> 250 100<208.438 291.562 375.438 457.574 458.427 541.573 542.426 624.562 708.438 791.562> 357 100<541.438 621.574 713.667 791.562> 410 100<628.426 703.333>
LayerCount: 2
Back
Fore
SplineSet
350 250 m 0x82
 350 222 328 200 300 200 c 0
 272 200 250 222 250 250 c 0
 250 278 272 300 300 300 c 0
 328 300 350 278 350 250 c 0x82
350 417 m 0
 350 389 328 367 300 367 c 0
 272 367 250 389 250 417 c 0
 250 434 259 449 272 458 c 1
 259 467 250 483 250 500 c 1
 250 517 259 533 272 542 c 1
 259 551 250 566 250 583 c 0
 250 611 272 633 300 633 c 0xc2
 328 633 350 611 350 583 c 0
 350 566 341 551 328 542 c 1
 341 533 350 517 350 500 c 0
 350 483 341 467 328 458 c 1
 341 449 350 434 350 417 c 0
457 583 m 1xa3
 457 555 435 533 407 533 c 0
 379 533 357 555 357 583 c 0xc3
 357 611 379 633 407 633 c 0
 415 633 422 631 429 628 c 1
 418 637 410 651 410 667 c 1xc280
 410 682 416 695 426 704 c 1
 420 702 414 700 407 700 c 0
 379 700 357 722 357 750 c 0
 357 778 379 800 407 800 c 0
 435 800 457 778 457 750 c 0xd3
 457 735 451 722 441 713 c 1
 447 715 453 717 460 717 c 0
 488 717 510 695 510 667 c 0xa280
 510 639 488 617 460 617 c 0
 452 617 445 619 438 622 c 1
 449 613 457 599 457 583 c 1xa3
190 667 m 0x9a
 190 639 168 617 140 617 c 0
 112 617 90 639 90 667 c 0
 90 695 112 717 140 717 c 0xaa
 147 717 153 715 159 713 c 1
 149 722 143 735 143 750 c 0
 143 778 165 800 193 800 c 0
 221 800 243 778 243 750 c 0x96
 243 722 221 700 193 700 c 0
 186 700 180 702 174 704 c 1
 184 695 190 682 190 667 c 0x9a
350 750 m 0
 350 722 328 700 300 700 c 0
 272 700 250 722 250 750 c 0
 250 778 272 800 300 800 c 0x92
 328 800 350 778 350 750 c 0
EndSplineSet
EndChar

StartChar: Agrave
Encoding: 192 192 51
Width: 600
VWidth: 0
UnlinkRmOvrlpSave: 1
Flags: W
HStem: 200 183<112.88 161.672 438.328 487.12> 283 100<222.33 288.562 311.438 377.67> 367 100<171.328 213.718 386.282 428.672> 450 100<226.282 265.719 334.281 373.718> 533 100<281 322> 617 100<334.285 394.562> 700 100<258.438 318.719>
VStem: 90 100<208.438 291.573 292.426 371.574> 143 100<378.426 454.574> 197 100<291.438 373.574 462.426 536.333> 250 100<546.425 621.574 713.667 791.562> 303 100<291.438 373.574 462.426 536.333 628.426 703.333> 357 100<378.426 454.574> 410 100<208.438 291.573 292.426 371.574>
LayerCount: 2
Back
Fore
SplineSet
510 250 m 0x8004
 510 222 488 200 460 200 c 0x8004
 432 200 410 222 410 250 c 0
 410 267 419 283 432 292 c 1
 419 301 410 316 410 333 c 0
 410 349 418 363 429 372 c 1
 422 369 415 367 407 367 c 0x2004
 398 367 389 370 382 374 c 1
 395 365 403 350 403 333 c 1
 403 305 381 283 353 283 c 0
 325 283 303 305 303 333 c 0x4014
 303 361 325 383 353 383 c 0
 362 383 371 380 378 376 c 1
 365 385 357 400 357 417 c 1
 357 432 364 446 374 455 c 1
 368 452 361 450 353 450 c 0x5008
 325 450 303 472 303 500 c 0
 303 515 309 528 319 537 c 1
 313 535 307 533 300 533 c 0
 293 533 287 535 281 537 c 1
 291 528 297 515 297 500 c 0x0850
 297 472 275 450 247 450 c 0
 239 450 232 452 226 455 c 1
 236 446 243 432 243 417 c 1x1080
 243 400 235 385 222 376 c 1
 229 380 238 383 247 383 c 0
 275 383 297 361 297 333 c 0
 297 305 275 283 247 283 c 0x5040
 219 283 197 305 197 333 c 0
 197 350 205 365 218 374 c 1
 211 370 202 367 193 367 c 0x2040
 185 367 178 369 171 372 c 1
 182 363 190 349 190 333 c 0
 190 316 181 301 168 292 c 1
 181 283 190 267 190 250 c 1
 190 222 168 200 140 200 c 0
 112 200 90 222 90 250 c 0
 90 267 99 283 112 292 c 1
 99 301 90 316 90 333 c 1x8140
 90 361 112 383 140 383 c 0
 148 383 155 381 162 378 c 1
 151 387 143 401 143 417 c 0x8080
 143 445 165 467 193 467 c 0
 201 467 208 465 214 462 c 1
 204 471 197 485 197 500 c 1x2040
 197 528 219 550 247 550 c 0
 254 550 260 548 266 546 c 1
 256 555 250 568 250 583 c 0x1020
 250 611 272 633 300 633 c 0
 308 633 315 631 322 628 c 1
 311 637 303 651 303 667 c 1x0810
 303 682 309 695 319 704 c 1
 313 702 307 700 300 700 c 0
 272 700 250 722 250 750 c 0
 250 778 272 800 300 800 c 0
 328 800 350 778 350 750 c 0x0a20
 350 735 344 722 334 713 c 1
 340 715 346 717 353 717 c 0
 381 717 403 695 403 667 c 0x0410
 403 639 381 617 353 617 c 0
 345 617 338 619 331 622 c 1
 342 613 350 599 350 583 c 1x0420
 350 568 344 555 334 546 c 1
 340 548 346 550 353 550 c 0
 381 550 403 528 403 500 c 0x1410
 403 485 396 471 386 462 c 1
 392 465 399 467 407 467 c 0
 435 467 457 445 457 417 c 0x2008
 457 401 449 387 438 378 c 1
 445 381 452 383 460 383 c 0
 488 383 510 361 510 333 c 0
 510 316 501 301 488 292 c 1
 501 283 510 267 510 250 c 0x8004
EndSplineSet
EndChar

StartChar: C
Encoding: 67 67 52
Width: 600
VWidth: 0
UnlinkRmOvrlpSave: 1
Flags: W
HStem: 200 100<174.281 234.562 258.438 341.562 365.438 425.719> 283 100<441.281 501.562> 617 100<441.281 501.562> 700 100<174.281 234.562 258.438 341.562 365.438 425.719>
VStem: 90 100<296.667 374.139 375.861 457.574 458.427 541.573 542.426 624.139 625.861 703.333> 143 100<208.438 286.333 713.667 791.562> 250 100<208.438 291.562 708.438 791.562> 357 100<208.438 286.333 713.667 791.562> 410 100<296.667 374.562 625.438 703.333>
LayerCount: 2
Back
Fore
SplineSet
457 250 m 1x43
 457 222 435 200 407 200 c 0
 379 200 357 222 357 250 c 0
 357 278 379 300 407 300 c 0x83
 414 300 420 298 426 296 c 1
 416 305 410 318 410 333 c 1
 410 361 432 383 460 383 c 0
 488 383 510 361 510 333 c 0x4280
 510 305 488 283 460 283 c 0
 453 283 447 285 441 287 c 1
 451 278 457 265 457 250 c 1x43
350 250 m 0
 350 222 328 200 300 200 c 0
 272 200 250 222 250 250 c 0
 250 278 272 300 300 300 c 0
 328 300 350 278 350 250 c 0
243 250 m 0x96
 243 222 221 200 193 200 c 0
 165 200 143 222 143 250 c 0x96
 143 265 149 278 159 287 c 1
 153 285 147 283 140 283 c 0
 112 283 90 305 90 333 c 0
 90 351 99 366 113 375 c 1
 99 384 90 399 90 417 c 0
 90 434 99 449 112 458 c 1
 99 467 90 483 90 500 c 1
 90 517 99 533 112 542 c 1
 99 551 90 566 90 583 c 0
 90 601 99 616 113 625 c 1
 99 634 90 649 90 667 c 0
 90 695 112 717 140 717 c 0x6a
 147 717 153 715 159 713 c 1
 149 722 143 735 143 750 c 0
 143 778 165 800 193 800 c 0
 221 800 243 778 243 750 c 0x16
 243 722 221 700 193 700 c 0
 186 700 180 702 174 704 c 1
 184 695 190 682 190 667 c 0
 190 649 181 634 167 625 c 1
 181 616 190 601 190 583 c 0
 190 566 181 551 168 542 c 1
 181 533 190 517 190 500 c 0
 190 483 181 467 168 458 c 1
 181 449 190 434 190 417 c 1
 190 399 181 384 167 375 c 1
 181 366 190 351 190 333 c 0x1a
 190 318 184 305 174 296 c 1
 180 298 186 300 193 300 c 0
 221 300 243 278 243 250 c 0x96
510 667 m 0x2280
 510 639 488 617 460 617 c 0
 432 617 410 639 410 667 c 0x2280
 410 682 416 695 426 704 c 1
 420 702 414 700 407 700 c 0
 379 700 357 722 357 750 c 0
 357 778 379 800 407 800 c 0
 435 800 457 778 457 750 c 0x13
 457 735 451 722 441 713 c 1
 447 715 453 717 460 717 c 0
 488 717 510 695 510 667 c 0x2280
350 750 m 0
 350 722 328 700 300 700 c 0
 272 700 250 722 250 750 c 0
 250 778 272 800 300 800 c 0x12
 328 800 350 778 350 750 c 0
EndSplineSet
EndChar

StartChar: Adieresis
Encoding: 196 196 53
Width: 600
VWidth: 0
UnlinkRmOvrlpSave: 1
Flags: W
HStem: 200 21G<126 154 446 474> 200 21G<126 154 446 474> 367 100<226.282 288.562 311.438 373.718> 450 100<174.281 213.718 386.282 425.719> 533 100<226.282 268.672 331.328 373.718> 617 100<278.328 321.672> 700 100<151.438 234.562 365.438 448.562>
VStem: 90 100<208.438 291.573 292.426 374.139 375.861 453.333> 143 100<463.425 537.574 708.438 791.562> 197 100<375.438 454.574 545.426 621.574> 250 100<628.426 708.562> 303 100<375.438 454.574 545.426 621.574> 357 100<463.425 537.574 708.438 791.562> 410 100<208.438 291.573 292.426 374.139 375.861 453.333>
LayerCount: 2
Back
Fore
SplineSet
510 250 m 0x2004
 510 222 488 200 460 200 c 0
 432 200 410 222 410 250 c 0
 410 267 419 283 432 292 c 1
 419 301 410 316 410 333 c 0
 410 351 419 366 433 375 c 1
 419 384 410 399 410 417 c 1
 410 432 416 445 426 454 c 1
 420 452 414 450 407 450 c 0x9004
 399 450 392 452 386 455 c 1
 396 446 403 432 403 417 c 0
 403 389 381 367 353 367 c 0
 325 367 303 389 303 417 c 0x2014
 303 445 325 467 353 467 c 0
 361 467 368 465 374 462 c 1
 364 471 357 485 357 500 c 0
 357 515 364 529 374 538 c 1
 368 535 361 533 353 533 c 0x2808
 325 533 303 555 303 583 c 0
 303 599 311 613 322 622 c 1
 315 619 308 617 300 617 c 0
 292 617 285 619 278 622 c 1
 289 613 297 599 297 583 c 1x0450
 297 555 275 533 247 533 c 0
 239 533 232 535 226 538 c 1
 236 529 243 515 243 500 c 1x0880
 243 485 236 471 226 462 c 1
 232 465 239 467 247 467 c 0
 275 467 297 445 297 417 c 0
 297 389 275 367 247 367 c 0x2840
 219 367 197 389 197 417 c 0
 197 432 204 446 214 455 c 1
 208 452 201 450 193 450 c 0x1040
 186 450 180 452 174 454 c 1
 184 445 190 432 190 417 c 0
 190 399 181 384 167 375 c 1
 181 366 190 351 190 333 c 0
 190 316 181 301 168 292 c 1
 181 283 190 267 190 250 c 1
 190 222 168 200 140 200 c 0
 112 200 90 222 90 250 c 0
 90 267 99 283 112 292 c 1
 99 301 90 316 90 333 c 1
 90 351 99 366 113 375 c 1
 99 384 90 399 90 417 c 0
 90 445 112 467 140 467 c 0xa140
 147 467 153 465 159 463 c 1
 149 472 143 485 143 500 c 0
 143 528 165 550 193 550 c 0x1080
 201 550 208 548 214 545 c 1
 204 554 197 568 197 583 c 1
 197 611 219 633 247 633 c 0x0840
 255 633 262 631 269 628 c 1
 258 637 250 651 250 667 c 1
 250 695 272 717 300 717 c 0
 328 717 350 695 350 667 c 0x0420
 350 651 342 637 331 628 c 1
 338 631 345 633 353 633 c 0
 381 633 403 611 403 583 c 0x0810
 403 568 396 554 386 545 c 1
 392 548 399 550 407 550 c 0
 435 550 457 528 457 500 c 0x1008
 457 485 451 472 441 463 c 1
 447 465 453 467 460 467 c 0
 488 467 510 445 510 417 c 0
 510 399 501 384 487 375 c 1
 501 366 510 351 510 333 c 1
 510 316 501 301 488 292 c 1
 501 283 510 267 510 250 c 0x2004
457 750 m 0x0208
 457 722 435 700 407 700 c 0
 379 700 357 722 357 750 c 0
 357 778 379 800 407 800 c 0
 435 800 457 778 457 750 c 0x0208
243 750 m 0x0280
 243 722 221 700 193 700 c 0
 165 700 143 722 143 750 c 0
 143 778 165 800 193 800 c 0
 221 800 243 778 243 750 c 0x0280
EndSplineSet
EndChar

StartChar: G
Encoding: 71 71 54
Width: 600
VWidth: 0
UnlinkRmOvrlpSave: 1
Flags: W
HStem: 200 100<174.281 234.562 258.438 341.562 365.438 425.719> 450 100<311.438 394.562> 617 100<441.281 501.562> 700 100<174.281 234.562 258.438 341.562 365.438 425.719>
VStem: 90 100<296.667 374.139 375.861 457.574 458.427 541.573 542.426 624.139 625.861 703.333> 143 100<208.438 286.333 713.667 791.562> 250 100<208.438 291.562 708.438 791.562> 303 100<458.438 541.562> 357 100<208.438 286.333 713.667 791.562> 410 100<296.667 374.139 375.861 457.574 458.427 541.562 625.438 703.333>
LayerCount: 2
Back
Fore
SplineSet
457 250 m 1xc080
 457 222 435 200 407 200 c 0
 379 200 357 222 357 250 c 0xc080
 357 278 379 300 407 300 c 0
 414 300 420 298 426 296 c 1
 416 305 410 318 410 333 c 1
 410 351 419 366 433 375 c 1
 419 384 410 399 410 417 c 1
 410 434 419 449 432 458 c 1
 419 467 410 483 410 500 c 0
 410 528 432 550 460 550 c 0
 488 550 510 528 510 500 c 0
 510 483 501 467 488 458 c 1
 501 449 510 434 510 417 c 0
 510 399 501 384 487 375 c 1
 501 366 510 351 510 333 c 1xc040
 510 305 488 283 460 283 c 0
 453 283 447 285 441 287 c 1
 451 278 457 265 457 250 c 1xc080
350 250 m 0xc2
 350 222 328 200 300 200 c 0
 272 200 250 222 250 250 c 0
 250 278 272 300 300 300 c 0
 328 300 350 278 350 250 c 0xc2
243 250 m 0xd4
 243 222 221 200 193 200 c 0
 165 200 143 222 143 250 c 0xd4
 143 265 149 278 159 287 c 1
 153 285 147 283 140 283 c 0
 112 283 90 305 90 333 c 0
 90 351 99 366 113 375 c 1
 99 384 90 399 90 417 c 0
 90 434 99 449 112 458 c 1
 99 467 90 483 90 500 c 1
 90 517 99 533 112 542 c 1
 99 551 90 566 90 583 c 0
 90 601 99 616 113 625 c 1
 99 634 90 649 90 667 c 0
 90 695 112 717 140 717 c 0xe8
 147 717 153 715 159 713 c 1
 149 722 143 735 143 750 c 0
 143 778 165 800 193 800 c 0
 221 800 243 778 243 750 c 0xd4
 243 722 221 700 193 700 c 0
 186 700 180 702 174 704 c 1
 184 695 190 682 190 667 c 0
 190 649 181 634 167 625 c 1
 181 616 190 601 190 583 c 0
 190 566 181 551 168 542 c 1
 181 533 190 517 190 500 c 0
 190 483 181 467 168 458 c 1
 181 449 190 434 190 417 c 1
 190 399 181 384 167 375 c 1
 181 366 190 351 190 333 c 0xd8
 190 318 184 305 174 296 c 1
 180 298 186 300 193 300 c 0
 221 300 243 278 243 250 c 0xd4
403 500 m 0xc1
 403 472 381 450 353 450 c 0
 325 450 303 472 303 500 c 0
 303 528 325 550 353 550 c 0
 381 550 403 528 403 500 c 0xc1
510 667 m 0xe040
 510 639 488 617 460 617 c 0
 432 617 410 639 410 667 c 0xe040
 410 682 416 695 426 704 c 1
 420 702 414 700 407 700 c 0
 379 700 357 722 357 750 c 0
 357 778 379 800 407 800 c 0
 435 800 457 778 457 750 c 0xd080
 457 735 451 722 441 713 c 1
 447 715 453 717 460 717 c 0
 488 717 510 695 510 667 c 0xe040
350 750 m 0xd2
 350 722 328 700 300 700 c 0
 272 700 250 722 250 750 c 0
 250 778 272 800 300 800 c 0
 328 800 350 778 350 750 c 0xd2
EndSplineSet
EndChar

StartChar: Egrave
Encoding: 200 200 55
Width: 600
VWidth: 0
UnlinkRmOvrlpSave: 1
Flags: W
HStem: 200 100<205.438 288.562 311.438 394.562 418.438 501.562> 367 100<205.438 288.562 311.438 394.562> 533 100<205.438 288.562 418.438 501.562> 700 100<258.438 318.719>
VStem: 90 100<208.438 291.573 292.426 374.139 375.861 457.574 458.427 541.573 542.426 624.562> 197 100<208.438 291.562 375.438 458.562 541.438 624.562> 250 100<713.667 791.562> 303 100<208.438 291.562 375.438 458.562 541.438 624.139 625.861 703.333> 410 100<208.438 291.562 541.438 624.562>
LayerCount: 2
Back
Fore
SplineSet
510 250 m 0xf880
 510 222 488 200 460 200 c 0
 432 200 410 222 410 250 c 0
 410 278 432 300 460 300 c 0
 488 300 510 278 510 250 c 0xf880
403 250 m 0xf980
 403 222 381 200 353 200 c 0
 325 200 303 222 303 250 c 0
 303 278 325 300 353 300 c 0
 381 300 403 278 403 250 c 0xf980
297 250 m 0xfc80
 297 222 275 200 247 200 c 0
 219 200 197 222 197 250 c 0
 197 278 219 300 247 300 c 0
 275 300 297 278 297 250 c 0xfc80
190 250 m 1
 190 222 168 200 140 200 c 0
 112 200 90 222 90 250 c 0
 90 267 99 283 112 292 c 1
 99 301 90 316 90 333 c 1
 90 351 99 366 113 375 c 1
 99 384 90 399 90 417 c 0
 90 434 99 449 112 458 c 1
 99 467 90 483 90 500 c 1
 90 517 99 533 112 542 c 1
 99 551 90 566 90 583 c 0
 90 611 112 633 140 633 c 0
 168 633 190 611 190 583 c 0
 190 566 181 551 168 542 c 1
 181 533 190 517 190 500 c 0
 190 483 181 467 168 458 c 1
 181 449 190 434 190 417 c 1
 190 399 181 384 167 375 c 1
 181 366 190 351 190 333 c 0
 190 316 181 301 168 292 c 1
 181 283 190 267 190 250 c 1
403 417 m 0xf980
 403 389 381 367 353 367 c 0
 325 367 303 389 303 417 c 0
 303 445 325 467 353 467 c 0
 381 467 403 445 403 417 c 0xf980
297 417 m 0xfc80
 297 389 275 367 247 367 c 0
 219 367 197 389 197 417 c 0
 197 445 219 467 247 467 c 0
 275 467 297 445 297 417 c 0xfc80
510 583 m 0
 510 555 488 533 460 533 c 0
 432 533 410 555 410 583 c 0
 410 611 432 633 460 633 c 0
 488 633 510 611 510 583 c 0
403 583 m 0xf980
 403 555 381 533 353 533 c 0
 325 533 303 555 303 583 c 0
 303 601 312 616 326 625 c 1
 312 634 303 649 303 667 c 0xf980
 303 682 309 695 319 704 c 1
 313 702 307 700 300 700 c 0
 272 700 250 722 250 750 c 0
 250 778 272 800 300 800 c 0
 328 800 350 778 350 750 c 0xfa80
 350 735 344 722 334 713 c 1
 340 715 346 717 353 717 c 0
 381 717 403 695 403 667 c 0
 403 649 394 634 380 625 c 1
 394 616 403 601 403 583 c 0xf980
297 583 m 0xfc80
 297 555 275 533 247 533 c 0
 219 533 197 555 197 583 c 0
 197 611 219 633 247 633 c 0
 275 633 297 611 297 583 c 0xfc80
EndSplineSet
EndChar

StartChar: K
Encoding: 75 75 56
Width: 600
VWidth: 0
UnlinkRmOvrlpSave: 1
Flags: W
HStem: 200 100<441.281 501.562> 200 21G<126 154> 283 100<382.33 425.719> 367 100<334.281 377.67> 533 100<205.438 265.719> 617 100<311.438 394.562> 700 100<418.438 501.562>
VStem: 90 100<208.438 291.573 292.426 374.139 375.861 457.574 458.427 541.573 542.426 624.139 625.861 707.574 708.427 791.562> 197 100<546.667 624.562> 250 100<463.667 536.333> 303 100<376.426 453.333 625.438 708.562> 357 100<296.667 373.574> 410 100<208.438 286.333 708.438 791.562>
LayerCount: 2
Back
Fore
SplineSet
510 250 m 0x8108
 510 222 488 200 460 200 c 0
 432 200 410 222 410 250 c 0x8108
 410 265 416 278 426 287 c 1
 420 285 414 283 407 283 c 0
 379 283 357 305 357 333 c 0x2110
 357 350 365 365 378 374 c 1
 371 370 362 367 353 367 c 0
 325 367 303 389 303 417 c 0x1120
 303 432 309 445 319 454 c 1
 313 452 307 450 300 450 c 0
 272 450 250 472 250 500 c 0x1140
 250 515 256 528 266 537 c 1
 260 535 254 533 247 533 c 0
 219 533 197 555 197 583 c 0
 197 611 219 633 247 633 c 0
 275 633 297 611 297 583 c 0x1980
 297 568 291 555 281 546 c 1
 287 548 293 550 300 550 c 0
 328 550 350 528 350 500 c 0x1940
 350 485 344 472 334 463 c 1
 340 465 346 467 353 467 c 0
 381 467 403 445 403 417 c 0x1920
 403 400 395 385 382 376 c 1
 389 380 398 383 407 383 c 0
 435 383 457 361 457 333 c 0x2110
 457 318 451 305 441 296 c 1
 447 298 453 300 460 300 c 0
 488 300 510 278 510 250 c 0x8108
190 250 m 1
 190 222 168 200 140 200 c 0
 112 200 90 222 90 250 c 0
 90 267 99 283 112 292 c 1
 99 301 90 316 90 333 c 1
 90 351 99 366 113 375 c 1
 99 384 90 399 90 417 c 0
 90 434 99 449 112 458 c 1
 99 467 90 483 90 500 c 1
 90 517 99 533 112 542 c 1
 99 551 90 566 90 583 c 0
 90 601 99 616 113 625 c 1
 99 634 90 649 90 667 c 0
 90 684 99 699 112 708 c 1
 99 717 90 733 90 750 c 0
 90 778 112 800 140 800 c 0x43
 168 800 190 778 190 750 c 0
 190 733 181 717 168 708 c 1
 181 699 190 684 190 667 c 0
 190 649 181 634 167 625 c 1
 181 616 190 601 190 583 c 0
 190 566 181 551 168 542 c 1
 181 533 190 517 190 500 c 0
 190 483 181 467 168 458 c 1
 181 449 190 434 190 417 c 1
 190 399 181 384 167 375 c 1
 181 366 190 351 190 333 c 0
 190 316 181 301 168 292 c 1
 181 283 190 267 190 250 c 1
403 667 m 0x0520
 403 639 381 617 353 617 c 0
 325 617 303 639 303 667 c 0
 303 695 325 717 353 717 c 0
 381 717 403 695 403 667 c 0x0520
510 750 m 0x0308
 510 722 488 700 460 700 c 0
 432 700 410 722 410 750 c 0
 410 778 432 800 460 800 c 0
 488 800 510 778 510 750 c 0x0308
EndSplineSet
EndChar

StartChar: O
Encoding: 79 79 57
Width: 600
VWidth: 0
UnlinkRmOvrlpSave: 1
Flags: W
HStem: 200 100<174.281 234.562 258.438 341.562 365.438 425.719> 700 100<174.281 234.562 258.438 341.562 365.438 425.719>
VStem: 90 100<296.667 374.139 375.861 457.574 458.427 541.573 542.426 624.139 625.861 703.333> 143 100<208.438 286.333 713.667 791.562> 250 100<208.438 291.562 708.438 791.562> 357 100<208.438 286.333 713.667 791.562> 410 100<296.667 374.139 375.861 457.574 458.427 541.573 542.426 624.139 625.861 703.333>
LayerCount: 2
Back
Fore
SplineSet
457 250 m 1xcc
 457 222 435 200 407 200 c 0
 379 200 357 222 357 250 c 0xcc
 357 278 379 300 407 300 c 0
 414 300 420 298 426 296 c 1
 416 305 410 318 410 333 c 1
 410 351 419 366 433 375 c 1
 419 384 410 399 410 417 c 1
 410 434 419 449 432 458 c 1
 419 467 410 483 410 500 c 0
 410 517 419 533 432 542 c 1
 419 551 410 566 410 583 c 0
 410 601 419 616 433 625 c 1
 419 634 410 649 410 667 c 0xca
 410 682 416 695 426 704 c 1
 420 702 414 700 407 700 c 0
 379 700 357 722 357 750 c 0
 357 778 379 800 407 800 c 0
 435 800 457 778 457 750 c 0xcc
 457 735 451 722 441 713 c 1
 447 715 453 717 460 717 c 0
 488 717 510 695 510 667 c 0
 510 649 501 634 487 625 c 1
 501 616 510 601 510 583 c 0
 510 566 501 551 488 542 c 1
 501 533 510 517 510 500 c 0
 510 483 501 467 488 458 c 1
 501 449 510 434 510 417 c 0
 510 399 501 384 487 375 c 1
 501 366 510 351 510 333 c 1xca
 510 305 488 283 460 283 c 0
 453 283 447 285 441 287 c 1
 451 278 457 265 457 250 c 1xcc
350 250 m 0
 350 222 328 200 300 200 c 0
 272 200 250 222 250 250 c 0
 250 278 272 300 300 300 c 0
 328 300 350 278 350 250 c 0
243 250 m 0xd8
 243 222 221 200 193 200 c 0
 165 200 143 222 143 250 c 0xd8
 143 265 149 278 159 287 c 1
 153 285 147 283 140 283 c 0
 112 283 90 305 90 333 c 0
 90 351 99 366 113 375 c 1
 99 384 90 399 90 417 c 0
 90 434 99 449 112 458 c 1
 99 467 90 483 90 500 c 1
 90 517 99 533 112 542 c 1
 99 551 90 566 90 583 c 0
 90 601 99 616 113 625 c 1
 99 634 90 649 90 667 c 0xe8
 90 695 112 717 140 717 c 0
 147 717 153 715 159 713 c 1
 149 722 143 735 143 750 c 0
 143 778 165 800 193 800 c 0
 221 800 243 778 243 750 c 0xd8
 243 722 221 700 193 700 c 0
 186 700 180 702 174 704 c 1
 184 695 190 682 190 667 c 0
 190 649 181 634 167 625 c 1
 181 616 190 601 190 583 c 0
 190 566 181 551 168 542 c 1
 181 533 190 517 190 500 c 0
 190 483 181 467 168 458 c 1
 181 449 190 434 190 417 c 1
 190 399 181 384 167 375 c 1
 181 366 190 351 190 333 c 0xe8
 190 318 184 305 174 296 c 1
 180 298 186 300 193 300 c 0
 221 300 243 278 243 250 c 0xd8
350 750 m 0
 350 722 328 700 300 700 c 0
 272 700 250 722 250 750 c 0
 250 778 272 800 300 800 c 0
 328 800 350 778 350 750 c 0
EndSplineSet
EndChar

StartChar: S
Encoding: 83 83 58
Width: 600
VWidth: 0
UnlinkRmOvrlpSave: 1
Flags: W
HStem: 200 100<174.281 234.562 258.438 341.562 365.438 425.719> 283 100<98.4375 158.719> 450 100<174.281 234.562 258.438 341.562 365.438 425.719> 617 100<441.281 501.562> 700 100<174.281 234.562 258.438 341.562 365.438 425.719>
VStem: 90 100<296.667 374.562 546.667 624.139 625.861 703.333> 143 100<208.438 286.333 458.438 536.333 713.667 791.562> 250 100<208.438 291.562 458.438 541.562 708.438 791.562> 357 100<208.438 286.333 463.667 541.562 713.667 791.562> 410 100<296.667 374.139 375.861 453.333 625.438 703.333>
LayerCount: 2
Back
Fore
SplineSet
457 250 m 1x6180
 457 222 435 200 407 200 c 0
 379 200 357 222 357 250 c 0xa180
 357 278 379 300 407 300 c 0
 414 300 420 298 426 296 c 1
 416 305 410 318 410 333 c 1
 410 351 419 366 433 375 c 1
 419 384 410 399 410 417 c 1xa140
 410 432 416 445 426 454 c 1
 420 452 414 450 407 450 c 0
 379 450 357 472 357 500 c 0
 357 528 379 550 407 550 c 0
 435 550 457 528 457 500 c 0xa180
 457 485 451 472 441 463 c 1
 447 465 453 467 460 467 c 0
 488 467 510 445 510 417 c 0
 510 399 501 384 487 375 c 1
 501 366 510 351 510 333 c 1xa140
 510 305 488 283 460 283 c 0
 453 283 447 285 441 287 c 1
 451 278 457 265 457 250 c 1x6180
350 250 m 0
 350 222 328 200 300 200 c 0
 272 200 250 222 250 250 c 0
 250 278 272 300 300 300 c 0
 328 300 350 278 350 250 c 0
243 250 m 0xa3
 243 222 221 200 193 200 c 0
 165 200 143 222 143 250 c 0xa3
 143 265 149 278 159 287 c 1
 153 285 147 283 140 283 c 0
 112 283 90 305 90 333 c 0
 90 361 112 383 140 383 c 0
 168 383 190 361 190 333 c 0x65
 190 318 184 305 174 296 c 1
 180 298 186 300 193 300 c 0
 221 300 243 278 243 250 c 0xa3
350 500 m 0
 350 472 328 450 300 450 c 0
 272 450 250 472 250 500 c 0
 250 528 272 550 300 550 c 0
 328 550 350 528 350 500 c 0
243 500 m 0
 243 472 221 450 193 450 c 0
 165 450 143 472 143 500 c 0x2b
 143 515 149 528 159 537 c 1
 153 535 147 533 140 533 c 0
 112 533 90 555 90 583 c 0
 90 601 99 616 113 625 c 1
 99 634 90 649 90 667 c 0
 90 695 112 717 140 717 c 0x35
 147 717 153 715 159 713 c 1
 149 722 143 735 143 750 c 0
 143 778 165 800 193 800 c 0
 221 800 243 778 243 750 c 0x2b
 243 722 221 700 193 700 c 0
 186 700 180 702 174 704 c 1
 184 695 190 682 190 667 c 0
 190 649 181 634 167 625 c 1
 181 616 190 601 190 583 c 0x2d
 190 568 184 555 174 546 c 1
 180 548 186 550 193 550 c 0
 221 550 243 528 243 500 c 0
510 667 m 0x3140
 510 639 488 617 460 617 c 0
 432 617 410 639 410 667 c 0x3140
 410 682 416 695 426 704 c 1
 420 702 414 700 407 700 c 0
 379 700 357 722 357 750 c 0
 357 778 379 800 407 800 c 0
 435 800 457 778 457 750 c 0x2980
 457 735 451 722 441 713 c 1
 447 715 453 717 460 717 c 0
 488 717 510 695 510 667 c 0x3140
350 750 m 0
 350 722 328 700 300 700 c 0
 272 700 250 722 250 750 c 0
 250 778 272 800 300 800 c 0x29
 328 800 350 778 350 750 c 0
EndSplineSet
EndChar

StartChar: W
Encoding: 87 87 59
Width: 600
VWidth: 0
UnlinkRmOvrlpSave: 1
Flags: W
HStem: 200 100<174.281 213.718 386.282 425.719> 283 100<226.282 268.672 331.328 373.718> 780 20G<126 154 446 474>
VStem: 90 100<296.667 374.139 375.861 457.574 458.427 541.573 542.426 624.139 625.861 707.574 708.427 791.562> 143 100<208.438 286.575> 197 100<295.426 371.574> 250 100<378.426 457.574 458.427 541.562> 303 100<295.426 371.574> 357 100<208.438 286.575> 410 100<296.667 374.139 375.861 457.574 458.427 541.573 542.426 624.139 625.861 707.574 708.427 791.562>
LayerCount: 2
Back
Fore
SplineSet
457 250 m 1x6080
 457 222 435 200 407 200 c 0
 379 200 357 222 357 250 c 0xa080
 357 265 364 279 374 288 c 1
 368 285 361 283 353 283 c 0
 325 283 303 305 303 333 c 0
 303 349 311 363 322 372 c 1
 315 369 308 367 300 367 c 0
 292 367 285 369 278 372 c 1
 289 363 297 349 297 333 c 0
 297 305 275 283 247 283 c 0x65
 239 283 232 285 226 288 c 1
 236 279 243 265 243 250 c 1
 243 222 221 200 193 200 c 0xa8
 165 200 143 222 143 250 c 0
 143 265 149 278 159 287 c 1
 153 285 147 283 140 283 c 0x68
 112 283 90 305 90 333 c 0
 90 351 99 366 113 375 c 1
 99 384 90 399 90 417 c 0
 90 434 99 449 112 458 c 1
 99 467 90 483 90 500 c 1
 90 517 99 533 112 542 c 1
 99 551 90 566 90 583 c 0
 90 601 99 616 113 625 c 1
 99 634 90 649 90 667 c 0
 90 684 99 699 112 708 c 1
 99 717 90 733 90 750 c 0
 90 778 112 800 140 800 c 0
 168 800 190 778 190 750 c 0
 190 733 181 717 168 708 c 1
 181 699 190 684 190 667 c 0
 190 649 181 634 167 625 c 1
 181 616 190 601 190 583 c 0
 190 566 181 551 168 542 c 1
 181 533 190 517 190 500 c 0
 190 483 181 467 168 458 c 1
 181 449 190 434 190 417 c 1
 190 399 181 384 167 375 c 1
 181 366 190 351 190 333 c 0
 190 318 184 305 174 296 c 1
 180 298 186 300 193 300 c 0
 201 300 208 298 214 295 c 1
 204 304 197 318 197 333 c 1xb4
 197 361 219 383 247 383 c 0
 255 383 262 381 269 378 c 1
 258 387 250 401 250 417 c 0
 250 434 259 449 272 458 c 1
 259 467 250 483 250 500 c 1
 250 528 272 550 300 550 c 0
 328 550 350 528 350 500 c 0
 350 483 341 467 328 458 c 1
 341 449 350 434 350 417 c 0
 350 401 342 387 331 378 c 1
 338 381 345 383 353 383 c 0x62
 381 383 403 361 403 333 c 0
 403 318 396 304 386 295 c 1
 392 298 399 300 407 300 c 0
 414 300 420 298 426 296 c 1
 416 305 410 318 410 333 c 1
 410 351 419 366 433 375 c 1
 419 384 410 399 410 417 c 1
 410 434 419 449 432 458 c 1
 419 467 410 483 410 500 c 0
 410 517 419 533 432 542 c 1
 419 551 410 566 410 583 c 0
 410 601 419 616 433 625 c 1
 419 634 410 649 410 667 c 0
 410 684 419 699 432 708 c 1
 419 717 410 733 410 750 c 0
 410 778 432 800 460 800 c 0
 488 800 510 778 510 750 c 0
 510 733 501 717 488 708 c 1
 501 699 510 684 510 667 c 0
 510 649 501 634 487 625 c 1
 501 616 510 601 510 583 c 0
 510 566 501 551 488 542 c 1
 501 533 510 517 510 500 c 0
 510 483 501 467 488 458 c 1
 501 449 510 434 510 417 c 0
 510 399 501 384 487 375 c 1
 501 366 510 351 510 333 c 1xa140
 510 305 488 283 460 283 c 0
 453 283 447 285 441 287 c 1
 451 278 457 265 457 250 c 1x6080
EndSplineSet
EndChar

StartChar: Oslash
Encoding: 216 216 60
Width: 600
VWidth: 0
UnlinkRmOvrlpSave: 1
Flags: W
HStem: 200 100<226.282 288.562 311.438 373.718> 283 100<171.328 213.718 386.282 428.672> 367 100<222.33 265.719> 450 100<281 319> 533 100<334.281 377.67> 617 100<171.328 213.718 386.282 428.672> 700 100<226.282 288.562 311.438 373.718>
VStem: 90 100<378.426 457.574 458.427 541.573 542.426 621.574> 143 100<295.426 371.574 628.426 704.574> 197 100<208.438 287.574 376.426 453.333 712.426 791.562> 250 100<463.667 536.333> 303 100<208.438 287.574 546.667 623.574 712.426 791.562> 357 100<295.426 371.574 628.426 704.574> 410 100<378.426 457.574 458.427 541.573 542.426 621.574>
LayerCount: 2
Back
Fore
SplineSet
403 250 m 0x4010
 403 222 381 200 353 200 c 0
 325 200 303 222 303 250 c 0x8010
 303 278 325 300 353 300 c 0
 361 300 368 298 374 295 c 1
 364 304 357 318 357 333 c 0x8008
 357 361 379 383 407 383 c 0
 415 383 422 381 429 378 c 1
 418 387 410 401 410 417 c 0
 410 434 419 449 432 458 c 1
 419 467 410 483 410 500 c 0
 410 517 419 533 432 542 c 1
 419 551 410 566 410 583 c 0
 410 599 418 613 429 622 c 1
 422 619 415 617 407 617 c 0
 398 617 389 620 382 624 c 1
 395 615 403 600 403 583 c 1x4414
 403 555 381 533 353 533 c 0
 346 533 340 535 334 537 c 1
 344 528 350 515 350 500 c 1x0820
 350 472 328 450 300 450 c 0
 293 450 287 452 281 454 c 1
 291 445 297 432 297 417 c 0x1040
 297 389 275 367 247 367 c 0
 238 367 229 370 222 374 c 1
 235 365 243 350 243 333 c 0x2080
 243 318 236 304 226 295 c 1
 232 298 239 300 247 300 c 0
 275 300 297 278 297 250 c 0
 297 222 275 200 247 200 c 0
 219 200 197 222 197 250 c 0xa040
 197 265 204 279 214 288 c 1
 208 285 201 283 193 283 c 0
 165 283 143 305 143 333 c 0x4080
 143 349 151 363 162 372 c 1
 155 369 148 367 140 367 c 0
 112 367 90 389 90 417 c 0
 90 434 99 449 112 458 c 1
 99 467 90 483 90 500 c 1
 90 517 99 533 112 542 c 1
 99 551 90 566 90 583 c 0
 90 611 112 633 140 633 c 0x29
 148 633 155 631 162 628 c 1
 151 637 143 651 143 667 c 1
 143 695 165 717 193 717 c 0x0480
 201 717 208 715 214 712 c 1
 204 721 197 735 197 750 c 1
 197 778 219 800 247 800 c 0
 275 800 297 778 297 750 c 0x0240
 297 722 275 700 247 700 c 0
 239 700 232 702 226 705 c 1
 236 696 243 682 243 667 c 1x0280
 243 639 221 617 193 617 c 0
 185 617 178 619 171 622 c 1
 182 613 190 599 190 583 c 1
 190 566 181 551 168 542 c 1
 181 533 190 517 190 500 c 0
 190 483 181 467 168 458 c 1
 181 449 190 434 190 417 c 1
 190 401 182 387 171 378 c 1
 178 381 185 383 193 383 c 0
 202 383 211 380 218 376 c 1
 205 385 197 400 197 417 c 0x4540
 197 445 219 467 247 467 c 0
 254 467 260 465 266 463 c 1
 256 472 250 485 250 500 c 0x2020
 250 528 272 550 300 550 c 0
 307 550 313 548 319 546 c 1
 309 555 303 568 303 583 c 1x1010
 303 611 325 633 353 633 c 0
 362 633 371 630 378 626 c 1
 365 635 357 650 357 667 c 1x0808
 357 682 364 696 374 705 c 1
 368 702 361 700 353 700 c 0
 325 700 303 722 303 750 c 0
 303 778 325 800 353 800 c 0
 381 800 403 778 403 750 c 0x0a10
 403 735 396 721 386 712 c 1
 392 715 399 717 407 717 c 0
 435 717 457 695 457 667 c 0x0408
 457 651 449 637 438 628 c 1
 445 631 452 633 460 633 c 0
 488 633 510 611 510 583 c 0
 510 566 501 551 488 542 c 1
 501 533 510 517 510 500 c 0
 510 483 501 467 488 458 c 1
 501 449 510 434 510 417 c 0x0804
 510 389 488 367 460 367 c 0
 452 367 445 369 438 372 c 1
 449 363 457 349 457 333 c 0x2808
 457 305 435 283 407 283 c 0
 399 283 392 285 386 288 c 1
 396 279 403 265 403 250 c 0x4010
EndSplineSet
EndChar

StartChar: bracketleft
Encoding: 91 91 61
Width: 600
VWidth: 0
UnlinkRmOvrlpSave: 1
Flags: W
HStem: 200 100<205.438 288.562 312.438 395.562> 700 100<205.438 288.562 312.438 395.562>
VStem: 90 100<208.438 291.573 292.426 374.139 375.861 457.574 458.427 541.573 542.426 624.139 625.861 707.574 708.427 791.562> 197 100<208.438 291.562 708.438 791.562> 304 100<208.438 291.562 708.438 791.562>
CounterMasks: 1 38
LayerCount: 2
Back
Fore
SplineSet
404 250 m 0
 404 222 382 200 354 200 c 0
 326 200 304 222 304 250 c 0
 304 278 326 300 354 300 c 0
 382 300 404 278 404 250 c 0
297 250 m 0
 297 222 275 200 247 200 c 0
 219 200 197 222 197 250 c 0
 197 278 219 300 247 300 c 0
 275 300 297 278 297 250 c 0
190 250 m 1
 190 222 168 200 140 200 c 0
 112 200 90 222 90 250 c 0
 90 267 99 283 112 292 c 1
 99 301 90 316 90 333 c 1
 90 351 99 366 113 375 c 1
 99 384 90 399 90 417 c 0
 90 434 99 449 112 458 c 1
 99 467 90 483 90 500 c 1
 90 517 99 533 112 542 c 1
 99 551 90 566 90 583 c 0
 90 601 99 616 113 625 c 1
 99 634 90 649 90 667 c 0
 90 684 99 699 112 708 c 1
 99 717 90 733 90 750 c 0
 90 778 112 800 140 800 c 0
 168 800 190 778 190 750 c 0
 190 733 181 717 168 708 c 1
 181 699 190 684 190 667 c 0
 190 649 181 634 167 625 c 1
 181 616 190 601 190 583 c 0
 190 566 181 551 168 542 c 1
 181 533 190 517 190 500 c 0
 190 483 181 467 168 458 c 1
 181 449 190 434 190 417 c 1
 190 399 181 384 167 375 c 1
 181 366 190 351 190 333 c 0
 190 316 181 301 168 292 c 1
 181 283 190 267 190 250 c 1
404 750 m 0
 404 722 382 700 354 700 c 0
 326 700 304 722 304 750 c 0
 304 778 326 800 354 800 c 0
 382 800 404 778 404 750 c 0
297 750 m 0
 297 722 275 700 247 700 c 0
 219 700 197 722 197 750 c 0
 197 778 219 800 247 800 c 0
 275 800 297 778 297 750 c 0
EndSplineSet
EndChar

StartChar: Udieresis
Encoding: 220 220 62
Width: 600
VWidth: 0
UnlinkRmOvrlpSave: 1
Flags: W
HStem: 200 100<174.281 234.562 258.438 341.562 365.438 425.719> 613 20G<126 154 446 474> 700 100<98.4375 181.562 418.438 501.562>
VStem: 90 100<296.667 374.139 375.861 457.574 458.427 541.573 542.426 624.562 708.438 791.562> 143 100<208.438 286.333> 250 100<208.438 291.562> 357 100<208.438 286.333> 410 100<296.667 374.139 375.861 457.574 458.427 541.573 542.426 624.562 708.438 791.562>
LayerCount: 2
Back
Fore
SplineSet
457 250 m 1xe6
 457 222 435 200 407 200 c 0
 379 200 357 222 357 250 c 0xe6
 357 278 379 300 407 300 c 0
 414 300 420 298 426 296 c 1
 416 305 410 318 410 333 c 1
 410 351 419 366 433 375 c 1
 419 384 410 399 410 417 c 1
 410 434 419 449 432 458 c 1
 419 467 410 483 410 500 c 0
 410 517 419 533 432 542 c 1
 419 551 410 566 410 583 c 0
 410 611 432 633 460 633 c 0
 488 633 510 611 510 583 c 0
 510 566 501 551 488 542 c 1
 501 533 510 517 510 500 c 0
 510 483 501 467 488 458 c 1
 501 449 510 434 510 417 c 0
 510 399 501 384 487 375 c 1
 501 366 510 351 510 333 c 1xe5
 510 305 488 283 460 283 c 0
 453 283 447 285 441 287 c 1
 451 278 457 265 457 250 c 1xe6
350 250 m 0
 350 222 328 200 300 200 c 0
 272 200 250 222 250 250 c 0
 250 278 272 300 300 300 c 0
 328 300 350 278 350 250 c 0
243 250 m 0xec
 243 222 221 200 193 200 c 0
 165 200 143 222 143 250 c 0xec
 143 265 149 278 159 287 c 1
 153 285 147 283 140 283 c 0
 112 283 90 305 90 333 c 0
 90 351 99 366 113 375 c 1
 99 384 90 399 90 417 c 0
 90 434 99 449 112 458 c 1
 99 467 90 483 90 500 c 1
 90 517 99 533 112 542 c 1
 99 551 90 566 90 583 c 0
 90 611 112 633 140 633 c 0
 168 633 190 611 190 583 c 0
 190 566 181 551 168 542 c 1
 181 533 190 517 190 500 c 0
 190 483 181 467 168 458 c 1
 181 449 190 434 190 417 c 1
 190 399 181 384 167 375 c 1
 181 366 190 351 190 333 c 0xf4
 190 318 184 305 174 296 c 1
 180 298 186 300 193 300 c 0
 221 300 243 278 243 250 c 0xec
510 750 m 0xe5
 510 722 488 700 460 700 c 0
 432 700 410 722 410 750 c 0
 410 778 432 800 460 800 c 0
 488 800 510 778 510 750 c 0xe5
190 750 m 0xf4
 190 722 168 700 140 700 c 0
 112 700 90 722 90 750 c 0
 90 778 112 800 140 800 c 0
 168 800 190 778 190 750 c 0xf4
EndSplineSet
EndChar

StartChar: underscore
Encoding: 95 95 63
Width: 600
VWidth: 0
UnlinkRmOvrlpSave: 1
Flags: W
HStem: 200 100<98.4375 181.562 205.438 288.562 311.438 394.562 418.438 501.562>
VStem: 90 100<208.438 291.562> 197 100<208.438 291.562> 303 100<208.438 291.562> 410 100<208.438 291.562>
LayerCount: 2
Back
Fore
SplineSet
510 250 m 0
 510 222 488 200 460 200 c 0
 432 200 410 222 410 250 c 0
 410 278 432 300 460 300 c 0
 488 300 510 278 510 250 c 0
403 250 m 0
 403 222 381 200 353 200 c 0
 325 200 303 222 303 250 c 0
 303 278 325 300 353 300 c 0
 381 300 403 278 403 250 c 0
297 250 m 0
 297 222 275 200 247 200 c 0
 219 200 197 222 197 250 c 0
 197 278 219 300 247 300 c 0
 275 300 297 278 297 250 c 0
190 250 m 0
 190 222 168 200 140 200 c 0
 112 200 90 222 90 250 c 0
 90 278 112 300 140 300 c 0
 168 300 190 278 190 250 c 0
EndSplineSet
EndChar

StartChar: glyph64
Encoding: 567 567 64
Width: 600
VWidth: 0
UnlinkRmOvrlpSave: 1
Flags: W
HStem: 200 100<174.281 234.562 258.438 341.562 365.438 425.719> 283 100<98.4375 158.719> 613 20G<446 474>
VStem: 90 100<296.667 374.562> 143 100<208.438 286.333> 250 100<208.438 291.562> 357 100<208.438 286.333> 410 100<296.667 374.139 375.861 457.574 458.427 541.573 542.426 624.562>
LayerCount: 2
Back
Fore
SplineSet
457 250 m 1x66
 457 222 435 200 407 200 c 0
 379 200 357 222 357 250 c 0xa6
 357 278 379 300 407 300 c 0
 414 300 420 298 426 296 c 1
 416 305 410 318 410 333 c 1
 410 351 419 366 433 375 c 1
 419 384 410 399 410 417 c 1
 410 434 419 449 432 458 c 1
 419 467 410 483 410 500 c 0
 410 517 419 533 432 542 c 1
 419 551 410 566 410 583 c 0
 410 611 432 633 460 633 c 0
 488 633 510 611 510 583 c 0
 510 566 501 551 488 542 c 1
 501 533 510 517 510 500 c 0
 510 483 501 467 488 458 c 1
 501 449 510 434 510 417 c 0
 510 399 501 384 487 375 c 1
 501 366 510 351 510 333 c 1xa5
 510 305 488 283 460 283 c 0
 453 283 447 285 441 287 c 1
 451 278 457 265 457 250 c 1x66
350 250 m 0
 350 222 328 200 300 200 c 0
 272 200 250 222 250 250 c 0
 250 278 272 300 300 300 c 0
 328 300 350 278 350 250 c 0
243 250 m 0xac
 243 222 221 200 193 200 c 0
 165 200 143 222 143 250 c 0xac
 143 265 149 278 159 287 c 1
 153 285 147 283 140 283 c 0
 112 283 90 305 90 333 c 0
 90 361 112 383 140 383 c 0
 168 383 190 361 190 333 c 0x74
 190 318 184 305 174 296 c 1
 180 298 186 300 193 300 c 0
 221 300 243 278 243 250 c 0xac
EndSplineSet
EndChar

StartChar: agrave
Encoding: 224 224 65
Width: 600
VWidth: 0
UnlinkRmOvrlpSave: 1
Flags: W
HStem: 200 100<174.281 234.562 258.438 341.562 365.438 425.719> 283 100<98.4375 158.715 441.285 501.562> 367 100<171.328 234.562 258.438 341.562 365.438 425.715> 450 100<441.281 501.562> 533 100<151.438 234.562 258.438 321.672 382.33 425.719> 617 100<334.285 377.67> 700 100<258.438 318.719>
VStem: 90 100<296.667 371.574> 143 100<208.438 286.333 378.426 458.562 541.438 624.562> 250 100<208.438 291.562 375.438 458.562 541.438 621.574 713.667 791.562> 303 100<628.426 703.333> 357 100<208.438 286.333 378.426 453.333 546.667 623.574> 410 100<296.667 371.574 463.667 536.333>
LayerCount: 2
Back
Fore
SplineSet
457 250 m 1x5010
 457 222 435 200 407 200 c 0
 379 200 357 222 357 250 c 0x8010
 357 278 379 300 407 300 c 0
 414 300 420 298 426 296 c 1
 416 305 410 318 410 333 c 1x8008
 410 349 418 363 429 372 c 1
 422 369 415 367 407 367 c 0
 379 367 357 389 357 417 c 0xa010
 357 445 379 467 407 467 c 0
 414 467 420 465 426 463 c 1
 416 472 410 485 410 500 c 1
 410 515 416 528 426 537 c 1
 420 535 414 533 407 533 c 0xa808
 379 533 357 555 357 583 c 0
 357 600 365 615 378 624 c 1
 371 620 362 617 353 617 c 0x0410
 345 617 338 619 331 622 c 1
 342 613 350 599 350 583 c 1
 350 555 328 533 300 533 c 0
 272 533 250 555 250 583 c 0x0850
 250 611 272 633 300 633 c 0
 308 633 315 631 322 628 c 1
 311 637 303 651 303 667 c 1x0820
 303 682 309 695 319 704 c 1
 313 702 307 700 300 700 c 0
 272 700 250 722 250 750 c 0
 250 778 272 800 300 800 c 0
 328 800 350 778 350 750 c 0x0a40
 350 735 344 722 334 713 c 1
 340 715 346 717 353 717 c 0
 381 717 403 695 403 667 c 0x0420
 403 650 395 635 382 626 c 1
 389 630 398 633 407 633 c 0
 435 633 457 611 457 583 c 0x0810
 457 568 451 555 441 546 c 1
 447 548 453 550 460 550 c 0
 488 550 510 528 510 500 c 0x1008
 510 472 488 450 460 450 c 0
 453 450 447 452 441 454 c 1
 451 445 457 432 457 417 c 1x1010
 457 401 449 387 438 378 c 1
 445 381 452 383 460 383 c 0
 488 383 510 361 510 333 c 0x5008
 510 305 488 283 460 283 c 0
 453 283 447 285 441 287 c 1
 451 278 457 265 457 250 c 1x5010
350 250 m 0x8040
 350 222 328 200 300 200 c 0
 272 200 250 222 250 250 c 0
 250 278 272 300 300 300 c 0
 328 300 350 278 350 250 c 0x8040
243 250 m 0xa080
 243 222 221 200 193 200 c 0
 165 200 143 222 143 250 c 0xa080
 143 265 149 278 159 287 c 1
 153 285 147 283 140 283 c 0
 112 283 90 305 90 333 c 0
 90 361 112 383 140 383 c 0x41
 148 383 155 381 162 378 c 1
 151 387 143 401 143 417 c 0
 143 445 165 467 193 467 c 0
 221 467 243 445 243 417 c 0x2080
 243 389 221 367 193 367 c 0
 185 367 178 369 171 372 c 1
 182 363 190 349 190 333 c 0x21
 190 318 184 305 174 296 c 1
 180 298 186 300 193 300 c 0
 221 300 243 278 243 250 c 0xa080
350 417 m 0x2040
 350 389 328 367 300 367 c 0
 272 367 250 389 250 417 c 0
 250 445 272 467 300 467 c 0
 328 467 350 445 350 417 c 0x2040
243 583 m 0x0880
 243 555 221 533 193 533 c 0
 165 533 143 555 143 583 c 0
 143 611 165 633 193 633 c 0
 221 633 243 611 243 583 c 0x0880
EndSplineSet
EndChar

StartChar: c
Encoding: 99 99 66
Width: 600
VWidth: 0
UnlinkRmOvrlpSave: 1
Flags: W
HStem: 200 100<174.281 234.562 258.438 341.562 365.438 448.562> 450 100<441.281 501.562> 533 100<174.281 234.562 258.438 341.562 365.438 425.719>
VStem: 90 100<296.667 374.139 375.861 457.574 458.427 536.333> 143 100<208.438 286.333 546.667 624.562> 250 100<208.438 291.562 541.438 624.562> 357 100<208.438 291.562 546.667 624.562> 410 100<458.438 536.333>
LayerCount: 2
Back
Fore
SplineSet
457 250 m 0x86
 457 222 435 200 407 200 c 0
 379 200 357 222 357 250 c 0
 357 278 379 300 407 300 c 0
 435 300 457 278 457 250 c 0x86
350 250 m 0
 350 222 328 200 300 200 c 0
 272 200 250 222 250 250 c 0
 250 278 272 300 300 300 c 0
 328 300 350 278 350 250 c 0
243 250 m 0xac
 243 222 221 200 193 200 c 0
 165 200 143 222 143 250 c 0xac
 143 265 149 278 159 287 c 1
 153 285 147 283 140 283 c 0
 112 283 90 305 90 333 c 0
 90 351 99 366 113 375 c 1
 99 384 90 399 90 417 c 0
 90 434 99 449 112 458 c 1
 99 467 90 483 90 500 c 1
 90 528 112 550 140 550 c 0xd4
 147 550 153 548 159 546 c 1
 149 555 143 568 143 583 c 0
 143 611 165 633 193 633 c 0
 221 633 243 611 243 583 c 0xac
 243 555 221 533 193 533 c 0
 186 533 180 535 174 537 c 1
 184 528 190 515 190 500 c 0
 190 483 181 467 168 458 c 1
 181 449 190 434 190 417 c 1
 190 399 181 384 167 375 c 1
 181 366 190 351 190 333 c 0xb4
 190 318 184 305 174 296 c 1
 180 298 186 300 193 300 c 0
 221 300 243 278 243 250 c 0xac
510 500 m 0xc5
 510 472 488 450 460 450 c 0
 432 450 410 472 410 500 c 0xc5
 410 515 416 528 426 537 c 1
 420 535 414 533 407 533 c 0
 379 533 357 555 357 583 c 0
 357 611 379 633 407 633 c 0
 435 633 457 611 457 583 c 0xa6
 457 568 451 555 441 546 c 1
 447 548 453 550 460 550 c 0
 488 550 510 528 510 500 c 0xc5
350 583 m 0
 350 555 328 533 300 533 c 0
 272 533 250 555 250 583 c 0
 250 611 272 633 300 633 c 0xa4
 328 633 350 611 350 583 c 0
EndSplineSet
EndChar

StartChar: adieresis
Encoding: 228 228 67
Width: 600
VWidth: 0
UnlinkRmOvrlpSave: 1
Flags: W
HStem: 200 100<174.281 234.562 258.438 341.562 365.438 425.719> 283 100<98.4375 158.715 441.285 501.562> 367 100<171.328 234.562 258.438 341.562 365.438 425.715> 450 100<441.281 501.562> 533 100<151.438 234.562 258.438 341.562 365.438 425.719> 700 100<151.438 234.562 365.438 448.562>
VStem: 90 100<296.667 371.574> 143 100<208.438 286.333 378.426 458.562 541.438 624.562 708.438 791.562> 250 100<208.438 291.562 375.438 458.562 541.438 624.562> 357 100<208.438 286.333 378.426 453.333 546.667 624.562 708.438 791.562> 410 100<296.667 371.574 463.667 536.333>
LayerCount: 2
Back
Fore
SplineSet
457 250 m 1x54c0
 457 222 435 200 407 200 c 0
 379 200 357 222 357 250 c 0x84c0
 357 278 379 300 407 300 c 0
 414 300 420 298 426 296 c 1
 416 305 410 318 410 333 c 1x84a0
 410 349 418 363 429 372 c 1
 422 369 415 367 407 367 c 0
 379 367 357 389 357 417 c 0xa4c0
 357 445 379 467 407 467 c 0
 414 467 420 465 426 463 c 1
 416 472 410 485 410 500 c 1xa4a0
 410 515 416 528 426 537 c 1
 420 535 414 533 407 533 c 0
 379 533 357 555 357 583 c 0
 357 611 379 633 407 633 c 0
 435 633 457 611 457 583 c 0xacc0
 457 568 451 555 441 546 c 1
 447 548 453 550 460 550 c 0
 488 550 510 528 510 500 c 0x14a0
 510 472 488 450 460 450 c 0
 453 450 447 452 441 454 c 1
 451 445 457 432 457 417 c 1x14c0
 457 401 449 387 438 378 c 1
 445 381 452 383 460 383 c 0
 488 383 510 361 510 333 c 0x54a0
 510 305 488 283 460 283 c 0
 453 283 447 285 441 287 c 1
 451 278 457 265 457 250 c 1x54c0
350 250 m 0
 350 222 328 200 300 200 c 0
 272 200 250 222 250 250 c 0
 250 278 272 300 300 300 c 0
 328 300 350 278 350 250 c 0
243 250 m 0xa580
 243 222 221 200 193 200 c 0
 165 200 143 222 143 250 c 0xa580
 143 265 149 278 159 287 c 1
 153 285 147 283 140 283 c 0
 112 283 90 305 90 333 c 0
 90 361 112 383 140 383 c 0x4680
 148 383 155 381 162 378 c 1
 151 387 143 401 143 417 c 0
 143 445 165 467 193 467 c 0
 221 467 243 445 243 417 c 0x2580
 243 389 221 367 193 367 c 0
 185 367 178 369 171 372 c 1
 182 363 190 349 190 333 c 0x2680
 190 318 184 305 174 296 c 1
 180 298 186 300 193 300 c 0
 221 300 243 278 243 250 c 0xa580
350 417 m 0
 350 389 328 367 300 367 c 0
 272 367 250 389 250 417 c 0
 250 445 272 467 300 467 c 0
 328 467 350 445 350 417 c 0
350 583 m 0
 350 555 328 533 300 533 c 0
 272 533 250 555 250 583 c 0
 250 611 272 633 300 633 c 0x0c80
 328 633 350 611 350 583 c 0
243 583 m 0x0d80
 243 555 221 533 193 533 c 0
 165 533 143 555 143 583 c 0
 143 611 165 633 193 633 c 0
 221 633 243 611 243 583 c 0x0d80
457 750 m 0x04c0
 457 722 435 700 407 700 c 0
 379 700 357 722 357 750 c 0
 357 778 379 800 407 800 c 0
 435 800 457 778 457 750 c 0x04c0
243 750 m 0x0580
 243 722 221 700 193 700 c 0
 165 700 143 722 143 750 c 0
 143 778 165 800 193 800 c 0
 221 800 243 778 243 750 c 0x0580
EndSplineSet
EndChar

StartChar: g
Encoding: 103 103 68
Width: 600
VWidth: 0
UnlinkRmOvrlpSave: 1
Flags: W
HStem: 200 100<98.4375 181.562 205.438 288.562 311.438 394.562> 367 100<174.281 234.562 258.438 341.562 365.438 425.715> 450 100<98.4375 158.719 441.281 501.562> 533 100<174.281 234.562 258.438 341.562 365.438 425.715> 617 100<438.328 501.562>
VStem: 90 100<208.438 291.562 463.667 536.333> 143 100<375.438 453.333 546.667 624.562> 197 100<208.438 291.562> 250 100<375.438 458.562 541.438 624.562> 303 100<208.438 291.562> 357 100<378.426 453.333 546.667 621.574> 410 100<208.438 291.573 292.426 371.574 463.667 536.333 628.426 708.562>
LayerCount: 2
Back
Fore
SplineSet
510 250 m 0xa810
 510 222 488 200 460 200 c 0
 432 200 410 222 410 250 c 0
 410 267 419 283 432 292 c 1
 419 301 410 316 410 333 c 0xa810
 410 349 418 363 429 372 c 1
 422 369 415 367 407 367 c 0
 379 367 357 389 357 417 c 0xc020
 357 445 379 467 407 467 c 0
 414 467 420 465 426 463 c 1
 416 472 410 485 410 500 c 1xc010
 410 515 416 528 426 537 c 1
 420 535 414 533 407 533 c 0
 379 533 357 555 357 583 c 0
 357 611 379 633 407 633 c 0xd020
 415 633 422 631 429 628 c 1
 418 637 410 651 410 667 c 1
 410 695 432 717 460 717 c 0
 488 717 510 695 510 667 c 0x8810
 510 639 488 617 460 617 c 0
 452 617 445 619 438 622 c 1
 449 613 457 599 457 583 c 1x8820
 457 568 451 555 441 546 c 1
 447 548 453 550 460 550 c 0
 488 550 510 528 510 500 c 0xa810
 510 472 488 450 460 450 c 0
 453 450 447 452 441 454 c 1
 451 445 457 432 457 417 c 1xa820
 457 401 449 387 438 378 c 1
 445 381 452 383 460 383 c 0
 488 383 510 361 510 333 c 0
 510 316 501 301 488 292 c 1
 501 283 510 267 510 250 c 0xa810
403 250 m 0x8040
 403 222 381 200 353 200 c 0
 325 200 303 222 303 250 c 0
 303 278 325 300 353 300 c 0
 381 300 403 278 403 250 c 0x8040
297 250 m 0x81
 297 222 275 200 247 200 c 0
 219 200 197 222 197 250 c 0
 197 278 219 300 247 300 c 0
 275 300 297 278 297 250 c 0x81
190 250 m 0x84
 190 222 168 200 140 200 c 0
 112 200 90 222 90 250 c 0
 90 278 112 300 140 300 c 0
 168 300 190 278 190 250 c 0x84
350 417 m 0xc080
 350 389 328 367 300 367 c 0
 272 367 250 389 250 417 c 0
 250 445 272 467 300 467 c 0
 328 467 350 445 350 417 c 0xc080
243 417 m 0xd2
 243 389 221 367 193 367 c 0
 165 367 143 389 143 417 c 0xd2
 143 432 149 445 159 454 c 1
 153 452 147 450 140 450 c 0
 112 450 90 472 90 500 c 0
 90 528 112 550 140 550 c 0xa4
 147 550 153 548 159 546 c 1
 149 555 143 568 143 583 c 0
 143 611 165 633 193 633 c 0
 221 633 243 611 243 583 c 0x92
 243 555 221 533 193 533 c 0
 186 533 180 535 174 537 c 1
 184 528 190 515 190 500 c 0x94
 190 485 184 472 174 463 c 1
 180 465 186 467 193 467 c 0
 221 467 243 445 243 417 c 0xd2
350 583 m 0x9080
 350 555 328 533 300 533 c 0
 272 533 250 555 250 583 c 0
 250 611 272 633 300 633 c 0
 328 633 350 611 350 583 c 0x9080
EndSplineSet
EndChar

StartChar: egrave
Encoding: 232 232 69
Width: 600
VWidth: 0
UnlinkRmOvrlpSave: 1
Flags: W
HStem: 200 100<174.281 234.562 258.438 341.562 365.438 448.562> 367 100<205.438 288.562 311.438 394.562> 533 100<174.281 234.562 258.438 321.672 382.33 425.719> 617 100<334.285 377.67> 700 100<258.438 318.719>
VStem: 90 100<296.667 374.139 375.861 457.574 458.427 536.333> 143 100<208.438 286.333 546.667 624.562> 197 100<375.438 458.562> 250 100<208.438 291.562 541.438 621.574 713.667 791.562> 303 100<375.438 458.562 628.426 703.333> 357 100<208.438 291.562 546.667 623.574> 410 100<375.438 457.574 458.427 536.333>
LayerCount: 2
Back
Fore
SplineSet
457 250 m 0xc020
 457 222 435 200 407 200 c 0
 379 200 357 222 357 250 c 0
 357 278 379 300 407 300 c 0
 435 300 457 278 457 250 c 0xc020
350 250 m 0xc080
 350 222 328 200 300 200 c 0
 272 200 250 222 250 250 c 0
 250 278 272 300 300 300 c 0
 328 300 350 278 350 250 c 0xc080
243 250 m 0xe2
 243 222 221 200 193 200 c 0
 165 200 143 222 143 250 c 0xe2
 143 265 149 278 159 287 c 1
 153 285 147 283 140 283 c 0
 112 283 90 305 90 333 c 0
 90 351 99 366 113 375 c 1
 99 384 90 399 90 417 c 0
 90 434 99 449 112 458 c 1
 99 467 90 483 90 500 c 1xe4
 90 528 112 550 140 550 c 0
 147 550 153 548 159 546 c 1
 149 555 143 568 143 583 c 0
 143 611 165 633 193 633 c 0
 221 633 243 611 243 583 c 0xe2
 243 555 221 533 193 533 c 0
 186 533 180 535 174 537 c 1
 184 528 190 515 190 500 c 0
 190 483 181 467 168 458 c 1
 181 449 190 434 190 417 c 1
 190 399 181 384 167 375 c 1
 181 366 190 351 190 333 c 0xe4
 190 318 184 305 174 296 c 1
 180 298 186 300 193 300 c 0
 221 300 243 278 243 250 c 0xe2
510 417 m 0xe010
 510 389 488 367 460 367 c 0
 432 367 410 389 410 417 c 0
 410 434 419 449 432 458 c 1
 419 467 410 483 410 500 c 0
 410 515 416 528 426 537 c 1
 420 535 414 533 407 533 c 0xe010
 379 533 357 555 357 583 c 0
 357 600 365 615 378 624 c 1
 371 620 362 617 353 617 c 0xd020
 345 617 338 619 331 622 c 1
 342 613 350 599 350 583 c 1
 350 555 328 533 300 533 c 0
 272 533 250 555 250 583 c 0xe0a0
 250 611 272 633 300 633 c 0
 308 633 315 631 322 628 c 1
 311 637 303 651 303 667 c 1xe040
 303 682 309 695 319 704 c 1
 313 702 307 700 300 700 c 0
 272 700 250 722 250 750 c 0
 250 778 272 800 300 800 c 0
 328 800 350 778 350 750 c 0xe880
 350 735 344 722 334 713 c 1
 340 715 346 717 353 717 c 0
 381 717 403 695 403 667 c 0xd040
 403 650 395 635 382 626 c 1
 389 630 398 633 407 633 c 0
 435 633 457 611 457 583 c 0xe020
 457 568 451 555 441 546 c 1
 447 548 453 550 460 550 c 0
 488 550 510 528 510 500 c 0
 510 483 501 467 488 458 c 1
 501 449 510 434 510 417 c 0xe010
403 417 m 0xc040
 403 389 381 367 353 367 c 0
 325 367 303 389 303 417 c 0
 303 445 325 467 353 467 c 0
 381 467 403 445 403 417 c 0xc040
297 417 m 0xc1
 297 389 275 367 247 367 c 0
 219 367 197 389 197 417 c 0
 197 445 219 467 247 467 c 0
 275 467 297 445 297 417 c 0xc1
EndSplineSet
EndChar

StartChar: k
Encoding: 107 107 70
Width: 600
VWidth: 0
UnlinkRmOvrlpSave: 1
Flags: W
HStem: 200 100<418.438 501.562> 200 21G<126 154> 283 100<311.438 394.562> 367 100<205.438 265.719> 450 100<281 319> 533 100<334.281 394.562> 780 20G<126 154>
VStem: 90 100<208.438 291.573 292.426 374.139 375.861 457.574 458.427 541.573 542.426 624.139 625.861 707.574 708.427 791.562> 197 100<375.438 453.333> 250 100<463.667 536.333> 303 100<291.438 374.562 546.667 624.562> 410 100<208.438 291.562>
LayerCount: 2
Back
Fore
SplineSet
510 250 m 0x8310
 510 222 488 200 460 200 c 0
 432 200 410 222 410 250 c 0
 410 278 432 300 460 300 c 0
 488 300 510 278 510 250 c 0x8310
190 250 m 1
 190 222 168 200 140 200 c 0x4310
 112 200 90 222 90 250 c 0
 90 267 99 283 112 292 c 1
 99 301 90 316 90 333 c 1
 90 351 99 366 113 375 c 1
 99 384 90 399 90 417 c 0
 90 434 99 449 112 458 c 1
 99 467 90 483 90 500 c 1
 90 517 99 533 112 542 c 1
 99 551 90 566 90 583 c 0
 90 601 99 616 113 625 c 1
 99 634 90 649 90 667 c 0
 90 684 99 699 112 708 c 1
 99 717 90 733 90 750 c 0
 90 778 112 800 140 800 c 0
 168 800 190 778 190 750 c 0
 190 733 181 717 168 708 c 1
 181 699 190 684 190 667 c 0
 190 649 181 634 167 625 c 1
 181 616 190 601 190 583 c 0
 190 566 181 551 168 542 c 1
 181 533 190 517 190 500 c 0
 190 483 181 467 168 458 c 1
 181 449 190 434 190 417 c 1
 190 399 181 384 167 375 c 1
 181 366 190 351 190 333 c 0
 190 316 181 301 168 292 c 1
 181 283 190 267 190 250 c 1
403 333 m 0x2330
 403 305 381 283 353 283 c 0
 325 283 303 305 303 333 c 0
 303 361 325 383 353 383 c 0
 381 383 403 361 403 333 c 0x2330
297 417 m 0x0b90
 297 389 275 367 247 367 c 0
 219 367 197 389 197 417 c 0
 197 445 219 467 247 467 c 0x1390
 254 467 260 465 266 463 c 1
 256 472 250 485 250 500 c 0
 250 528 272 550 300 550 c 0x0b50
 307 550 313 548 319 546 c 1
 309 555 303 568 303 583 c 1
 303 611 325 633 353 633 c 0
 381 633 403 611 403 583 c 0x0730
 403 555 381 533 353 533 c 0
 346 533 340 535 334 537 c 1
 344 528 350 515 350 500 c 1x0750
 350 472 328 450 300 450 c 0
 293 450 287 452 281 454 c 1
 291 445 297 432 297 417 c 0x0b90
EndSplineSet
EndChar

StartChar: o
Encoding: 111 111 71
Width: 600
VWidth: 0
UnlinkRmOvrlpSave: 1
Flags: W
HStem: 200 100<174.281 234.562 258.438 341.562 365.438 425.719> 533 100<174.281 234.562 258.438 341.562 365.438 425.719>
VStem: 90 100<296.667 374.139 375.861 457.574 458.427 536.333> 143 100<208.438 286.333 546.667 624.562> 250 100<208.438 291.562 541.438 624.562> 357 100<208.438 286.333 546.667 624.562> 410 100<296.667 374.139 375.861 457.574 458.427 536.333>
LayerCount: 2
Back
Fore
SplineSet
457 250 m 1xcc
 457 222 435 200 407 200 c 0
 379 200 357 222 357 250 c 0xcc
 357 278 379 300 407 300 c 0
 414 300 420 298 426 296 c 1
 416 305 410 318 410 333 c 1
 410 351 419 366 433 375 c 1
 419 384 410 399 410 417 c 1
 410 434 419 449 432 458 c 1
 419 467 410 483 410 500 c 0xca
 410 515 416 528 426 537 c 1
 420 535 414 533 407 533 c 0
 379 533 357 555 357 583 c 0
 357 611 379 633 407 633 c 0
 435 633 457 611 457 583 c 0xcc
 457 568 451 555 441 546 c 1
 447 548 453 550 460 550 c 0
 488 550 510 528 510 500 c 0
 510 483 501 467 488 458 c 1
 501 449 510 434 510 417 c 0
 510 399 501 384 487 375 c 1
 501 366 510 351 510 333 c 1xca
 510 305 488 283 460 283 c 0
 453 283 447 285 441 287 c 1
 451 278 457 265 457 250 c 1xcc
350 250 m 0
 350 222 328 200 300 200 c 0
 272 200 250 222 250 250 c 0
 250 278 272 300 300 300 c 0
 328 300 350 278 350 250 c 0
243 250 m 0xd8
 243 222 221 200 193 200 c 0
 165 200 143 222 143 250 c 0xd8
 143 265 149 278 159 287 c 1
 153 285 147 283 140 283 c 0
 112 283 90 305 90 333 c 0
 90 351 99 366 113 375 c 1
 99 384 90 399 90 417 c 0
 90 434 99 449 112 458 c 1
 99 467 90 483 90 500 c 1xe8
 90 528 112 550 140 550 c 0
 147 550 153 548 159 546 c 1
 149 555 143 568 143 583 c 0
 143 611 165 633 193 633 c 0
 221 633 243 611 243 583 c 0xd8
 243 555 221 533 193 533 c 0
 186 533 180 535 174 537 c 1
 184 528 190 515 190 500 c 0
 190 483 181 467 168 458 c 1
 181 449 190 434 190 417 c 1
 190 399 181 384 167 375 c 1
 181 366 190 351 190 333 c 0xe8
 190 318 184 305 174 296 c 1
 180 298 186 300 193 300 c 0
 221 300 243 278 243 250 c 0xd8
350 583 m 0
 350 555 328 533 300 533 c 0
 272 533 250 555 250 583 c 0
 250 611 272 633 300 633 c 0
 328 633 350 611 350 583 c 0
EndSplineSet
EndChar

StartChar: s
Encoding: 115 115 72
Width: 600
VWidth: 0
UnlinkRmOvrlpSave: 1
Flags: W
HStem: 200 100<151.438 234.562 258.438 341.562 365.438 425.719> 283 100<441.285 501.562> 367 100<174.281 234.562 258.438 341.562 365.438 428.672> 450 100<98.4375 158.719> 533 100<174.281 234.562 258.438 341.562 365.438 448.562>
VStem: 90 100<463.667 536.333> 143 100<208.438 291.562 375.438 453.333 546.667 624.562> 250 100<208.438 291.562 375.438 458.562 541.438 624.562> 357 100<208.438 286.333 378.426 458.562 541.438 624.562> 410 100<296.667 371.574>
LayerCount: 2
Back
Fore
SplineSet
457 250 m 1x4180
 457 222 435 200 407 200 c 0
 379 200 357 222 357 250 c 0x8180
 357 278 379 300 407 300 c 0
 414 300 420 298 426 296 c 1
 416 305 410 318 410 333 c 1x8140
 410 349 418 363 429 372 c 1
 422 369 415 367 407 367 c 0
 379 367 357 389 357 417 c 0
 357 445 379 467 407 467 c 0
 435 467 457 445 457 417 c 0xa180
 457 401 449 387 438 378 c 1
 445 381 452 383 460 383 c 0
 488 383 510 361 510 333 c 0x4140
 510 305 488 283 460 283 c 0
 453 283 447 285 441 287 c 1
 451 278 457 265 457 250 c 1x4180
350 250 m 0
 350 222 328 200 300 200 c 0
 272 200 250 222 250 250 c 0
 250 278 272 300 300 300 c 0
 328 300 350 278 350 250 c 0
243 250 m 0x83
 243 222 221 200 193 200 c 0
 165 200 143 222 143 250 c 0
 143 278 165 300 193 300 c 0
 221 300 243 278 243 250 c 0x83
350 417 m 0
 350 389 328 367 300 367 c 0
 272 367 250 389 250 417 c 0
 250 445 272 467 300 467 c 0x21
 328 467 350 445 350 417 c 0
243 417 m 0x2b
 243 389 221 367 193 367 c 0
 165 367 143 389 143 417 c 0x2b
 143 432 149 445 159 454 c 1
 153 452 147 450 140 450 c 0
 112 450 90 472 90 500 c 0
 90 528 112 550 140 550 c 0x15
 147 550 153 548 159 546 c 1
 149 555 143 568 143 583 c 0
 143 611 165 633 193 633 c 0
 221 633 243 611 243 583 c 0x0b
 243 555 221 533 193 533 c 0
 186 533 180 535 174 537 c 1
 184 528 190 515 190 500 c 0x0d
 190 485 184 472 174 463 c 1
 180 465 186 467 193 467 c 0
 221 467 243 445 243 417 c 0x2b
457 583 m 0x0980
 457 555 435 533 407 533 c 0
 379 533 357 555 357 583 c 0
 357 611 379 633 407 633 c 0
 435 633 457 611 457 583 c 0x0980
350 583 m 0
 350 555 328 533 300 533 c 0
 272 533 250 555 250 583 c 0
 250 611 272 633 300 633 c 0
 328 633 350 611 350 583 c 0
EndSplineSet
EndChar

StartChar: glyph73
Encoding: 373 373 73
Width: 600
VWidth: 0
UnlinkRmOvrlpSave: 1
Flags: W
HStem: 200 100<174.281 213.718 386.282 425.719> 283 100<226.282 268.672 331.328 373.718> 367 100<278.328 321.672> 617 100<151.438 213.718 386.282 448.562> 700 100<226.282 288.562 311.438 373.718>
VStem: 90 100<296.667 374.139 375.861 457.574 458.427 541.562> 143 100<208.438 286.575 625.438 704.574> 197 100<295.426 371.574 712.426 791.562> 250 100<378.426 458.562> 303 100<295.426 371.574 712.426 791.562> 357 100<208.438 286.575 625.438 704.574> 410 100<296.667 374.139 375.861 457.574 458.427 541.562>
LayerCount: 2
Back
Fore
SplineSet
457 250 m 1x4020
 457 222 435 200 407 200 c 0x8020
 379 200 357 222 357 250 c 0
 357 265 364 279 374 288 c 1
 368 285 361 283 353 283 c 0x4020
 325 283 303 305 303 333 c 0
 303 349 311 363 322 372 c 1
 315 369 308 367 300 367 c 0x2040
 292 367 285 369 278 372 c 1
 289 363 297 349 297 333 c 0
 297 305 275 283 247 283 c 0x4140
 239 283 232 285 226 288 c 1
 236 279 243 265 243 250 c 1
 243 222 221 200 193 200 c 0x82
 165 200 143 222 143 250 c 0
 143 265 149 278 159 287 c 1
 153 285 147 283 140 283 c 0x42
 112 283 90 305 90 333 c 0
 90 351 99 366 113 375 c 1
 99 384 90 399 90 417 c 0
 90 434 99 449 112 458 c 1
 99 467 90 483 90 500 c 1
 90 528 112 550 140 550 c 0
 168 550 190 528 190 500 c 0
 190 483 181 467 168 458 c 1
 181 449 190 434 190 417 c 1
 190 399 181 384 167 375 c 1
 181 366 190 351 190 333 c 0
 190 318 184 305 174 296 c 1
 180 298 186 300 193 300 c 0x84
 201 300 208 298 214 295 c 1
 204 304 197 318 197 333 c 1
 197 361 219 383 247 383 c 0x45
 255 383 262 381 269 378 c 1
 258 387 250 401 250 417 c 0
 250 445 272 467 300 467 c 0x2080
 328 467 350 445 350 417 c 0
 350 401 342 387 331 378 c 1
 338 381 345 383 353 383 c 0x4080
 381 383 403 361 403 333 c 0
 403 318 396 304 386 295 c 1
 392 298 399 300 407 300 c 0
 414 300 420 298 426 296 c 1
 416 305 410 318 410 333 c 1
 410 351 419 366 433 375 c 1
 419 384 410 399 410 417 c 1
 410 434 419 449 432 458 c 1
 419 467 410 483 410 500 c 0
 410 528 432 550 460 550 c 0
 488 550 510 528 510 500 c 0
 510 483 501 467 488 458 c 1
 501 449 510 434 510 417 c 0
 510 399 501 384 487 375 c 1
 501 366 510 351 510 333 c 1x8050
 510 305 488 283 460 283 c 0
 453 283 447 285 441 287 c 1
 451 278 457 265 457 250 c 1x4020
457 667 m 0
 457 639 435 617 407 617 c 0
 379 617 357 639 357 667 c 0x1020
 357 682 364 696 374 705 c 1
 368 702 361 700 353 700 c 0
 325 700 303 722 303 750 c 0
 303 778 325 800 353 800 c 0x0840
 381 800 403 778 403 750 c 0
 403 735 396 721 386 712 c 1
 392 715 399 717 407 717 c 0x1040
 435 717 457 695 457 667 c 0
243 667 m 1x0a
 243 639 221 617 193 617 c 0
 165 617 143 639 143 667 c 0
 143 695 165 717 193 717 c 0x12
 201 717 208 715 214 712 c 1
 204 721 197 735 197 750 c 1
 197 778 219 800 247 800 c 0
 275 800 297 778 297 750 c 0x09
 297 722 275 700 247 700 c 0
 239 700 232 702 226 705 c 1
 236 696 243 682 243 667 c 1x0a
EndSplineSet
EndChar

StartChar: w
Encoding: 119 119 74
Width: 600
VWidth: 0
UnlinkRmOvrlpSave: 1
Flags: W
HStem: 200 100<174.281 213.718 386.282 425.719> 283 100<226.282 268.672 331.328 373.718> 367 100<278.328 321.672> 613 20G<126 154 446 474>
VStem: 90 100<296.667 374.139 375.861 457.574 458.427 541.573 542.426 624.562> 143 100<208.438 286.575> 197 100<295.426 371.574> 250 100<378.426 458.562> 303 100<295.426 371.574> 357 100<208.438 286.575> 410 100<296.667 374.139 375.861 457.574 458.427 541.573 542.426 624.562>
LayerCount: 2
Back
Fore
SplineSet
457 250 m 1x5040
 457 222 435 200 407 200 c 0x9040
 379 200 357 222 357 250 c 0
 357 265 364 279 374 288 c 1
 368 285 361 283 353 283 c 0x5040
 325 283 303 305 303 333 c 0
 303 349 311 363 322 372 c 1
 315 369 308 367 300 367 c 0x3080
 292 367 285 369 278 372 c 1
 289 363 297 349 297 333 c 0
 297 305 275 283 247 283 c 0x5280
 239 283 232 285 226 288 c 1
 236 279 243 265 243 250 c 1
 243 222 221 200 193 200 c 0x94
 165 200 143 222 143 250 c 0
 143 265 149 278 159 287 c 1
 153 285 147 283 140 283 c 0x54
 112 283 90 305 90 333 c 0
 90 351 99 366 113 375 c 1
 99 384 90 399 90 417 c 0
 90 434 99 449 112 458 c 1
 99 467 90 483 90 500 c 1
 90 517 99 533 112 542 c 1
 99 551 90 566 90 583 c 0
 90 611 112 633 140 633 c 0
 168 633 190 611 190 583 c 0
 190 566 181 551 168 542 c 1
 181 533 190 517 190 500 c 0
 190 483 181 467 168 458 c 1
 181 449 190 434 190 417 c 1
 190 399 181 384 167 375 c 1
 181 366 190 351 190 333 c 0
 190 318 184 305 174 296 c 1
 180 298 186 300 193 300 c 0x98
 201 300 208 298 214 295 c 1
 204 304 197 318 197 333 c 1
 197 361 219 383 247 383 c 0x5a
 255 383 262 381 269 378 c 1
 258 387 250 401 250 417 c 0
 250 445 272 467 300 467 c 0x31
 328 467 350 445 350 417 c 0
 350 401 342 387 331 378 c 1
 338 381 345 383 353 383 c 0x51
 381 383 403 361 403 333 c 0
 403 318 396 304 386 295 c 1
 392 298 399 300 407 300 c 0
 414 300 420 298 426 296 c 1
 416 305 410 318 410 333 c 1
 410 351 419 366 433 375 c 1
 419 384 410 399 410 417 c 1
 410 434 419 449 432 458 c 1
 419 467 410 483 410 500 c 0
 410 517 419 533 432 542 c 1
 419 551 410 566 410 583 c 0
 410 611 432 633 460 633 c 0
 488 633 510 611 510 583 c 0
 510 566 501 551 488 542 c 1
 501 533 510 517 510 500 c 0
 510 483 501 467 488 458 c 1
 501 449 510 434 510 417 c 0
 510 399 501 384 487 375 c 1
 501 366 510 351 510 333 c 1x90a0
 510 305 488 283 460 283 c 0
 453 283 447 285 441 287 c 1
 451 278 457 265 457 250 c 1x5040
EndSplineSet
EndChar

StartChar: oslash
Encoding: 248 248 75
Width: 600
VWidth: 0
UnlinkRmOvrlpSave: 1
Flags: W
HStem: 200 100<174.281 213.718 281.281 341.562 365.438 425.719> 283 100<226.282 265.715> 367 100<278 319> 450 100<334.281 373.718> 533 100<174.281 234.562 258.438 318.719 386.282 425.719>
VStem: 90 100<296.667 374.139 375.861 457.574 458.427 536.333> 143 100<208.438 286.575 546.667 624.562> 197 100<296.425 371.574> 250 100<208.438 286.333 378.426 453.333 546.667 624.562> 303 100<463.667 536.575> 357 100<208.438 286.333 546.425 624.562> 410 100<296.667 374.139 375.861 457.574 458.427 536.333>
LayerCount: 2
Back
Fore
SplineSet
457 250 m 1x5020
 457 222 435 200 407 200 c 0
 379 200 357 222 357 250 c 0x8020
 357 278 379 300 407 300 c 0
 414 300 420 298 426 296 c 1
 416 305 410 318 410 333 c 1
 410 351 419 366 433 375 c 1
 419 384 410 399 410 417 c 1
 410 434 419 449 432 458 c 1
 419 467 410 483 410 500 c 0
 410 515 416 528 426 537 c 1
 420 535 414 533 407 533 c 0
 399 533 392 535 386 538 c 1
 396 529 403 515 403 500 c 0x8850
 403 472 381 450 353 450 c 0
 346 450 340 452 334 454 c 1
 344 445 350 432 350 417 c 1x1080
 350 389 328 367 300 367 c 0
 292 367 285 369 278 372 c 1
 289 363 297 349 297 333 c 0x21
 297 318 291 305 281 296 c 1
 287 298 293 300 300 300 c 0
 328 300 350 278 350 250 c 0
 350 222 328 200 300 200 c 0xa080
 272 200 250 222 250 250 c 0
 250 265 256 278 266 287 c 1
 260 285 254 283 247 283 c 0x4080
 239 283 232 285 226 288 c 1
 236 279 243 265 243 250 c 1
 243 222 221 200 193 200 c 0
 165 200 143 222 143 250 c 0x8280
 143 265 149 278 159 287 c 1
 153 285 147 283 140 283 c 0
 112 283 90 305 90 333 c 0
 90 351 99 366 113 375 c 1
 99 384 90 399 90 417 c 0
 90 434 99 449 112 458 c 1
 99 467 90 483 90 500 c 1
 90 528 112 550 140 550 c 0x54
 147 550 153 548 159 546 c 1
 149 555 143 568 143 583 c 0
 143 611 165 633 193 633 c 0
 221 633 243 611 243 583 c 0x0a
 243 555 221 533 193 533 c 0
 186 533 180 535 174 537 c 1
 184 528 190 515 190 500 c 0
 190 483 181 467 168 458 c 1
 181 449 190 434 190 417 c 1
 190 399 181 384 167 375 c 1
 181 366 190 351 190 333 c 0
 190 318 184 305 174 296 c 1
 180 298 186 300 193 300 c 0
 201 300 208 298 214 295 c 1
 204 304 197 318 197 333 c 1x8d
 197 361 219 383 247 383 c 0
 255 383 262 381 269 378 c 1
 258 387 250 401 250 417 c 0x4080
 250 445 272 467 300 467 c 0
 307 467 313 465 319 463 c 1
 309 472 303 485 303 500 c 1x2040
 303 515 309 528 319 537 c 1
 313 535 307 533 300 533 c 0
 272 533 250 555 250 583 c 0
 250 611 272 633 300 633 c 0x2880
 328 633 350 611 350 583 c 0
 350 568 344 555 334 546 c 1
 340 548 346 550 353 550 c 0x1080
 361 550 368 548 374 545 c 1
 364 554 357 568 357 583 c 0
 357 611 379 633 407 633 c 0
 435 633 457 611 457 583 c 0x08a0
 457 568 451 555 441 546 c 1
 447 548 453 550 460 550 c 0
 488 550 510 528 510 500 c 0
 510 483 501 467 488 458 c 1
 501 449 510 434 510 417 c 0
 510 399 501 384 487 375 c 1
 501 366 510 351 510 333 c 1x1010
 510 305 488 283 460 283 c 0
 453 283 447 285 441 287 c 1
 451 278 457 265 457 250 c 1x5020
EndSplineSet
EndChar

StartChar: braceleft
Encoding: 123 123 76
Width: 600
VWidth: 0
UnlinkRmOvrlpSave: 1
Flags: W
HStem: 200 100<334.281 394.562 418.438 501.562> 450 100<98.4375 181.562 205.438 265.719> 700 100<334.281 394.562 418.438 501.562>
VStem: 90 100<458.438 541.562> 197 100<463.667 536.333> 250 100<296.667 374.139 375.861 453.333 546.667 624.139 625.861 703.333> 303 100<208.438 286.333 713.667 791.562> 410 100<208.438 291.562 708.438 791.562>
CounterMasks: 1 e0
LayerCount: 2
Back
Fore
SplineSet
510 250 m 0xf1
 510 222 488 200 460 200 c 0
 432 200 410 222 410 250 c 0
 410 278 432 300 460 300 c 0
 488 300 510 278 510 250 c 0xf1
403 250 m 0xf3
 403 222 381 200 353 200 c 0
 325 200 303 222 303 250 c 0xf3
 303 265 309 278 319 287 c 1
 313 285 307 283 300 283 c 0
 272 283 250 305 250 333 c 0
 250 351 259 366 273 375 c 1
 259 384 250 399 250 417 c 0xf5
 250 432 256 445 266 454 c 1
 260 452 254 450 247 450 c 0
 219 450 197 472 197 500 c 0xf9
 197 528 219 550 247 550 c 0
 254 550 260 548 266 546 c 1
 256 555 250 568 250 583 c 0
 250 601 259 616 273 625 c 1
 259 634 250 649 250 667 c 0xf5
 250 695 272 717 300 717 c 0
 307 717 313 715 319 713 c 1
 309 722 303 735 303 750 c 1
 303 778 325 800 353 800 c 0
 381 800 403 778 403 750 c 0xf3
 403 722 381 700 353 700 c 0
 346 700 340 702 334 704 c 1
 344 695 350 682 350 667 c 1
 350 649 341 634 327 625 c 1
 341 616 350 601 350 583 c 0xf5
 350 555 328 533 300 533 c 0
 293 533 287 535 281 537 c 1
 291 528 297 515 297 500 c 0xf9
 297 485 291 472 281 463 c 1
 287 465 293 467 300 467 c 0
 328 467 350 445 350 417 c 0
 350 399 341 384 327 375 c 1
 341 366 350 351 350 333 c 1xf5
 350 318 344 305 334 296 c 1
 340 298 346 300 353 300 c 0
 381 300 403 278 403 250 c 0xf3
190 500 m 0
 190 472 168 450 140 450 c 0
 112 450 90 472 90 500 c 0
 90 528 112 550 140 550 c 0
 168 550 190 528 190 500 c 0
510 750 m 0
 510 722 488 700 460 700 c 0
 432 700 410 722 410 750 c 0
 410 778 432 800 460 800 c 0
 488 800 510 778 510 750 c 0
EndSplineSet
EndChar

StartChar: udieresis
Encoding: 252 252 77
Width: 600
VWidth: 0
UnlinkRmOvrlpSave: 1
Flags: W
HStem: 200 100<205.438 288.562 311.438 394.562> 613 20G<126 154 446 474> 700 100<151.438 234.562 365.438 448.562>
VStem: 90 100<291.438 374.139 375.861 457.574 458.427 541.573 542.426 624.562> 143 100<708.438 791.562> 197 100<208.438 291.562> 303 100<208.438 291.562> 357 100<708.438 791.562> 410 100<208.438 291.573 292.426 374.139 375.861 457.574 458.427 541.573 542.426 624.562>
LayerCount: 2
Back
Fore
SplineSet
510 250 m 0xe080
 510 222 488 200 460 200 c 0
 432 200 410 222 410 250 c 0
 410 267 419 283 432 292 c 1
 419 301 410 316 410 333 c 0
 410 351 419 366 433 375 c 1
 419 384 410 399 410 417 c 1
 410 434 419 449 432 458 c 1
 419 467 410 483 410 500 c 0
 410 517 419 533 432 542 c 1
 419 551 410 566 410 583 c 0
 410 611 432 633 460 633 c 0
 488 633 510 611 510 583 c 0
 510 566 501 551 488 542 c 1
 501 533 510 517 510 500 c 0
 510 483 501 467 488 458 c 1
 501 449 510 434 510 417 c 0
 510 399 501 384 487 375 c 1
 501 366 510 351 510 333 c 1
 510 316 501 301 488 292 c 1
 501 283 510 267 510 250 c 0xe080
403 250 m 0xe2
 403 222 381 200 353 200 c 0
 325 200 303 222 303 250 c 0
 303 278 325 300 353 300 c 0
 381 300 403 278 403 250 c 0xe2
297 250 m 0xe4
 297 222 275 200 247 200 c 0
 219 200 197 222 197 250 c 0
 197 278 219 300 247 300 c 0
 275 300 297 278 297 250 c 0xe4
190 333 m 0xf0
 190 305 168 283 140 283 c 0
 112 283 90 305 90 333 c 0
 90 351 99 366 113 375 c 1
 99 384 90 399 90 417 c 0
 90 434 99 449 112 458 c 1
 99 467 90 483 90 500 c 1
 90 517 99 533 112 542 c 1
 99 551 90 566 90 583 c 0
 90 611 112 633 140 633 c 0
 168 633 190 611 190 583 c 0
 190 566 181 551 168 542 c 1
 181 533 190 517 190 500 c 0
 190 483 181 467 168 458 c 1
 181 449 190 434 190 417 c 1
 190 399 181 384 167 375 c 1
 181 366 190 351 190 333 c 0xf0
457 750 m 0xe1
 457 722 435 700 407 700 c 0
 379 700 357 722 357 750 c 0
 357 778 379 800 407 800 c 0
 435 800 457 778 457 750 c 0xe1
243 750 m 0xe8
 243 722 221 700 193 700 c 0
 165 700 143 722 143 750 c 0
 143 778 165 800 193 800 c 0
 221 800 243 778 243 750 c 0xe8
EndSplineSet
EndChar

StartChar: glyph78
Encoding: 776 776 78
Width: 600
VWidth: 0
UnlinkRmOvrlpSave: 1
Flags: W
HStem: 700 100<98.4375 181.562 312.438 395.562>
VStem: 90 100<708.438 791.562> 304 100<708.438 791.562>
LayerCount: 2
Back
Fore
SplineSet
404 750 m 0
 404 722 382 700 354 700 c 0
 326 700 304 722 304 750 c 0
 304 778 326 800 354 800 c 0
 382 800 404 778 404 750 c 0
190 750 m 0
 190 722 168 700 140 700 c 0
 112 700 90 722 90 750 c 0
 90 778 112 800 140 800 c 0
 168 800 190 778 190 750 c 0
EndSplineSet
EndChar

StartChar: glyph79
Encoding: 9786 9786 79
Width: 600
VWidth: 0
UnlinkRmOvrlpSave: 1
Flags: W
HStem: 283 100<171.328 234.562 258.438 341.562 365.438 428.672> 367 100<98.4375 161.672 438.328 501.562> 617 100<151.438 234.562 365.438 448.562>
VStem: 90 100<378.426 458.562> 143 100<291.438 371.574 625.438 708.562> 250 100<291.438 374.562> 357 100<291.438 371.574 625.438 708.562> 410 100<378.426 458.562>
LayerCount: 2
Back
Fore
SplineSet
457 333 m 0x66
 457 305 435 283 407 283 c 0
 379 283 357 305 357 333 c 0
 357 361 379 383 407 383 c 0xa6
 415 383 422 381 429 378 c 1
 418 387 410 401 410 417 c 0
 410 445 432 467 460 467 c 0
 488 467 510 445 510 417 c 0x65
 510 389 488 367 460 367 c 0
 452 367 445 369 438 372 c 1
 449 363 457 349 457 333 c 0x66
350 333 m 0
 350 305 328 283 300 283 c 0
 272 283 250 305 250 333 c 0
 250 361 272 383 300 383 c 0
 328 383 350 361 350 333 c 0
243 333 m 0xac
 243 305 221 283 193 283 c 0
 165 283 143 305 143 333 c 0xac
 143 349 151 363 162 372 c 1
 155 369 148 367 140 367 c 0
 112 367 90 389 90 417 c 0
 90 445 112 467 140 467 c 0
 168 467 190 445 190 417 c 0x74
 190 401 182 387 171 378 c 1
 178 381 185 383 193 383 c 0
 221 383 243 361 243 333 c 0xac
457 667 m 0x26
 457 639 435 617 407 617 c 0
 379 617 357 639 357 667 c 0
 357 695 379 717 407 717 c 0
 435 717 457 695 457 667 c 0x26
243 667 m 0x2c
 243 639 221 617 193 617 c 0
 165 617 143 639 143 667 c 0
 143 695 165 717 193 717 c 0
 221 717 243 695 243 667 c 0x2c
EndSplineSet
EndChar

StartChar: glyph80
Encoding: 8595 8595 80
Width: 600
VWidth: 0
UnlinkRmOvrlpSave: 1
Flags: W
HStem: 200 21G<286 314> 200 21G<286 314> 283 100<171.328 234.562 365.438 428.672> 367 100<98.4375 161.672 438.328 501.562> 780 20G<286 314>
VStem: 90 100<378.426 458.562> 143 100<291.438 371.574> 250 100<208.438 291.573 292.426 374.139 375.861 457.574 458.427 541.573 542.426 624.139 625.861 707.574 708.427 791.562> 357 100<291.438 371.574> 410 100<378.426 458.562>
LayerCount: 2
Back
Fore
SplineSet
350 250 m 0x89
 350 222 328 200 300 200 c 0
 272 200 250 222 250 250 c 0
 250 267 259 283 272 292 c 1
 259 301 250 316 250 333 c 1
 250 351 259 366 273 375 c 1
 259 384 250 399 250 417 c 0
 250 434 259 449 272 458 c 1
 259 467 250 483 250 500 c 1
 250 517 259 533 272 542 c 1
 259 551 250 566 250 583 c 0
 250 601 259 616 273 625 c 1
 259 634 250 649 250 667 c 0
 250 684 259 699 272 708 c 1
 259 717 250 733 250 750 c 0
 250 778 272 800 300 800 c 0
 328 800 350 778 350 750 c 0
 350 733 341 717 328 708 c 1
 341 699 350 684 350 667 c 0
 350 649 341 634 327 625 c 1
 341 616 350 601 350 583 c 0
 350 566 341 551 328 542 c 1
 341 533 350 517 350 500 c 0
 350 483 341 467 328 458 c 1
 341 449 350 434 350 417 c 0
 350 399 341 384 327 375 c 1
 341 366 350 351 350 333 c 1
 350 316 341 301 328 292 c 1
 341 283 350 267 350 250 c 0x89
457 333 m 0x1980
 457 305 435 283 407 283 c 0
 379 283 357 305 357 333 c 0
 357 361 379 383 407 383 c 0x2980
 415 383 422 381 429 378 c 1
 418 387 410 401 410 417 c 0
 410 445 432 467 460 467 c 0
 488 467 510 445 510 417 c 0x1940
 510 389 488 367 460 367 c 0
 452 367 445 369 438 372 c 1
 449 363 457 349 457 333 c 0x1980
243 333 m 0x2b
 243 305 221 283 193 283 c 0
 165 283 143 305 143 333 c 0x2b
 143 349 151 363 162 372 c 1
 155 369 148 367 140 367 c 0
 112 367 90 389 90 417 c 0
 90 445 112 467 140 467 c 0
 168 467 190 445 190 417 c 0x1d
 190 401 182 387 171 378 c 1
 178 381 185 383 193 383 c 0
 221 383 243 361 243 333 c 0x2b
EndSplineSet
EndChar

StartChar: quotedbl
Encoding: 34 34 81
Width: 600
VWidth: 0
UnlinkRmOvrlpSave: 1
Flags: W
HStem: 533 267<113.902 166.098 219.902 272.098>
VStem: 90 100<541.438 624.139 625.861 707.574 708.427 791.562> 196 100<541.438 624.139 625.861 707.574 708.427 791.562>
LayerCount: 2
Back
Fore
SplineSet
296 583 m 0
 296 555 274 533 246 533 c 0
 218 533 196 555 196 583 c 0
 196 601 205 616 219 625 c 1
 205 634 196 649 196 667 c 0
 196 684 205 699 218 708 c 1
 205 717 196 733 196 750 c 0
 196 778 218 800 246 800 c 0
 274 800 296 778 296 750 c 0
 296 733 287 717 274 708 c 1
 287 699 296 684 296 667 c 0
 296 649 287 634 273 625 c 1
 287 616 296 601 296 583 c 0
190 583 m 0
 190 555 168 533 140 533 c 0
 112 533 90 555 90 583 c 0
 90 601 99 616 113 625 c 1
 99 634 90 649 90 667 c 0
 90 684 99 699 112 708 c 1
 99 717 90 733 90 750 c 0
 90 778 112 800 140 800 c 0
 168 800 190 778 190 750 c 0
 190 733 181 717 168 708 c 1
 181 699 190 684 190 667 c 0
 190 649 181 634 167 625 c 1
 181 616 190 601 190 583 c 0
EndSplineSet
EndChar

StartChar: ampersand
Encoding: 38 38 82
Width: 600
VWidth: 0
UnlinkRmOvrlpSave: 1
Flags: W
HStem: 200 100<174.281 234.562 258.438 318.719 386.282 448.562> 283 100<98.4375 158.715 334.285 373.718> 367 100<171.328 213.718 281 322 382.33 448.562> 450 100<226.282 265.719> 533 100<171.328 213.718 281 322> 617 100<98.4375 158.715 334.285 394.562> 700 100<174.281 234.562 258.438 318.719>
VStem: 90 100<296.667 371.574 628.426 703.333> 143 100<208.438 286.333 378.426 454.574 545.426 621.574 713.667 791.562> 197 100<463.425 536.575> 250 100<208.438 286.333 378.426 453.333 546.667 621.574 713.667 791.562> 303 100<296.425 371.574 628.426 703.333> 357 100<208.438 287.574 376.426 458.562>
LayerCount: 2
Back
Fore
SplineSet
457 250 m 0xa008
 457 222 435 200 407 200 c 0xa008
 379 200 357 222 357 250 c 0
 357 265 364 279 374 288 c 1
 368 285 361 283 353 283 c 0x4008
 346 283 340 285 334 287 c 1
 344 278 350 265 350 250 c 1
 350 222 328 200 300 200 c 0
 272 200 250 222 250 250 c 0x8028
 250 278 272 300 300 300 c 0
 307 300 313 298 319 296 c 1
 309 305 303 318 303 333 c 1
 303 349 311 363 322 372 c 1
 315 369 308 367 300 367 c 0xa010
 272 367 250 389 250 417 c 0
 250 432 256 445 266 454 c 1
 260 452 254 450 247 450 c 0
 239 450 232 452 226 455 c 1
 236 446 243 432 243 417 c 1x10a0
 243 389 221 367 193 367 c 0
 185 367 178 369 171 372 c 1
 182 363 190 349 190 333 c 0x21
 190 318 184 305 174 296 c 1
 180 298 186 300 193 300 c 0
 221 300 243 278 243 250 c 0
 243 222 221 200 193 200 c 0
 165 200 143 222 143 250 c 0xa080
 143 265 149 278 159 287 c 1
 153 285 147 283 140 283 c 0
 112 283 90 305 90 333 c 0x41
 90 361 112 383 140 383 c 0
 148 383 155 381 162 378 c 1
 151 387 143 401 143 417 c 0x4080
 143 445 165 467 193 467 c 0
 201 467 208 465 214 462 c 1
 204 471 197 485 197 500 c 1x2040
 197 515 204 529 214 538 c 1
 208 535 201 533 193 533 c 0
 165 533 143 555 143 583 c 0x2880
 143 599 151 613 162 622 c 1
 155 619 148 617 140 617 c 0
 112 617 90 639 90 667 c 0
 90 695 112 717 140 717 c 0x05
 147 717 153 715 159 713 c 1
 149 722 143 735 143 750 c 0
 143 778 165 800 193 800 c 0
 221 800 243 778 243 750 c 0x0280
 243 722 221 700 193 700 c 0
 186 700 180 702 174 704 c 1
 184 695 190 682 190 667 c 0
 190 651 182 637 171 628 c 1
 178 631 185 633 193 633 c 0x0b
 221 633 243 611 243 583 c 0
 243 568 236 554 226 545 c 1
 232 548 239 550 247 550 c 0
 254 550 260 548 266 546 c 1
 256 555 250 568 250 583 c 0x10a0
 250 611 272 633 300 633 c 0
 308 633 315 631 322 628 c 1
 311 637 303 651 303 667 c 1x0810
 303 682 309 695 319 704 c 1
 313 702 307 700 300 700 c 0
 272 700 250 722 250 750 c 0
 250 778 272 800 300 800 c 0
 328 800 350 778 350 750 c 0x0a20
 350 735 344 722 334 713 c 1
 340 715 346 717 353 717 c 0
 381 717 403 695 403 667 c 0x0410
 403 639 381 617 353 617 c 0
 345 617 338 619 331 622 c 1
 342 613 350 599 350 583 c 1x0420
 350 555 328 533 300 533 c 0
 293 533 287 535 281 537 c 1
 291 528 297 515 297 500 c 0
 297 485 291 472 281 463 c 1
 287 465 293 467 300 467 c 0x2840
 328 467 350 445 350 417 c 0
 350 401 342 387 331 378 c 1
 338 381 345 383 353 383 c 0x4020
 362 383 371 380 378 376 c 1
 365 385 357 400 357 417 c 1
 357 445 379 467 407 467 c 0
 435 467 457 445 457 417 c 0x2028
 457 389 435 367 407 367 c 0
 398 367 389 370 382 374 c 1
 395 365 403 350 403 333 c 1x2010
 403 318 396 304 386 295 c 1
 392 298 399 300 407 300 c 0
 435 300 457 278 457 250 c 0xa008
EndSplineSet
EndChar

StartChar: asterisk
Encoding: 42 42 83
Width: 600
VWidth: 0
UnlinkRmOvrlpSave: 1
Flags: W
HStem: 200 21G<286 314> 200 21G<286 314> 283 100<98.4375 161.672 438.328 501.562> 367 100<171.328 213.718 386.282 428.672> 450 100<226.282 265.719 334.281 373.718> 533 100<171.328 213.718 386.282 428.672> 617 100<98.4375 161.672 438.328 501.562> 780 20G<286 314>
VStem: 90 100<291.438 371.574 628.426 708.562> 143 100<378.426 454.574 545.426 621.574> 197 100<463.425 536.575> 250 100<208.438 291.573 292.426 374.139 375.861 453.575 546.425 624.139 625.861 707.574 708.427 791.562> 303 100<463.425 536.575> 357 100<378.426 454.574 545.426 621.574> 410 100<291.438 371.574 628.426 708.562>
LayerCount: 2
Back
Fore
SplineSet
350 250 m 0x0914
 350 222 328 200 300 200 c 0
 272 200 250 222 250 250 c 0
 250 267 259 283 272 292 c 1
 259 301 250 316 250 333 c 1
 250 351 259 366 273 375 c 1
 259 384 250 399 250 417 c 0
 250 432 256 445 266 454 c 1
 260 452 254 450 247 450 c 0x8914
 239 450 232 452 226 455 c 1
 236 446 243 432 243 417 c 1
 243 389 221 367 193 367 c 0x1154
 185 367 178 369 171 372 c 1
 182 363 190 349 190 333 c 0
 190 305 168 283 140 283 c 0
 112 283 90 305 90 333 c 0x2180
 90 361 112 383 140 383 c 0
 148 383 155 381 162 378 c 1
 151 387 143 401 143 417 c 0x2140
 143 445 165 467 193 467 c 0
 201 467 208 465 214 462 c 1
 204 471 197 485 197 500 c 1x1120
 197 515 204 529 214 538 c 1
 208 535 201 533 193 533 c 0
 165 533 143 555 143 583 c 0x1540
 143 599 151 613 162 622 c 1
 155 619 148 617 140 617 c 0
 112 617 90 639 90 667 c 0
 90 695 112 717 140 717 c 0x0380
 168 717 190 695 190 667 c 0
 190 651 182 637 171 628 c 1
 178 631 185 633 193 633 c 0x0580
 221 633 243 611 243 583 c 0
 243 568 236 554 226 545 c 1
 232 548 239 550 247 550 c 0
 254 550 260 548 266 546 c 1
 256 555 250 568 250 583 c 0
 250 601 259 616 273 625 c 1
 259 634 250 649 250 667 c 0
 250 684 259 699 272 708 c 1
 259 717 250 733 250 750 c 0
 250 778 272 800 300 800 c 0
 328 800 350 778 350 750 c 0
 350 733 341 717 328 708 c 1
 341 699 350 684 350 667 c 0
 350 649 341 634 327 625 c 1
 341 616 350 601 350 583 c 0
 350 568 344 555 334 546 c 1
 340 548 346 550 353 550 c 0x0950
 361 550 368 548 374 545 c 1
 364 554 357 568 357 583 c 0
 357 611 379 633 407 633 c 0x0554
 415 633 422 631 429 628 c 1
 418 637 410 651 410 667 c 1
 410 695 432 717 460 717 c 0
 488 717 510 695 510 667 c 0x0302
 510 639 488 617 460 617 c 0
 452 617 445 619 438 622 c 1
 449 613 457 599 457 583 c 1x0304
 457 555 435 533 407 533 c 0
 399 533 392 535 386 538 c 1
 396 529 403 515 403 500 c 0x0508
 403 485 396 471 386 462 c 1
 392 465 399 467 407 467 c 0
 435 467 457 445 457 417 c 0x1504
 457 401 449 387 438 378 c 1
 445 381 452 383 460 383 c 0
 488 383 510 361 510 333 c 0
 510 305 488 283 460 283 c 0x2102
 432 283 410 305 410 333 c 0
 410 349 418 363 429 372 c 1
 422 369 415 367 407 367 c 0x1102
 379 367 357 389 357 417 c 0
 357 432 364 446 374 455 c 1
 368 452 361 450 353 450 c 0
 346 450 340 452 334 454 c 1
 344 445 350 432 350 417 c 1
 350 399 341 384 327 375 c 1
 341 366 350 351 350 333 c 1
 350 316 341 301 328 292 c 1
 341 283 350 267 350 250 c 0x0914
319 463 m 1
 309 472 303 485 303 500 c 1
 303 515 309 528 319 537 c 1
 313 535 307 533 300 533 c 0
 293 533 287 535 281 537 c 1
 291 528 297 515 297 500 c 0
 297 485 291 472 281 463 c 1
 287 465 293 467 300 467 c 0x1528
 307 467 313 465 319 463 c 1
EndSplineSet
EndChar

StartChar: period
Encoding: 46 46 84
Width: 600
VWidth: 0
UnlinkRmOvrlpSave: 1
Flags: W
HStem: 200 21G<179 207> 200 21G<179 207> 283 100<98.4375 158.715 227.285 287.562> 367 100<171.328 214.672>
VStem: 90 100<296.667 371.574> 143 100<208.438 286.575 378.426 458.562> 196 100<296.667 371.574>
LayerCount: 2
Back
Fore
SplineSet
243 250 m 1x24
 243 222 221 200 193 200 c 0
 165 200 143 222 143 250 c 0xa4
 143 265 149 278 159 287 c 1
 153 285 147 283 140 283 c 0
 112 283 90 305 90 333 c 0
 90 361 112 383 140 383 c 0xa8
 148 383 155 381 162 378 c 1
 151 387 143 401 143 417 c 0
 143 445 165 467 193 467 c 0
 221 467 243 445 243 417 c 0x14
 243 401 235 387 224 378 c 1
 231 381 238 383 246 383 c 0
 274 383 296 361 296 333 c 0x22
 296 305 274 283 246 283 c 0
 239 283 233 285 227 287 c 1
 237 278 243 265 243 250 c 1x24
212 296 m 1
 202 305 196 318 196 333 c 1
 196 349 204 363 215 372 c 1
 208 369 201 367 193 367 c 0
 185 367 178 369 171 372 c 1
 182 363 190 349 190 333 c 0x1a
 190 318 184 305 174 296 c 1
 180 298 186 300 193 300 c 0
 200 300 206 298 212 296 c 1
EndSplineSet
EndChar

StartChar: plusminus
Encoding: 177 177 85
Width: 600
VWidth: 0
UnlinkRmOvrlpSave: 1
Flags: W
HStem: 283 100<98.4375 181.562 205.438 288.562 311.438 394.562 418.438 501.562> 533 100<98.4375 181.562 205.438 265.715 334.285 394.562 418.438 501.562> 780 20G<286 314>
VStem: 90 100<291.438 374.562 541.438 624.562> 197 100<291.438 374.562 546.667 621.574> 250 100<458.438 536.575 628.426 707.574 708.427 791.562> 303 100<291.438 374.562 546.667 621.574> 410 100<291.438 374.562 541.438 624.562>
LayerCount: 2
Back
Fore
SplineSet
510 333 m 0xf1
 510 305 488 283 460 283 c 0
 432 283 410 305 410 333 c 0
 410 361 432 383 460 383 c 0
 488 383 510 361 510 333 c 0xf1
403 333 m 0xf3
 403 305 381 283 353 283 c 0
 325 283 303 305 303 333 c 0
 303 361 325 383 353 383 c 0
 381 383 403 361 403 333 c 0xf3
297 333 m 0xf9
 297 305 275 283 247 283 c 0
 219 283 197 305 197 333 c 0
 197 361 219 383 247 383 c 0
 275 383 297 361 297 333 c 0xf9
190 333 m 0
 190 305 168 283 140 283 c 0
 112 283 90 305 90 333 c 0
 90 361 112 383 140 383 c 0
 168 383 190 361 190 333 c 0
350 500 m 1xf5
 350 472 328 450 300 450 c 0
 272 450 250 472 250 500 c 0xf5
 250 515 256 528 266 537 c 1
 260 535 254 533 247 533 c 0
 219 533 197 555 197 583 c 0xf9
 197 611 219 633 247 633 c 0
 255 633 262 631 269 628 c 1
 258 637 250 651 250 667 c 1
 250 684 259 699 272 708 c 1
 259 717 250 733 250 750 c 0
 250 778 272 800 300 800 c 0
 328 800 350 778 350 750 c 0
 350 733 341 717 328 708 c 1
 341 699 350 684 350 667 c 0xf5
 350 651 342 637 331 628 c 1
 338 631 345 633 353 633 c 0
 381 633 403 611 403 583 c 0xf3
 403 555 381 533 353 533 c 0
 346 533 340 535 334 537 c 1
 344 528 350 515 350 500 c 1xf5
510 583 m 0
 510 555 488 533 460 533 c 0
 432 533 410 555 410 583 c 0
 410 611 432 633 460 633 c 0
 488 633 510 611 510 583 c 0
190 583 m 0
 190 555 168 533 140 533 c 0
 112 533 90 555 90 583 c 0
 90 611 112 633 140 633 c 0
 168 633 190 611 190 583 c 0
319 546 m 1
 309 555 303 568 303 583 c 1
 303 599 311 613 322 622 c 1
 315 619 308 617 300 617 c 0
 292 617 285 619 278 622 c 1
 289 613 297 599 297 583 c 1xfb
 297 568 291 555 281 546 c 1
 287 548 293 550 300 550 c 0
 307 550 313 548 319 546 c 1
EndSplineSet
EndChar

StartChar: two
Encoding: 50 50 86
Width: 600
VWidth: 0
UnlinkRmOvrlpSave: 1
Flags: W
HStem: 200 100<98.4375 158.719 226.282 288.562 311.438 394.562 418.438 501.562> 283 100<174.281 213.718> 367 100<258.438 341.562> 450 100<365.438 425.719> 617 100<98.4375 158.719> 700 100<174.281 234.562 258.438 341.562 365.438 425.719>
VStem: 90 100<208.438 286.333 625.438 703.333> 143 100<296.425 374.562 713.667 791.562> 197 100<208.438 287.574> 250 100<375.438 458.562 708.438 791.562> 303 100<208.438 291.562> 357 100<458.438 536.333 713.667 791.562> 410 100<208.438 291.562 546.667 624.139 625.861 703.333>
LayerCount: 2
Back
Fore
SplineSet
510 250 m 0x8008
 510 222 488 200 460 200 c 0
 432 200 410 222 410 250 c 0
 410 278 432 300 460 300 c 0
 488 300 510 278 510 250 c 0x8008
403 250 m 0x8020
 403 222 381 200 353 200 c 0
 325 200 303 222 303 250 c 0
 303 278 325 300 353 300 c 0
 381 300 403 278 403 250 c 0x8020
297 250 m 0x8080
 297 222 275 200 247 200 c 0x8080
 219 200 197 222 197 250 c 0
 197 265 204 279 214 288 c 1
 208 285 201 283 193 283 c 0x4080
 186 283 180 285 174 287 c 1
 184 278 190 265 190 250 c 0
 190 222 168 200 140 200 c 0
 112 200 90 222 90 250 c 0
 90 278 112 300 140 300 c 0x8280
 147 300 153 298 159 296 c 1
 149 305 143 318 143 333 c 0
 143 361 165 383 193 383 c 0
 221 383 243 361 243 333 c 0x41
 243 318 236 304 226 295 c 1
 232 298 239 300 247 300 c 0
 275 300 297 278 297 250 c 0x8080
350 417 m 0x2040
 350 389 328 367 300 367 c 0
 272 367 250 389 250 417 c 0
 250 445 272 467 300 467 c 0
 328 467 350 445 350 417 c 0x2040
457 500 m 1x0810
 457 472 435 450 407 450 c 0
 379 450 357 472 357 500 c 0x1810
 357 528 379 550 407 550 c 0
 414 550 420 548 426 546 c 1
 416 555 410 568 410 583 c 1
 410 601 419 616 433 625 c 1
 419 634 410 649 410 667 c 0x1808
 410 682 416 695 426 704 c 1
 420 702 414 700 407 700 c 0
 379 700 357 722 357 750 c 0
 357 778 379 800 407 800 c 0
 435 800 457 778 457 750 c 0x1410
 457 735 451 722 441 713 c 1
 447 715 453 717 460 717 c 0
 488 717 510 695 510 667 c 0
 510 649 501 634 487 625 c 1
 501 616 510 601 510 583 c 0x0808
 510 555 488 533 460 533 c 0
 453 533 447 535 441 537 c 1
 451 528 457 515 457 500 c 1x0810
190 667 m 0x06
 190 639 168 617 140 617 c 0
 112 617 90 639 90 667 c 0
 90 695 112 717 140 717 c 0x0a
 147 717 153 715 159 713 c 1
 149 722 143 735 143 750 c 0
 143 778 165 800 193 800 c 0
 221 800 243 778 243 750 c 0x05
 243 722 221 700 193 700 c 0
 186 700 180 702 174 704 c 1
 184 695 190 682 190 667 c 0x06
350 750 m 0x0440
 350 722 328 700 300 700 c 0
 272 700 250 722 250 750 c 0
 250 778 272 800 300 800 c 0
 328 800 350 778 350 750 c 0x0440
EndSplineSet
EndChar

StartChar: mu
Encoding: 181 181 87
Width: 600
VWidth: 0
UnlinkRmOvrlpSave: 1
Flags: W
HStem: 200 21G<126 154> 200 21G<126 154> 367 100<205.438 288.562 311.438 373.718 441.281 501.562> 613 20G<126 154 393 421>
VStem: 90 100<208.438 291.573 292.426 374.139 375.861 457.574 458.427 541.573 542.426 624.562> 197 100<375.438 458.562> 303 100<375.438 454.574> 357 100<463.425 541.573 542.426 624.562> 410 100<375.438 453.333>
LayerCount: 2
Back
Fore
SplineSet
190 250 m 1xbc
 190 222 168 200 140 200 c 0
 112 200 90 222 90 250 c 0
 90 267 99 283 112 292 c 1
 99 301 90 316 90 333 c 1
 90 351 99 366 113 375 c 1
 99 384 90 399 90 417 c 0
 90 434 99 449 112 458 c 1
 99 467 90 483 90 500 c 1
 90 517 99 533 112 542 c 1
 99 551 90 566 90 583 c 0
 90 611 112 633 140 633 c 0
 168 633 190 611 190 583 c 0
 190 566 181 551 168 542 c 1
 181 533 190 517 190 500 c 0
 190 483 181 467 168 458 c 1
 181 449 190 434 190 417 c 1
 190 399 181 384 167 375 c 1
 181 366 190 351 190 333 c 0
 190 316 181 301 168 292 c 1
 181 283 190 267 190 250 c 1xbc
510 417 m 0x3c80
 510 389 488 367 460 367 c 0
 432 367 410 389 410 417 c 0
 410 432 416 445 426 454 c 1
 420 452 414 450 407 450 c 0
 399 450 392 452 386 455 c 1
 396 446 403 432 403 417 c 0
 403 389 381 367 353 367 c 0
 325 367 303 389 303 417 c 0x3e80
 303 445 325 467 353 467 c 0
 361 467 368 465 374 462 c 1
 364 471 357 485 357 500 c 0
 357 517 366 533 379 542 c 1
 366 551 357 566 357 583 c 0
 357 611 379 633 407 633 c 0
 435 633 457 611 457 583 c 0
 457 566 448 551 435 542 c 1
 448 533 457 517 457 500 c 0x3d
 457 485 451 472 441 463 c 1
 447 465 453 467 460 467 c 0
 488 467 510 445 510 417 c 0x3c80
297 417 m 0
 297 389 275 367 247 367 c 0
 219 367 197 389 197 417 c 0
 197 445 219 467 247 467 c 0
 275 467 297 445 297 417 c 0
EndSplineSet
EndChar

StartChar: six
Encoding: 54 54 88
Width: 600
VWidth: 0
UnlinkRmOvrlpSave: 1
Flags: W
HStem: 200 100<174.281 234.562 258.438 341.562 365.438 425.719> 450 100<174.281 213.718 281.281 341.562 365.438 425.719> 533 100<226.282 265.715> 617 100<278 319> 700 100<334.281 394.562>
VStem: 90 100<296.667 374.139 375.861 453.333> 143 100<208.438 286.333 463.667 537.574> 197 100<546.425 621.574> 250 100<208.438 291.562 458.438 536.333 628.426 703.333> 303 100<713.667 791.562> 357 100<208.438 286.333 463.667 541.562> 410 100<296.667 374.139 375.861 453.333>
LayerCount: 2
Back
Fore
SplineSet
457 250 m 1xc020
 457 222 435 200 407 200 c 0
 379 200 357 222 357 250 c 0xc020
 357 278 379 300 407 300 c 0
 414 300 420 298 426 296 c 1
 416 305 410 318 410 333 c 1
 410 351 419 366 433 375 c 1
 419 384 410 399 410 417 c 1xc010
 410 432 416 445 426 454 c 1
 420 452 414 450 407 450 c 0
 379 450 357 472 357 500 c 0
 357 528 379 550 407 550 c 0
 435 550 457 528 457 500 c 0xc020
 457 485 451 472 441 463 c 1
 447 465 453 467 460 467 c 0
 488 467 510 445 510 417 c 0
 510 399 501 384 487 375 c 1
 501 366 510 351 510 333 c 1xc010
 510 305 488 283 460 283 c 0
 453 283 447 285 441 287 c 1
 451 278 457 265 457 250 c 1xc020
350 250 m 0x8080
 350 222 328 200 300 200 c 0
 272 200 250 222 250 250 c 0
 250 278 272 300 300 300 c 0
 328 300 350 278 350 250 c 0x8080
243 250 m 0xc2
 243 222 221 200 193 200 c 0
 165 200 143 222 143 250 c 0xc2
 143 265 149 278 159 287 c 1
 153 285 147 283 140 283 c 0
 112 283 90 305 90 333 c 0
 90 351 99 366 113 375 c 1
 99 384 90 399 90 417 c 0xc4
 90 445 112 467 140 467 c 0
 147 467 153 465 159 463 c 1
 149 472 143 485 143 500 c 0
 143 528 165 550 193 550 c 0xc2
 201 550 208 548 214 545 c 1
 204 554 197 568 197 583 c 1
 197 611 219 633 247 633 c 0xa1
 255 633 262 631 269 628 c 1
 258 637 250 651 250 667 c 1
 250 695 272 717 300 717 c 0x9080
 307 717 313 715 319 713 c 1
 309 722 303 735 303 750 c 1
 303 778 325 800 353 800 c 0
 381 800 403 778 403 750 c 0x8840
 403 722 381 700 353 700 c 0
 346 700 340 702 334 704 c 1
 344 695 350 682 350 667 c 1x8880
 350 639 328 617 300 617 c 0
 292 617 285 619 278 622 c 1
 289 613 297 599 297 583 c 1x91
 297 568 291 555 281 546 c 1
 287 548 293 550 300 550 c 0
 328 550 350 528 350 500 c 0
 350 472 328 450 300 450 c 0xd080
 272 450 250 472 250 500 c 0
 250 515 256 528 266 537 c 1
 260 535 254 533 247 533 c 0
 239 533 232 535 226 538 c 1
 236 529 243 515 243 500 c 1xa280
 243 472 221 450 193 450 c 0
 186 450 180 452 174 454 c 1
 184 445 190 432 190 417 c 0
 190 399 181 384 167 375 c 1
 181 366 190 351 190 333 c 0xc4
 190 318 184 305 174 296 c 1
 180 298 186 300 193 300 c 0
 221 300 243 278 243 250 c 0xc2
EndSplineSet
EndChar

StartChar: colon
Encoding: 58 58 89
Width: 600
VWidth: 0
UnlinkRmOvrlpSave: 1
Flags: W
HStem: 200 21G<179 207> 200 21G<179 207> 283 100<98.4375 158.715 227.285 287.562> 367 100<171.328 214.672> 533 100<171.328 214.672> 617 100<98.4375 158.715 227.285 287.562> 780 20G<179 207>
VStem: 90 100<296.667 371.574 628.426 703.333> 143 100<208.438 286.575 378.426 458.562 541.438 621.574 713.425 791.562> 196 100<296.667 371.574 628.426 703.333>
LayerCount: 2
Back
Fore
SplineSet
243 250 m 1x2280
 243 222 221 200 193 200 c 0
 165 200 143 222 143 250 c 0xa280
 143 265 149 278 159 287 c 1
 153 285 147 283 140 283 c 0
 112 283 90 305 90 333 c 0
 90 361 112 383 140 383 c 0xa3
 148 383 155 381 162 378 c 1
 151 387 143 401 143 417 c 0
 143 445 165 467 193 467 c 0
 221 467 243 445 243 417 c 0x1280
 243 401 235 387 224 378 c 1
 231 381 238 383 246 383 c 0
 274 383 296 361 296 333 c 0x2240
 296 305 274 283 246 283 c 0
 239 283 233 285 227 287 c 1
 237 278 243 265 243 250 c 1x2280
243 583 m 1
 243 555 221 533 193 533 c 0
 165 533 143 555 143 583 c 0x0a80
 143 599 151 613 162 622 c 1
 155 619 148 617 140 617 c 0
 112 617 90 639 90 667 c 0x07
 90 695 112 717 140 717 c 0
 147 717 153 715 159 713 c 1
 149 722 143 735 143 750 c 0
 143 778 165 800 193 800 c 0
 221 800 243 778 243 750 c 0x0680
 243 735 237 722 227 713 c 1
 233 715 239 717 246 717 c 0
 274 717 296 695 296 667 c 0
 296 639 274 617 246 617 c 0x0640
 238 617 231 619 224 622 c 1
 235 613 243 599 243 583 c 1
212 296 m 1
 202 305 196 318 196 333 c 1
 196 349 204 363 215 372 c 1
 208 369 201 367 193 367 c 0
 185 367 178 369 171 372 c 1
 182 363 190 349 190 333 c 0x1340
 190 318 184 305 174 296 c 1
 180 298 186 300 193 300 c 0
 200 300 206 298 212 296 c 1
215 628 m 1
 204 637 196 651 196 667 c 1
 196 682 202 695 212 704 c 1
 206 702 200 700 193 700 c 0
 186 700 180 702 174 704 c 1
 184 695 190 682 190 667 c 0
 190 651 182 637 171 628 c 1
 178 631 185 633 193 633 c 0x0b40
 201 633 208 631 215 628 c 1
EndSplineSet
EndChar

StartChar: greater
Encoding: 62 62 90
Width: 600
VWidth: 0
UnlinkRmOvrlpSave: 1
Flags: W
HStem: 200 100<98.4375 181.562> 283 100<205.438 288.562> 367 100<311.438 394.562> 450 100<418.438 501.562> 533 100<311.438 394.562> 617 100<205.438 288.562> 700 100<98.4375 181.562>
VStem: 90 100<208.438 291.562 708.438 791.562> 197 100<291.438 374.562 625.438 708.562> 303 100<375.438 458.562 541.438 624.562> 410 100<458.438 541.562>
LayerCount: 2
Back
Fore
SplineSet
190 250 m 0x81e0
 190 222 168 200 140 200 c 0
 112 200 90 222 90 250 c 0
 90 278 112 300 140 300 c 0
 168 300 190 278 190 250 c 0x81e0
297 333 m 0
 297 305 275 283 247 283 c 0
 219 283 197 305 197 333 c 0
 197 361 219 383 247 383 c 0x41e0
 275 383 297 361 297 333 c 0
403 417 m 0
 403 389 381 367 353 367 c 0
 325 367 303 389 303 417 c 0
 303 445 325 467 353 467 c 0x21e0
 381 467 403 445 403 417 c 0
510 500 m 0
 510 472 488 450 460 450 c 0
 432 450 410 472 410 500 c 0
 410 528 432 550 460 550 c 0x11e0
 488 550 510 528 510 500 c 0
403 583 m 0
 403 555 381 533 353 533 c 0
 325 533 303 555 303 583 c 0
 303 611 325 633 353 633 c 0x09e0
 381 633 403 611 403 583 c 0
297 667 m 0
 297 639 275 617 247 617 c 0
 219 617 197 639 197 667 c 0
 197 695 219 717 247 717 c 0x05e0
 275 717 297 695 297 667 c 0
190 750 m 0
 190 722 168 700 140 700 c 0
 112 700 90 722 90 750 c 0
 90 778 112 800 140 800 c 0x03e0
 168 800 190 778 190 750 c 0
EndSplineSet
EndChar

StartChar: Aacute
Encoding: 193 193 91
Width: 600
VWidth: 0
UnlinkRmOvrlpSave: 1
Flags: W
HStem: 200 183<112.88 161.672 438.328 487.12> 283 100<222.33 288.562 311.438 377.67> 367 100<171.328 213.718 386.282 428.672> 450 100<226.282 265.719 334.281 373.718> 700 100<334.281 394.562>
VStem: 90 100<208.438 291.573 292.426 371.574> 143 100<378.426 454.574> 197 100<291.438 373.574 462.426 536.333> 250 100<546.425 624.139 625.861 703.333> 303 100<291.438 373.574 462.426 536.333 713.667 791.562> 357 100<378.426 454.574> 410 100<208.438 291.573 292.426 371.574>
LayerCount: 2
Back
Fore
SplineSet
510 250 m 0x8810
 510 222 488 200 460 200 c 0x8810
 432 200 410 222 410 250 c 0
 410 267 419 283 432 292 c 1
 419 301 410 316 410 333 c 0
 410 349 418 363 429 372 c 1
 422 369 415 367 407 367 c 0x2810
 398 367 389 370 382 374 c 1
 395 365 403 350 403 333 c 1
 403 305 381 283 353 283 c 0
 325 283 303 305 303 333 c 0x4850
 303 361 325 383 353 383 c 0
 362 383 371 380 378 376 c 1
 365 385 357 400 357 417 c 1x4820
 357 432 364 446 374 455 c 1
 368 452 361 450 353 450 c 0
 325 450 303 472 303 500 c 0
 303 515 309 528 319 537 c 1
 313 535 307 533 300 533 c 0
 293 533 287 535 281 537 c 1
 291 528 297 515 297 500 c 0x5940
 297 472 275 450 247 450 c 0
 239 450 232 452 226 455 c 1
 236 446 243 432 243 417 c 1x5a
 243 400 235 385 222 376 c 1
 229 380 238 383 247 383 c 0
 275 383 297 361 297 333 c 0
 297 305 275 283 247 283 c 0x59
 219 283 197 305 197 333 c 0
 197 350 205 365 218 374 c 1
 211 370 202 367 193 367 c 0x29
 185 367 178 369 171 372 c 1
 182 363 190 349 190 333 c 0
 190 316 181 301 168 292 c 1
 181 283 190 267 190 250 c 1
 190 222 168 200 140 200 c 0
 112 200 90 222 90 250 c 0
 90 267 99 283 112 292 c 1
 99 301 90 316 90 333 c 1x8d
 90 361 112 383 140 383 c 0
 148 383 155 381 162 378 c 1
 151 387 143 401 143 417 c 0x8a
 143 445 165 467 193 467 c 0
 201 467 208 465 214 462 c 1
 204 471 197 485 197 500 c 1x29
 197 528 219 550 247 550 c 0
 254 550 260 548 266 546 c 1
 256 555 250 568 250 583 c 0
 250 601 259 616 273 625 c 1
 259 634 250 649 250 667 c 0x1880
 250 695 272 717 300 717 c 0
 307 717 313 715 319 713 c 1
 309 722 303 735 303 750 c 1
 303 778 325 800 353 800 c 0
 381 800 403 778 403 750 c 0x1840
 403 722 381 700 353 700 c 0
 346 700 340 702 334 704 c 1
 344 695 350 682 350 667 c 1
 350 649 341 634 327 625 c 1
 341 616 350 601 350 583 c 0x1880
 350 568 344 555 334 546 c 1
 340 548 346 550 353 550 c 0
 381 550 403 528 403 500 c 0x1840
 403 485 396 471 386 462 c 1
 392 465 399 467 407 467 c 0
 435 467 457 445 457 417 c 0x2820
 457 401 449 387 438 378 c 1
 445 381 452 383 460 383 c 0
 488 383 510 361 510 333 c 0
 510 316 501 301 488 292 c 1
 501 283 510 267 510 250 c 0x8810
EndSplineSet
EndChar

